<svg width="88" height="71" xmlns="http://www.w3.org/2000/svg"><path d="M12.517 70.902h64.062c6.934 0 11.035-4.101 11.035-12.304V19.34c0-8.203-4.15-12.256-12.45-12.256H38.59c-2.393 0-3.955-.684-5.81-2.197l-2.442-1.953C27.8.834 25.7.102 21.99.102H11.052C4.167.102.066 4.105.066 12.26v46.338c0 8.203 4.15 12.304 12.45 12.304zm-5.42-58.3c0-3.614 1.953-5.47 5.469-5.47h7.568c2.393 0 3.955.684 5.81 2.198l2.442 1.953c2.49 2.051 4.639 2.832 8.35 2.832h38.33c3.515 0 5.517 1.905 5.517 5.615v1.71H7.097v-8.838zm5.517 51.22c-3.515 0-5.517-1.855-5.517-5.566V28.03h73.486v30.274c0 3.662-2.002 5.517-5.517 5.517H12.614z" fill="#000" fill-rule="nonzero"/></svg>