<svg width="92" height="72" xmlns="http://www.w3.org/2000/svg"><path d="M13.007 71.39H78.68c8.35 0 12.451-4.1 12.451-12.304V12.504C91.132 4.3 87.03.199 78.681.199H13.007C4.706.2.556 4.301.556 12.504v46.582c0 8.203 4.15 12.305 12.45 12.305zm.097-7.08c-3.515 0-5.517-1.855-5.517-5.566V12.846c0-3.662 2.002-5.567 5.517-5.567h65.479c3.516 0 5.517 1.905 5.517 5.567v45.898c0 3.711-2.001 5.567-5.517 5.567H13.104zm47.461-26.416c1.66-.927 1.612-3.32 0-4.247L38.788 20.854c-1.709-1.026-4.053-.245-4.053 1.709v26.415c0 1.954 2.149 2.881 4.053 1.71l21.777-12.794z" fill="#000" fill-rule="nonzero"/></svg>