<svg width="92" height="74" xmlns="http://www.w3.org/2000/svg"><path d="M20.605 1.59 1.366 21.365c-.732.782-1.22 1.905-1.22 2.881 0 2.344 1.611 3.906 3.906 3.906 1.123 0 1.953-.39 2.685-1.123l7.52-7.812 5.762-6.983-.44 9.034v48.046c0 2.344 1.66 3.956 3.955 3.956s3.955-1.612 3.955-3.956V21.268l-.44-9.034 5.763 6.983 7.52 7.812c.732.733 1.562 1.123 2.685 1.123 2.295 0 3.906-1.562 3.906-3.906 0-.976-.488-2.1-1.22-2.88L26.512 1.59c-1.66-1.71-4.248-1.758-5.908 0zm50.488 70.36L90.33 52.176c.733-.782 1.221-1.953 1.221-2.881 0-2.344-1.612-3.906-3.906-3.906-1.123 0-1.954.39-2.686 1.123l-7.52 7.812-5.761 6.934.39-8.985V4.227c0-2.295-1.61-3.907-3.906-3.907-2.295 0-3.955 1.612-3.955 3.907v48.046l.44 8.985-5.811-6.934-7.52-7.812c-.683-.733-1.562-1.123-2.685-1.123-2.295 0-3.858 1.562-3.858 3.906 0 .928.44 2.1 1.221 2.88l19.19 19.776c1.66 1.758 4.248 1.807 5.908 0z"/></svg>