<svg width="8" height="13" xmlns="http://www.w3.org/2000/svg"><g fill="#FFF" fill-rule="nonzero"><path d="M6.636 5.463a.769.769 0 00.758-.77.692.692 0 00-.215-.525L4.542 1.461c-.207-.204-.4-.293-.651-.296-.245 0-.44.088-.648.296L.602 4.168a.717.717 0 00-.215.526c0 .422.344.77.759.77.214 0 .41-.09.57-.256l2.182-2.264L6.07 5.208c.159.17.355.255.566.255zM3.89 11.88c.252-.004.445-.092.652-.296l2.637-2.708a.698.698 0 00.215-.525.769.769 0 00-.758-.77.77.77 0 00-.566.252l-2.172 2.268-2.183-2.268a.787.787 0 00-.57-.252.769.769 0 00-.758.77c0 .207.07.374.215.525l2.641 2.708c.207.207.403.296.648.296z"/></g></svg>