<svg width="80" height="80" xmlns="http://www.w3.org/2000/svg"><path d="M39.82 79.15c21.533 0 39.453-17.87 39.453-39.404C79.273 18.213 61.305.342 39.771.342 18.287.342.416 18.212.416 39.746c0 21.533 17.92 39.404 39.404 39.404Zm0-7.421c-17.724 0-31.885-14.21-31.885-31.983S22.047 7.764 39.771 7.764c17.774 0 31.983 14.209 32.032 31.982C71.85 57.52 57.593 71.73 39.82 71.73ZM20.29 44.092h19.482c1.71 0 3.028-1.319 3.028-2.979V15.967c0-1.71-1.319-3.028-3.028-3.028-1.66 0-2.978 1.319-2.978 3.028v22.119H20.289c-1.709 0-2.979 1.318-2.979 3.027 0 1.66 1.27 2.979 2.979 2.979Z" fill="#000" fill-rule="nonzero"/></svg>