<svg width="81" height="81" xmlns="http://www.w3.org/2000/svg"><path d="M40.559 80.639c21.826 0 39.892-18.067 39.892-39.893S62.336.853 40.51.853C18.684.853.666 18.92.666 40.746S18.732 80.64 40.559 80.64Zm0-8.643c-17.334 0-31.202-13.916-31.202-31.25S23.176 9.545 40.51 9.545c17.334 0 31.2 13.867 31.25 31.201.049 17.334-13.867 31.25-31.201 31.25Zm-18.897-26.27H40.51c1.904 0 3.369-1.464 3.369-3.32V17.894c0-1.855-1.465-3.32-3.37-3.32a3.293 3.293 0 0 0-3.32 3.32v21.143H21.662c-1.904 0-3.37 1.465-3.37 3.37 0 1.855 1.466 3.32 3.37 3.32Z" fill="#000" fill-rule="nonzero"/></svg>