<svg width="80" height="98" xmlns="http://www.w3.org/2000/svg"><path d="M.466 84.684c0 8.35 4.052 12.45 12.256 12.45h35.644c8.203 0 12.305-4.15 12.305-12.45V77.7h6.25c8.203 0 12.304-4.15 12.304-12.451V35.074c0-5.322-1.074-8.691-4.199-11.914L56.716 4.46c-2.979-3.076-6.543-4.2-11.182-4.2H31.276C23.073.26 19.02 4.41 19.02 12.712v6.982h-6.298c-8.204 0-12.256 4.15-12.256 12.451v52.54zm56.25-40.332L36.452 23.648c-3.125-3.271-5.81-3.955-10.4-3.955V12.81c0-3.516 1.904-5.518 5.615-5.518h16.601v18.848c0 4.638 2.295 6.933 6.885 6.933h16.992v32.08c0 3.516-1.904 5.518-5.566 5.518H60.67V55.533c0-5.42-.586-7.715-3.955-11.181zm-2.149-19.287V10.513l15.87 16.26h-14.16c-1.221 0-1.71-.489-1.71-1.71zm-47.07 59.52V32.243c0-3.515 1.904-5.517 5.615-5.517h11.67v21.68c0 5.126 2.588 7.665 7.666 7.665h21.143v28.516c0 3.516-1.905 5.518-5.567 5.518h-34.96c-3.663 0-5.567-2.002-5.567-5.518zm25.781-35.058c-1.367 0-1.953-.586-1.953-1.953V28.092l20.947 21.435H33.278z" fill="#000" fill-rule="nonzero"/></svg>