<svg width="81" height="99" xmlns="http://www.w3.org/2000/svg"><path d="M.496 85.732c0 8.545 4.345 12.94 12.793 12.94h35.546c8.448 0 12.793-4.443 12.793-12.94V78.75h6.153c8.447 0 12.842-4.443 12.842-12.988V36.269c0-5.615-1.172-9.13-4.395-12.45L58.015 5.165C54.89 1.992 51.13.771 46.296.771H32.234c-8.447 0-12.793 4.444-12.793 12.94v6.982h-6.152C4.84 20.693.496 25.137.496 33.633v52.1Zm57.03-40.478-20.019-20.41c-3.027-3.076-5.615-3.955-9.717-4.102V14.2c0-3.271 1.71-5.127 5.176-5.127H48.69V26.65c0 4.932 2.637 7.569 7.52 7.569h16.064v31.054c0 3.32-1.709 5.127-5.176 5.127h-5.469V56.924c0-5.567-.634-8.155-4.101-11.67Zm-1.952-19.678V12.393l14.648 14.892h-12.89c-1.221 0-1.758-.537-1.758-1.709ZM8.796 85.244V34.121c0-3.271 1.758-5.078 5.225-5.078h10.986v20.41c0 5.762 2.832 8.594 8.545 8.594h19.776v27.197c0 3.272-1.71 5.078-5.176 5.078h-34.18c-3.418 0-5.176-1.806-5.176-5.078Zm25.586-34.521c-1.416 0-2.05-.635-2.05-2.1V30.459l19.873 20.264H34.382Z" fill="#000" fill-rule="nonzero"/></svg>