<svg width="83" height="106" xmlns="http://www.w3.org/2000/svg"><path d="M15.918 105.09h51.855c10.108 0 15.137-5.127 15.137-15.283V45.47c0-6.3-.732-9.033-4.639-13.037L51.367 5.04C47.657 1.232 44.58.402 39.111.402H15.918C5.859.402.78 5.578.78 15.734v74.073c0 10.205 5.03 15.283 15.137 15.283Zm.342-7.861c-5.03 0-7.618-2.686-7.618-7.569V15.88c0-4.833 2.588-7.616 7.666-7.616h21.729v28.369c0 6.152 3.076 9.18 9.18 9.18h27.832V89.66c0 4.883-2.588 7.569-7.666 7.569H16.26Zm31.836-58.79c-1.954 0-2.686-.78-2.686-2.734V9.777L73.535 38.44h-25.44Zm11.718 20.85h-37.06c-1.758 0-3.076 1.318-3.076 2.979 0 1.709 1.318 3.027 3.076 3.027h37.06c1.71 0 2.979-1.318 2.979-3.027 0-1.66-1.27-2.979-2.979-2.979Zm0 17.041h-37.06c-1.758 0-3.076 1.367-3.076 3.076 0 1.66 1.318 2.93 3.076 2.93h37.06c1.71 0 2.979-1.27 2.979-2.93 0-1.709-1.27-3.076-2.979-3.076Z" fill="#000" fill-rule="nonzero"/></svg>