<svg width="81" height="99" xmlns="http://www.w3.org/2000/svg"><path d="M67.634 78.75h.489c7.568 0 12.5-4.15 12.5-12.988V29.873H59.529c-3.955 0-6.446-2.441-6.446-6.396V.77H32.185c-8.252 0-12.744 4.444-12.744 12.55v1.366h5.81c6.348 0 11.133 1.514 15.674 6.055l21.29 21.29c4.443 4.443 5.42 9.618 5.42 15.673V78.75Zm-6.933-54.346h19.384c-.195-1.416-1.171-2.636-2.734-4.297L62.85 5.166c-1.514-1.563-2.832-2.539-4.248-2.734l.049 19.873c0 1.513.537 2.1 2.05 2.1ZM13.289 98.672h35.546c8.448 0 12.793-4.443 12.793-12.94V56.728H34.236c-5.127 0-7.569-2.49-7.569-7.568V20.693H13.29C4.84 20.693.496 25.137.496 33.633v52.1c0 8.544 4.345 12.939 12.793 12.939Zm21.289-47.95h26.416c-.489-1.757-1.514-3.466-3.418-5.468l-19.58-19.922c-1.954-1.953-3.565-3.223-5.372-3.76V48.77c0 1.27.684 1.954 1.954 1.954Z" fill="#000" fill-rule="nonzero"/></svg>