<?xml version="1.0" encoding="UTF-8"?>
<svg width="81px" height="81px" viewBox="0 0 81 81" version="1.1" xmlns="http://www.w3.org/2000/svg" xmlns:xlink="http://www.w3.org/1999/xlink">
    <title>Shape</title>
    <g id="Page-1" stroke="none" stroke-width="1" fill="none" fill-rule="evenodd">
        <g id="exclamationmark.circle.fill" transform="translate(-1706.000000, -620.000000)" fill="#000000" fill-rule="nonzero">
            <g id="Symbols" transform="translate(498.895300, 618.802700)">
                <g id="Medium-S" transform="translate(1207.770640, 2.050800)">
                    <path d="M39.89256,79.78517 C61.71876,79.78517 79.78516,61.7188 79.78516,39.8926 C79.78516,18.0664 61.66996,0 39.84376,0 C18.01756,0 -8.8817842e-16,18.0664 -8.8817842e-16,39.8926 C-8.8817842e-16,61.7188 18.06636,79.78517 39.89256,79.78517 Z M39.84376,46.5332 C37.35356,46.5332 35.98636,45.166 35.88866,42.6758 L35.30276,23.584 C35.20506,20.9961 37.10936,19.1895 39.79496,19.1895 C42.48046,19.1895 44.43356,21.0449 44.33596,23.584 L43.70116,42.6758 C43.65236,45.2149 42.23636,46.5332 39.84376,46.5332 Z M39.84376,60.1074 C37.10936,60.1074 34.81446,58.1055 34.81446,55.4199 C34.81446,52.7344 37.06056,50.7324 39.84376,50.7324 C42.62696,50.7324 44.87306,52.7344 44.87306,55.4199 C44.87306,58.1543 42.57816,60.1074 39.84376,60.1074 Z" id="Shape"></path>
                </g>
            </g>
        </g>
    </g>
</svg>