<svg width="81" height="81" xmlns="http://www.w3.org/2000/svg"><path d="M40.559 80.639c21.826 0 39.892-18.067 39.892-39.893S62.336.853 40.51.853C18.684.853.666 18.92.666 40.746S18.732 80.64 40.559 80.64Zm-.05-33.252c-2.49 0-3.857-1.368-3.954-3.858l-.586-19.092c-.098-2.587 1.806-4.394 4.492-4.394 2.685 0 4.639 1.855 4.54 4.394l-.634 19.092c-.049 2.54-1.465 3.858-3.857 3.858Zm0 13.574c-2.734 0-5.029-2.002-5.029-4.688 0-2.685 2.247-4.687 5.03-4.687 2.783 0 5.029 2.002 5.029 4.687 0 2.735-2.295 4.688-5.03 4.688Z" fill="#000" fill-rule="nonzero"/></svg>