<svg width="89" height="73" xmlns="http://www.w3.org/2000/svg"><path d="M13.355 72.342H76.88c7.422 0 11.817-4.346 11.817-12.793V20.193c0-8.398-4.395-12.793-12.94-12.793H40.406c-2.588 0-4.248-.683-6.348-2.343l-2.246-1.758C29.127 1.15 27.027.369 23.023.369h-10.84C4.86.37.416 4.715.416 13.162V59.55c0 8.447 4.443 12.793 12.94 12.793ZM8.716 13.797c0-3.32 1.905-5.127 5.176-5.127h6.885c2.588 0 4.248.684 6.348 2.344l2.246 1.806c2.685 2.149 4.785 2.93 8.789 2.93h37.11c3.27 0 5.126 1.709 5.126 5.176v1.855H8.716v-8.984Zm5.127 50.244c-3.271 0-5.127-1.758-5.127-5.225v-28.71h71.68v28.76c0 3.417-1.855 5.175-5.127 5.175H13.843Z" fill="#000" fill-rule="nonzero"/></svg>