<svg width="112" height="91" xmlns="http://www.w3.org/2000/svg"><path d="M15.733 90.13h81.69c8.74 0 13.867-5.077 13.867-15.136V24.848c0-10.059-5.176-15.137-15.332-15.137H49.083c-3.32 0-5.323-.781-7.764-2.88l-2.978-2.442C35.118 1.654 32.628.775 27.794.775H13.878C5.333.775.4 5.658.4 15.473v59.521c0 10.108 5.127 15.137 15.332 15.137Zm-7.47-74.218c0-4.834 2.539-7.324 7.226-7.324h10.303c3.222 0 5.176.83 7.666 2.93l2.978 2.49c3.174 2.636 5.762 3.564 10.596 3.564h48.779c4.834 0 7.618 2.637 7.618 7.715v2.783H8.262V15.912ZM15.83 82.27c-4.883 0-7.569-2.588-7.569-7.666v-39.16h95.167v39.208c0 5.03-2.784 7.618-7.618 7.618h-79.98Z" fill="#000" fill-rule="nonzero"/></svg>