<svg width="106" height="105" xmlns="http://www.w3.org/2000/svg"><path d="M47.915 104.943h9.863c3.76 0 6.64-2.295 7.52-5.908l2.1-9.13 1.562-.538 7.959 4.883c3.173 2.002 6.836 1.514 9.521-1.172l6.836-6.787c2.686-2.686 3.174-6.396 1.172-9.521l-4.98-7.91.585-1.465 9.131-2.149c3.565-.879 5.908-3.808 5.908-7.52V48.06c0-3.711-2.294-6.641-5.908-7.52l-9.033-2.197-.635-1.563 4.981-7.91c2.002-3.125 1.513-6.787-1.172-9.521l-6.836-6.836c-2.637-2.637-6.299-3.125-9.473-1.172l-7.959 4.883-1.66-.635-2.1-9.131C64.42 2.844 61.538.549 57.779.549h-9.863c-3.76 0-6.64 2.295-7.52 5.908l-2.148 9.13-1.66.636-7.91-4.883c-3.174-1.953-6.885-1.465-9.522 1.172l-6.787 6.836c-2.686 2.734-3.223 6.396-1.172 9.521l4.932 7.91-.586 1.563-9.034 2.197C2.895 41.418.6 44.348.6 48.06v9.668c0 3.71 2.344 6.64 5.908 7.52l9.131 2.148.537 1.464-4.931 7.91c-2.051 3.126-1.514 6.836 1.172 9.522l6.787 6.787c2.685 2.686 6.396 3.174 9.57 1.172l7.91-4.883 1.563.537 2.148 9.131c.88 3.613 3.76 5.908 7.52 5.908Zm.78-7.617c-.83 0-1.269-.342-1.415-1.123l-2.93-12.11c-2.978-.732-5.761-1.904-7.861-3.222l-10.645 6.543c-.586.44-1.22.342-1.806-.244l-5.762-5.762c-.537-.537-.586-1.123-.195-1.806l6.543-10.547c-1.123-2.051-2.393-4.834-3.174-7.813l-12.11-2.88c-.78-.147-1.123-.587-1.123-1.417v-8.154c0-.879.293-1.27 1.124-1.416l12.06-2.93c.781-3.173 2.246-6.054 3.125-7.861l-6.494-10.547c-.44-.732-.39-1.318.146-1.904l5.81-5.664c.587-.586 1.124-.684 1.856-.244l10.547 6.396c2.1-1.172 5.078-2.392 8.008-3.223L47.28 9.29c.147-.781.587-1.123 1.417-1.123h8.3c.83 0 1.27.342 1.368 1.123l2.978 12.207c3.028.781 5.665 2.002 7.862 3.174L79.8 18.225c.78-.44 1.269-.342 1.904.244l5.762 5.664c.585.586.585 1.172.146 1.904l-6.494 10.547c.928 1.807 2.344 4.688 3.125 7.861l12.109 2.93c.781.147 1.123.537 1.123 1.416v8.154c0 .83-.39 1.27-1.123 1.416l-12.158 2.881c-.781 2.979-2.002 5.762-3.174 7.813l6.543 10.547c.39.683.39 1.27-.195 1.806l-5.713 5.762c-.635.586-1.22.684-1.855.244l-10.645-6.543c-2.1 1.318-4.834 2.49-7.813 3.223l-2.978 12.11c-.098.78-.537 1.122-1.367 1.122h-8.301Zm4.151-25.928c10.205 0 18.604-8.398 18.604-18.652 0-10.156-8.399-18.555-18.604-18.555S34.194 42.59 34.194 52.746c0 10.205 8.398 18.652 18.652 18.652Zm0-7.568c-6.054 0-11.035-4.98-11.035-11.084 0-6.006 4.98-10.986 11.035-10.986 5.957 0 10.938 4.98 10.938 10.986 0 6.055-4.98 11.084-10.938 11.084Z" fill="#000" fill-rule="nonzero"/></svg>