<svg width="84" height="84" xmlns="http://www.w3.org/2000/svg"><path d="M37.967 83.006h7.715c3.125 0 5.566-1.904 6.299-4.834l1.611-7.031.879-.293 6.055 3.76c2.636 1.61 5.713 1.22 7.91-1.026l5.371-5.322c2.197-2.198 2.637-5.323.976-7.862l-3.808-6.103.293-.733 7.031-1.61c2.93-.733 4.883-3.224 4.883-6.3v-7.52c0-3.075-1.904-5.566-4.883-6.298l-6.934-1.709-.341-.781 3.808-6.104c1.66-2.588 1.221-5.615-.976-7.91l-5.371-5.322C66.336 7.81 63.26 7.42 60.623 8.982l-6.103 3.711-.928-.341-1.611-7.032C51.248 2.39 48.807.486 45.682.486h-7.715c-3.125 0-5.518 1.905-6.25 4.834l-1.611 7.032-.977.341-6.103-3.71c-2.588-1.563-5.664-1.173-7.862 1.025L9.842 15.33c-2.197 2.295-2.637 5.322-.977 7.91l3.76 6.104-.342.781-6.933 1.709c-2.93.732-4.834 3.223-4.834 6.299v7.52c0 3.075 1.953 5.566 4.834 6.298l7.031 1.611.293.733-3.76 6.103c-1.66 2.54-1.22 5.664.977 7.862l5.322 5.322c2.197 2.246 5.322 2.637 7.91 1.025l6.104-3.76.879.294 1.611 7.03c.732 2.93 3.125 4.835 6.25 4.835zm.684-6.787c-.489 0-.733-.196-.782-.635l-2.392-9.57c-2.49-.635-4.737-1.563-6.445-2.735l-8.448 5.225c-.342.195-.683.146-1.025-.147l-4.395-4.443c-.341-.293-.341-.635-.097-1.025l5.127-8.399c-.928-1.66-2.002-3.906-2.637-6.396l-9.62-2.344c-.439-.049-.634-.293-.634-.781v-6.25c0-.537.146-.684.635-.83l9.57-2.295c.635-2.686 1.904-5.03 2.588-6.494l-5.078-8.35c-.293-.44-.293-.781.049-1.123l4.443-4.346c.342-.293.586-.39 1.074-.146l8.35 5.078c1.709-1.026 4.15-2.05 6.592-2.735l2.343-9.57c.05-.44.293-.635.782-.635h6.396c.488 0 .733.196.781.635l2.344 9.668c2.54.635 4.736 1.66 6.494 2.686l8.448-5.127c.439-.244.683-.147 1.074.146l4.443 4.346c.293.342.342.684.049 1.123l-5.127 8.35c.732 1.464 1.953 3.808 2.588 6.494l9.62 2.295c.487.146.585.293.585.83v6.25c0 .488-.147.732-.586.781l-9.668 2.344c-.586 2.49-1.66 4.736-2.637 6.396l5.176 8.399c.244.39.244.732-.098 1.025l-4.394 4.443c-.39.293-.732.342-1.025.147l-8.497-5.225c-1.66 1.172-3.955 2.1-6.445 2.735l-2.344 9.57c-.048.44-.293.635-.78.635H38.65zm3.173-19.873c8.008 0 14.6-6.543 14.6-14.6 0-7.959-6.592-14.502-14.6-14.502-8.007 0-14.6 6.543-14.6 14.502 0 8.008 6.593 14.6 14.6 14.6zm0-6.739c-4.296 0-7.763-3.515-7.763-7.86 0-4.249 3.467-7.765 7.763-7.765 4.2 0 7.715 3.516 7.715 7.764 0 4.297-3.515 7.861-7.715 7.861z" fill="#000" fill-rule="nonzero"/></svg>