<svg width="73" height="73" xmlns="http://www.w3.org/2000/svg"><path d="M30.495 59.424c6.3 0 12.11-2.002 16.944-5.322l17.334 17.334c.927.927 2.148 1.367 3.418 1.367 2.734 0 4.736-2.1 4.736-4.785 0-1.27-.44-2.54-1.367-3.418L54.372 47.363c3.662-4.98 5.81-11.084 5.81-17.675C60.183 13.33 46.853 0 30.496 0 14.187 0 .808 13.281.808 29.688c0 16.357 13.33 29.736 29.687 29.736Zm0-7.276c-12.256 0-22.412-10.156-22.412-22.46 0-12.256 10.156-22.413 22.412-22.413 12.305 0 22.412 10.157 22.412 22.413 0 12.304-10.107 22.46-22.412 22.46Z" fill="#000" fill-rule="nonzero"/></svg>