<svg width="118" height="99" xmlns="http://www.w3.org/2000/svg"><path d="M63.214 98.184c20.556 0 34.277-7.276 34.277-18.018 0-9.62-8.203-11.768-8.203-17.432 0-7.812 28.369-9.375 28.369-29.443 0-19.824-20.459-32.91-50.83-32.91C26.934.38.03 20.303.03 50.137c0 28.71 25.537 48.047 63.184 48.047zm0-8.35c-33.057 0-54.834-15.918-54.834-39.697C8.38 25.234 31.524 8.73 66.827 8.73c25.635 0 42.481 9.961 42.481 24.561 0 17.041-28.565 14.746-28.565 29.492 0 8.35 8.399 10.986 8.399 16.748 0 6.201-10.206 10.303-25.928 10.303zm4.053-56.543c4.59 0 8.203-3.662 8.203-8.252a8.159 8.159 0 00-8.203-8.203c-4.493 0-8.252 3.662-8.252 8.203 0 4.59 3.76 8.252 8.252 8.252zm-24.708 7.91c5.616 0 10.206-4.54 10.206-10.303 0-5.615-4.64-10.107-10.206-10.107-5.761 0-10.351 4.492-10.351 10.107 0 5.762 4.59 10.303 10.351 10.303zm47.022-4.785c3.662 0 6.592-2.978 6.592-6.69 0-3.662-2.93-6.64-6.592-6.64-3.71 0-6.738 2.979-6.738 6.64 0 3.712 3.027 6.69 6.738 6.69zm-64.893 20.41c4.493 0 8.106-3.71 8.106-8.203 0-4.492-3.565-8.105-8.106-8.105-4.443 0-8.105 3.613-8.105 8.105 0 4.492 3.662 8.203 8.105 8.203zM59.21 78.311c7.422 0 13.525-6.104 13.525-13.575 0-7.373-6.103-13.476-13.525-13.476-7.422 0-13.526 6.103-13.526 13.476 0 7.471 6.104 13.575 13.526 13.575zm0-5.665c-4.346 0-7.861-3.515-7.861-7.91 0-4.834 3.71-7.715 7.763-7.763 4.15-.05 7.96 2.783 7.96 7.763 0 4.395-3.468 7.91-7.862 7.91z" fill="#000" fill-rule="nonzero"/></svg>