<svg width="92" height="72" xmlns="http://www.w3.org/2000/svg"><path d="M13.007 71.39H78.68c8.35 0 12.451-4.1 12.451-12.304V12.504C91.132 4.3 87.03.199 78.681.199H13.007C4.706.2.556 4.301.556 12.504v46.582c0 8.203 4.15 12.305 12.45 12.305zm51.172-36.23c-1.66-1.513-3.711-2.295-5.664-2.295-2.051 0-3.956.684-5.713 2.246L35.614 50.492l-7.031-6.299c-1.611-1.416-3.37-2.148-5.176-2.148-1.611 0-3.32.683-4.883 2.1L7.587 53.959V12.846c0-3.662 2.002-5.567 5.517-5.567h65.479c3.516 0 5.517 1.905 5.517 5.567v41.162L64.18 35.16zm-34.912.88c4.931 0 8.984-4.054 8.984-9.034 0-4.932-4.053-9.033-8.984-9.033-4.98 0-9.034 4.101-9.034 9.033 0 4.98 4.053 9.033 9.034 9.033z" fill="#000" fill-rule="nonzero"/></svg>