<svg width="91" height="73" xmlns="http://www.w3.org/2000/svg"><path d="M12.94 72.07h65.038c8.594 0 12.988-4.345 12.988-12.793V12.793C90.966 4.346 86.572 0 77.978 0H12.94C4.443 0 0 4.346 0 12.793v46.484C0 67.725 4.443 72.07 12.94 72.07ZM8.3 13.525c0-3.466 1.856-5.224 5.128-5.224h64.111c3.272 0 5.078 1.758 5.078 5.224v39.356L64.062 35.4c-1.66-1.514-3.662-2.296-5.664-2.296-2.05 0-3.955.684-5.664 2.247l-17.236 15.38-6.982-6.298c-1.612-1.416-3.418-2.149-5.176-2.149-1.71 0-3.32.684-4.883 2.1L8.301 53.369V13.525ZM29.933 36.67c5.029 0 9.13-4.15 9.13-9.229 0-5.029-4.101-9.18-9.13-9.18-5.079 0-9.229 4.151-9.229 9.18 0 5.079 4.15 9.229 9.229 9.229Z" fill="#000" fill-rule="nonzero"/></svg>