<svg width="92" height="73" xmlns="http://www.w3.org/2000/svg"><path d="M13.015 72.83h65.04c8.593 0 12.987-4.346 12.987-12.793V13.553C91.042 5.106 86.648.76 78.054.76H13.015C4.52.76.075 5.106.075 13.553v46.484c0 8.447 4.444 12.793 12.94 12.793ZM8.376 14.285c0-3.467 1.856-5.224 5.127-5.224h64.112c3.271 0 5.078 1.757 5.078 5.224v39.356L64.138 36.16c-1.66-1.514-3.662-2.296-5.664-2.296-2.05 0-3.955.684-5.664 2.246L35.574 51.492l-6.983-6.299c-1.611-1.416-3.418-2.148-5.175-2.148-1.71 0-3.32.684-4.883 2.1L8.376 54.129V14.285ZM30.007 37.43c5.03 0 9.131-4.15 9.131-9.229 0-5.03-4.101-9.18-9.13-9.18-5.079 0-9.23 4.15-9.23 9.18 0 5.078 4.151 9.229 9.23 9.229Z" fill="#000" fill-rule="nonzero"/></svg>