<svg width="116" height="91" xmlns="http://www.w3.org/2000/svg"><path d="M15.603 90.766h84.473c10.254 0 15.332-5.078 15.332-15.137v-59.62c0-10.058-5.078-15.136-15.332-15.136H15.603C5.398.873.271 5.903.271 16.01v59.619c0 10.107 5.127 15.137 15.332 15.137Zm.098-7.862c-4.883 0-7.568-2.588-7.568-7.666V16.4c0-5.078 2.685-7.666 7.568-7.666h84.277c4.834 0 7.569 2.588 7.569 7.666v58.838c0 5.078-2.735 7.666-7.569 7.666H15.701ZM76.59 48.383c2.05-1.172 2.002-4.004 0-5.225L48.758 26.703c-2.051-1.22-4.883-.293-4.883 2.1v33.935c0 2.344 2.636 3.467 4.883 2.1L76.59 48.383Z" fill="#000" fill-rule="nonzero"/></svg>