<svg width="87" height="82" xmlns="http://www.w3.org/2000/svg"><path d="M25.807 81.91c2.392 0 4.15-1.172 7.08-3.76l12.988-11.572h21.729c12.011 0 18.652-6.787 18.652-18.603V18.97c0-11.865-6.64-18.653-18.652-18.653H19.508C7.496.318.856 7.106.856 18.971v29.004c0 11.816 6.787 18.603 18.359 18.603h1.22v9.229c0 3.76 2.003 6.103 5.372 6.103Zm2.1-9.375v-10.79c0-2.54-1.026-3.468-3.467-3.468h-4.737c-7.275 0-10.547-3.515-10.547-10.546V19.215c0-7.031 3.272-10.547 10.547-10.547h47.705c7.276 0 10.498 3.516 10.498 10.547V47.73c0 7.03-3.222 10.546-10.498 10.546h-22.07c-2.539 0-3.76.391-5.469 2.198l-11.963 12.06ZM25.024 29.42c0 4.443 2.784 7.861 7.08 7.861 1.66 0 3.272-.293 4.249-1.513h.44c-1.27 2.88-3.907 4.882-6.837 5.615-1.367.342-1.855 1.025-1.855 1.953 0 1.074.879 1.855 2.05 1.855 4.2 0 11.622-4.931 11.622-14.209 0-5.273-3.32-9.472-8.545-9.472-4.688 0-8.204 3.271-8.204 7.91Zm20.508 0c0 4.443 2.784 7.861 7.08 7.861 1.66 0 3.272-.293 4.248-1.513h.44c-1.27 2.88-3.906 4.882-6.836 5.615-1.367.342-1.856 1.025-1.856 1.953 0 1.074.88 1.855 2.051 1.855 4.2 0 11.621-4.931 11.621-14.209 0-5.273-3.32-9.472-8.545-9.472-4.687 0-8.203 3.271-8.203 7.91Z" fill="#000" fill-rule="nonzero"/></svg>