<svg width="87" height="83" xmlns="http://www.w3.org/2000/svg"><path d="M24.44 82.203c1.709 0 3.027-.83 5.127-2.783l14.11-12.89 23.927.048c12.011.049 18.652-6.787 18.652-18.603V18.97c0-11.865-6.64-18.653-18.652-18.653H19.508C7.496.318.856 7.106.856 18.971v29.004c0 11.816 6.787 18.554 18.359 18.554h1.22v11.133c0 2.734 1.465 4.541 4.005 4.541Zm-.245-52.88c0-4.932 3.663-8.35 8.594-8.35 5.469 0 8.936 4.443 8.936 9.96 0 9.669-7.813 14.844-12.207 14.844-1.221 0-2.1-.83-2.1-1.904 0-1.025.44-1.709 1.953-2.05 3.028-.782 5.81-2.93 7.13-5.86h-.44c-1.075 1.22-2.735 1.562-4.444 1.562-4.54 0-7.422-3.613-7.422-8.203Zm21.436 0c0-4.932 3.662-8.35 8.594-8.35 5.468 0 8.935 4.443 8.935 9.96 0 9.669-7.763 14.844-12.158 14.844-1.22 0-2.148-.83-2.148-1.904 0-1.025.488-1.709 1.904-2.05 3.125-.782 5.908-2.93 7.178-5.86h-.44c-1.074 1.22-2.685 1.562-4.443 1.562-4.541 0-7.422-3.613-7.422-8.203Z" fill="#000" fill-rule="nonzero"/></svg>