<svg width="108" height="102" xmlns="http://www.w3.org/2000/svg"><path d="M30.06 101.408c2.393 0 4.053-1.27 7.032-3.906l16.845-14.99h31.348c14.551 0 22.363-8.057 22.363-22.364V22.746C107.648 8.44 99.836.383 85.285.383h-62.89C7.844.383.03 8.39.03 22.746v37.402c0 14.356 7.813 22.364 22.364 22.364h2.343v12.695c0 3.76 1.905 6.201 5.323 6.201zm2.002-8.935v-14.16c0-2.637-1.025-3.663-3.662-3.663h-6.005c-9.864 0-14.502-5.029-14.502-14.55V22.746c0-9.521 4.638-14.502 14.502-14.502h62.89c9.815 0 14.502 4.98 14.502 14.502V60.1c0 9.521-4.687 14.55-14.502 14.55h-31.64c-2.735 0-4.102.391-5.958 2.295L32.062 92.473zm-.976-56.055c0 5.322 3.369 9.522 8.691 9.522 1.953 0 3.907-.342 5.127-1.856h.39c-1.708 3.857-5.321 6.348-8.398 7.129-1.757.44-2.246 1.27-2.246 2.392 0 1.172.977 2.149 2.295 2.149 4.785 0 14.356-5.664 14.356-17.627 0-6.397-4.15-11.28-10.254-11.28-5.664 0-9.961 3.956-9.961 9.571zm25.39 0c0 5.322 3.37 9.522 8.692 9.522 1.953 0 3.906-.342 5.127-1.856h.39c-1.708 3.857-5.322 6.348-8.398 7.129-1.758.44-2.246 1.27-2.246 2.392 0 1.172.977 2.149 2.295 2.149 4.785 0 14.355-5.664 14.355-17.627 0-6.397-4.15-11.28-10.254-11.28-5.664 0-9.96 3.956-9.96 9.571z"/></svg>