<svg width="87" height="72" xmlns="http://www.w3.org/2000/svg"><path d="M8.758 32.719h24.17c5.225 0 7.812-2.637 7.812-8.008V8.207c0-5.371-2.587-8.008-7.812-8.008H8.758C3.533.2.946 2.836.946 8.207v16.504c0 5.371 2.587 8.008 7.812 8.008zm45.996 0h24.17c5.225 0 7.813-2.637 7.813-8.008V8.207c0-5.371-2.588-8.008-7.813-8.008h-24.17c-5.224 0-7.812 2.637-7.812 8.008v16.504c0 5.371 2.588 8.008 7.812 8.008zM8.807 26.566c-1.123 0-1.758-.634-1.758-1.855V8.158c0-1.172.635-1.806 1.758-1.806H32.83c1.172 0 1.807.634 1.807 1.806v16.553c0 1.22-.635 1.855-1.807 1.855H8.807zm46.045 0c-1.172 0-1.807-.634-1.807-1.855V8.158c0-1.172.635-1.806 1.807-1.806h24.023c1.172 0 1.758.634 1.758 1.806v16.553c0 1.22-.586 1.855-1.758 1.855H54.852zM8.758 71.391h24.17c5.225 0 7.812-2.637 7.812-8.008V46.879c0-5.371-2.587-7.96-7.812-7.96H8.758c-5.225 0-7.812 2.589-7.812 7.96v16.504c0 5.37 2.587 8.008 7.812 8.008zm45.996 0h24.17c5.225 0 7.813-2.637 7.813-8.008V46.879c0-5.371-2.588-7.96-7.813-7.96h-24.17c-5.224 0-7.812 2.589-7.812 7.96v16.504c0 5.37 2.588 8.008 7.812 8.008zM8.807 65.238c-1.123 0-1.758-.634-1.758-1.806V46.879c0-1.22.635-1.856 1.758-1.856H32.83c1.172 0 1.807.635 1.807 1.856v16.553c0 1.172-.635 1.806-1.807 1.806H8.807zm46.045 0c-1.172 0-1.807-.634-1.807-1.806V46.879c0-1.22.635-1.856 1.807-1.856h24.023c1.172 0 1.758.635 1.758 1.856v16.553c0 1.172-.586 1.806-1.758 1.806H54.852z" fill="#000" fill-rule="nonzero"/></svg>