<svg width="116" height="91" xmlns="http://www.w3.org/2000/svg"><path d="M15.603 90.766h84.473c10.254 0 15.332-5.078 15.332-15.137v-59.62c0-10.058-5.078-15.136-15.332-15.136H15.603C5.398.873.271 5.903.271 16.01v59.619c0 10.107 5.127 15.137 15.332 15.137Zm.098-7.862c-4.883 0-7.568-2.588-7.568-7.666V16.4c0-5.078 2.685-7.666 7.568-7.666h21.777v74.17H15.701Zm84.277-74.17c4.834 0 7.569 2.588 7.569 7.666v58.838c0 5.078-2.735 7.666-7.569 7.666H45.144V8.734h54.834ZM28.054 26.85c1.514 0 2.784-1.319 2.784-2.735 0-1.465-1.27-2.734-2.784-2.734H17.605c-1.465 0-2.783 1.27-2.783 2.734 0 1.416 1.318 2.735 2.783 2.735h10.45Zm0 12.646c1.514 0 2.784-1.318 2.784-2.783 0-1.465-1.27-2.686-2.784-2.686H17.605c-1.465 0-2.783 1.221-2.783 2.686 0 1.465 1.318 2.783 2.783 2.783h10.45Zm0 12.598c1.514 0 2.784-1.221 2.784-2.686 0-1.465-1.27-2.734-2.784-2.734H17.605c-1.465 0-2.783 1.27-2.783 2.734 0 1.465 1.318 2.686 2.783 2.686h10.45Z" fill="#000" fill-rule="nonzero"/></svg>