<svg width="88" height="88" xmlns="http://www.w3.org/2000/svg"><path d="M46.875 83.252 84.23 45.85c3.125-3.125 3.418-5.03 3.418-9.375V21.973c0-4.395-1.123-5.957-4.248-9.034l-8.692-8.691C71.631 1.172 70.117 0 65.723 0H51.172c-4.297 0-6.201.342-9.326 3.467L4.443 40.869c-5.859 5.86-6.005 12.06.05 18.066l24.316 24.268c6.006 6.006 12.158 5.957 18.066.049Zm-5.42-6.397c-2.344 2.344-4.834 2.393-7.275 0l-23.34-23.34c-2.441-2.44-2.344-4.931 0-7.275L47.754 9.326c.684-.684 1.318-1.123 2.49-1.123h15.381c1.074 0 1.807.39 2.442 1.074L78.369 19.58c.684.684 1.074 1.367 1.074 2.441v15.381c0 1.221-.39 1.856-1.025 2.54L41.455 76.854ZM60.89 32.568c3.271 0 5.762-2.539 5.762-5.761 0-3.272-2.49-5.81-5.762-5.81-3.32 0-5.81 2.538-5.81 5.81 0 3.222 2.49 5.761 5.81 5.761Z" fill="#000" fill-rule="nonzero"/></svg>