<svg width="89" height="88" xmlns="http://www.w3.org/2000/svg"><path d="M47.375 83.252 84.73 45.85c3.125-3.125 3.418-5.03 3.418-9.375V21.973c0-4.395-1.123-5.957-4.248-9.034l-8.692-8.691C72.131 1.172 70.617 0 66.223 0H51.672c-4.297 0-6.201.342-9.326 3.467L4.943 40.869c-5.859 5.86-6.005 12.06.05 18.066l24.316 24.268c6.006 6.006 12.158 5.957 18.066.049Zm12.012-50.684c-3.272 0-5.762-2.539-5.762-5.761 0-3.272 2.49-5.81 5.762-5.81 3.32 0 5.81 2.538 5.81 5.81 0 3.222-2.49 5.761-5.81 5.761Z" fill="#000" fill-rule="nonzero"/></svg>