<svg width="87" height="87" xmlns="http://www.w3.org/2000/svg"><path d="M46.531 82.322l37.158-37.207c3.028-3.027 3.223-4.834 3.223-8.838v-14.55c0-4.297-1.123-5.616-4.053-8.497l-8.691-8.74C71.287 1.61 69.92.486 65.672.486H51.12c-4.004 0-5.81.147-8.838 3.174L5.076 40.867c-5.664 5.664-5.81 11.524.049 17.285l24.12 24.121c5.86 5.811 11.622 5.762 17.286.05zm12.598-50.44c-3.174 0-5.567-2.49-5.567-5.614 0-3.077 2.393-5.567 5.567-5.567 3.222 0 5.615 2.49 5.615 5.567 0 3.125-2.393 5.615-5.615 5.615z" fill="#000" fill-rule="nonzero"/></svg>