<?xml version="1.0" encoding="UTF-8"?>
<svg width="80px" height="80px" viewBox="0 0 80 80" version="1.1" xmlns="http://www.w3.org/2000/svg" xmlns:xlink="http://www.w3.org/1999/xlink">
    <title>Shape</title>
    <g id="Page-1" stroke="none" stroke-width="1" fill="none" fill-rule="evenodd">
        <g id="clock.fill" transform="translate(-1410.000000, -621.000000)" fill="#000000" fill-rule="nonzero">
            <g id="Symbols" transform="translate(498.895300, 618.802700)">
                <g id="Regular-S" transform="translate(911.520640, 2.539100)">
                    <path d="M39.40426,78.80859 C60.93746,78.80859 78.85746,60.9375 78.85746,39.4043 C78.85746,17.8711 60.88866,0 39.35546,0 C17.87106,0 0,17.8711 0,39.4043 C0,60.9375 17.91996,78.80859 39.40426,78.80859 Z M19.87306,43.75 C18.16406,43.75 16.89456,42.4316 16.89456,40.7715 C16.89456,39.0625 18.16406,37.7441 19.87306,37.7441 L36.37696,37.7441 L36.37696,15.625 C36.37696,13.916 37.69526,12.5977 39.35546,12.5977 C41.06446,12.5977 42.38286,13.916 42.38286,15.625 L42.38286,40.7715 C42.38286,42.4316 41.06446,43.75 39.35546,43.75 L19.87306,43.75 Z" id="Shape"></path>
                </g>
            </g>
        </g>
    </g>
</svg>