<?xml version="1.0" encoding="UTF-8"?>
<svg width="89px" height="73px" viewBox="0 0 89 73" version="1.1" xmlns="http://www.w3.org/2000/svg" xmlns:xlink="http://www.w3.org/1999/xlink">
    <title>Shape</title>
    <g id="Page-1" stroke="none" stroke-width="1" fill="none" fill-rule="evenodd">
        <g id="folder" transform="translate(-1702.000000, -624.000000)" fill="#000000" fill-rule="nonzero">
            <g id="Symbols" transform="translate(491.229500, 621.000000)">
                <g id="Medium-S" transform="translate(1211.186120, 3.369100)">
                    <path d="M12.93948,71.972697 L76.46488,71.972697 C83.88668,71.972697 88.28128,67.62699 88.28128,59.1797 L88.28128,19.8243 C88.28128,11.4258 83.88668,7.0313 75.34178,7.0313 L39.99028,7.0313 C37.40238,7.0313 35.74218,6.3477 33.64258,4.6875 L31.39648,2.9297 C28.71098,0.7813 26.61138,0 22.60738,0 L11.76758,0 C4.44338,0 1.77635684e-15,4.3457 1.77635684e-15,12.793 L1.77635684e-15,59.1797 C1.77635684e-15,67.62699 4.44338,71.972697 12.93948,71.972697 Z M8.30078,13.4278 C8.30078,10.1075 10.20508,8.3008 13.47658,8.3008 L20.36138,8.3008 C22.94918,8.3008 24.60938,8.9844 26.70898,10.6446 L28.95508,12.4512 C31.64058,14.5997 33.74028,15.3809 37.74418,15.3809 L74.85348,15.3809 C78.12498,15.3809 79.98048,17.0899 79.98048,20.5567 L79.98048,22.4121 L8.30078,22.4121 L8.30078,13.4278 Z M13.42778,63.67192 C10.15628,63.67192 8.30078,61.9141 8.30078,58.4473 L8.30078,29.7364 L79.98048,29.7364 L79.98048,58.4961 C79.98048,61.9141 78.12498,63.67192 74.85348,63.67192 L13.42778,63.67192 Z" id="Shape"></path>
                </g>
            </g>
        </g>
    </g>
</svg>