<?xml version="1.0" encoding="UTF-8"?>
<svg width="92px" height="73px" viewBox="0 0 92 73" version="1.1" xmlns="http://www.w3.org/2000/svg" xmlns:xlink="http://www.w3.org/1999/xlink">
    <title>Shape</title>
    <g id="Page-1" stroke="none" stroke-width="1" fill="none" fill-rule="evenodd">
        <g id="photo" transform="translate(-1701.000000, -624.000000)" fill="#000000" fill-rule="nonzero">
            <g id="Symbols" transform="translate(487.079500, 622.660200)">
                <g id="Medium-S" transform="translate(1213.996120, 2.099600)">
                    <path d="M12.93948,72.070278 L77.97848,72.070278 C86.57228,72.070278 90.96638,67.72458 90.96638,59.2773 L90.96638,12.7929 C90.96638,4.3457 86.57228,0 77.97848,0 L12.93948,0 C4.44338,0 1.77635684e-15,4.3457 1.77635684e-15,12.7929 L1.77635684e-15,59.2773 C1.77635684e-15,67.72458 4.44338,72.070278 12.93948,72.070278 Z M8.30078,13.5254 C8.30078,10.0586 10.15628,8.3007 13.42778,8.3007 L77.53908,8.3007 C80.81058,8.3007 82.61718,10.0586 82.61718,13.5254 L82.61718,52.8808 L64.06248,35.4004 C62.40238,33.8867 60.40038,33.1054 58.39848,33.1054 C56.34768,33.1054 54.44338,33.789 52.73438,35.3515 L35.49808,50.7324 L28.51558,44.4336 C26.90428,43.0175 25.09768,42.2851 23.33988,42.2851 C21.63088,42.2851 20.01958,42.9687 18.45708,44.3847 L8.30078,53.3691 L8.30078,13.5254 Z M29.93168,36.6699 C34.96098,36.6699 39.06248,32.5195 39.06248,27.4414 C39.06248,22.4121 34.96098,18.2617 29.93168,18.2617 C24.85348,18.2617 20.70318,22.4121 20.70318,27.4414 C20.70318,32.5195 24.85348,36.6699 29.93168,36.6699 Z" id="Shape"></path>
                </g>
            </g>
        </g>
    </g>
</svg>