<?xml version="1.0" encoding="UTF-8"?>
<svg width="116px" height="91px" viewBox="0 0 116 91" version="1.1" xmlns="http://www.w3.org/2000/svg" xmlns:xlink="http://www.w3.org/1999/xlink">
    <title>Shape</title>
    <g id="Page-1" stroke="none" stroke-width="1" fill="none" fill-rule="evenodd">
        <g id="play.rectangle" transform="translate(-1392.000000, -1045.000000)" fill="#000000" fill-rule="nonzero">
            <g id="Symbols" transform="translate(487.079500, 622.660200)">
                <g id="Regular-M" transform="translate(905.191700, 423.212800)">
                    <path d="M15.332,89.89262 L99.8048,89.89262 C110.0588,89.89262 115.1368,84.8145 115.1368,74.75591 L115.1368,15.1368 C115.1368,5.0782 110.0588,0 99.8048,0 L15.332,0 C5.1269,0 0,5.0293 0,15.1368 L0,74.75591 C0,84.86333 5.1269,89.89262 15.332,89.89262 Z M15.4297,82.0313 C10.5468,82.0313 7.8613,79.443406 7.8613,74.36528 L7.8613,15.5274 C7.8613,10.4493 10.5468,7.8614 15.4297,7.8614 L99.7068,7.8614 C104.5408,7.8614 107.2758,10.4493 107.2758,15.5274 L107.2758,74.36528 C107.2758,79.443406 104.5408,82.0313 99.7068,82.0313 L15.4297,82.0313 Z M76.3183,47.5098 C78.3691,46.3379 78.3203,43.5059 76.3183,42.2852 L48.4863,25.8301 C46.4355,24.6094 43.6035,25.5372 43.6035,27.9297 L43.6035,61.8653 C43.6035,64.209 46.2402,65.3321 48.4863,63.9649 L76.3183,47.5098 Z" id="Shape"></path>
                </g>
            </g>
        </g>
    </g>
</svg>