<?xml version="1.0" encoding="UTF-8"?>
<svg width="87px" height="82px" viewBox="0 0 87 82" version="1.1" xmlns="http://www.w3.org/2000/svg" xmlns:xlink="http://www.w3.org/1999/xlink">
    <title>Shape</title>
    <g id="Page-1" stroke="none" stroke-width="1" fill="none" fill-rule="evenodd">
        <g id="quote.bubble" transform="translate(-1703.000000, -622.000000)" fill="#000000" fill-rule="nonzero">
            <g id="Symbols" transform="translate(493.671500, 618.753900)">
                <g id="Medium-S" transform="translate(1210.184120, 3.564500)">
                    <path d="M24.95118,81.59176 C27.34378,81.59176 29.10158,80.41988 32.03128,77.83199 L45.01958,66.25972 L66.74808,66.25972 C78.75978,66.25972 85.40038,59.4726 85.40038,47.6562 L85.40038,18.6523 C85.40038,6.7871 78.75978,0 66.74808,0 L18.65238,0 C6.64058,0 1.77635684e-15,6.7871 1.77635684e-15,18.6523 L1.77635684e-15,47.6562 C1.77635684e-15,59.4726 6.78708,66.25972 18.35938,66.25972 L19.58008,66.25972 L19.58008,75.48824 C19.58008,79.24801 21.58208,81.59176 24.95118,81.59176 Z M27.05078,72.21676 L27.05078,61.4257 C27.05078,58.8867 26.02538,57.9589 23.58398,57.9589 L18.84768,57.9589 C11.57228,57.9589 8.30078,54.4433 8.30078,47.4121 L8.30078,18.8964 C8.30078,11.8652 11.57228,8.3496 18.84768,8.3496 L66.55278,8.3496 C73.82818,8.3496 77.05078,11.8652 77.05078,18.8964 L77.05078,47.4121 C77.05078,54.4433 73.82818,57.9589 66.55278,57.9589 L44.48238,57.9589 C41.94338,57.9589 40.72268,58.3496 39.01368,60.1562 L27.05078,72.21676 Z M24.16988,29.1015 C24.16988,33.5449 26.95318,36.9628 31.24998,36.9628 C32.91018,36.9628 34.52148,36.6699 35.49808,35.4492 L35.93748,35.4492 C34.66798,38.33 32.03128,40.332 29.10158,41.0644 C27.73438,41.4062 27.24608,42.0898 27.24608,43.0175 C27.24608,44.0918 28.12498,44.873 29.29688,44.873 C33.49608,44.873 40.91798,39.9414 40.91798,30.664 C40.91798,25.3906 37.59768,21.1914 32.37308,21.1914 C27.68558,21.1914 24.16988,24.4628 24.16988,29.1015 Z M44.67778,29.1015 C44.67778,33.5449 47.46098,36.9628 51.75778,36.9628 C53.41798,36.9628 55.02928,36.6699 56.00588,35.4492 L56.44528,35.4492 C55.17578,38.33 52.53908,40.332 49.60938,41.0644 C48.24218,41.4062 47.75388,42.0898 47.75388,43.0175 C47.75388,44.0918 48.63278,44.873 49.80468,44.873 C54.00388,44.873 61.42578,39.9414 61.42578,30.664 C61.42578,25.3906 58.10548,21.1914 52.88088,21.1914 C48.19338,21.1914 44.67778,24.4628 44.67778,29.1015 Z" id="Shape"></path>
                </g>
            </g>
        </g>
    </g>
</svg>