<?xml version="1.0" encoding="UTF-8"?>
<svg width="87px" height="83px" viewBox="0 0 87 83" version="1.1" xmlns="http://www.w3.org/2000/svg" xmlns:xlink="http://www.w3.org/1999/xlink">
    <title>Shape</title>
    <g id="Page-1" stroke="none" stroke-width="1" fill="none" fill-rule="evenodd">
        <g id="quote.bubble.fill" transform="translate(-1703.000000, -622.000000)" fill="#000000" fill-rule="nonzero">
            <g id="Symbols" transform="translate(493.671500, 618.753900)">
                <g id="Medium-S" transform="translate(1210.184120, 3.564500)">
                    <path d="M23.58398,81.88472 C25.29298,81.88472 26.61138,81.05465 28.71098,79.10152 L42.82228,66.2109 L66.74808,66.25972 C78.75978,66.30855 85.40038,59.4726 85.40038,47.6562 L85.40038,18.6523 C85.40038,6.7871 78.75978,0 66.74808,0 L18.65238,0 C6.64058,0 0,6.7871 0,18.6523 L0,47.6562 C0,59.4726 6.78708,66.2109 18.35938,66.2109 L19.58008,66.2109 L19.58008,77.34371 C19.58008,80.07808 21.04488,81.88472 23.58398,81.88472 Z M23.33988,29.0039 C23.33988,24.0722 27.00198,20.6543 31.93358,20.6543 C37.40238,20.6543 40.86918,25.0976 40.86918,30.6152 C40.86918,40.2832 33.05668,45.4589 28.66208,45.4589 C27.44138,45.4589 26.56248,44.6289 26.56248,43.5546 C26.56248,42.5293 27.00198,41.8457 28.51558,41.5039 C31.54298,40.7226 34.32618,38.5742 35.64458,35.6445 L35.20508,35.6445 C34.13088,36.8652 32.47068,37.207 30.76168,37.207 C26.22068,37.207 23.33988,33.5937 23.33988,29.0039 Z M44.77538,29.0039 C44.77538,24.0722 48.43748,20.6543 53.36918,20.6543 C58.83788,20.6543 62.30468,25.0976 62.30468,30.6152 C62.30468,40.2832 54.54098,45.4589 50.14648,45.4589 C48.92578,45.4589 47.99808,44.6289 47.99808,43.5546 C47.99808,42.5293 48.48638,41.8457 49.90238,41.5039 C53.02738,40.7226 55.81058,38.5742 57.08008,35.6445 L56.64058,35.6445 C55.56638,36.8652 53.95508,37.207 52.19728,37.207 C47.65628,37.207 44.77538,33.5937 44.77538,29.0039 Z" id="Shape"></path>
                </g>
            </g>
        </g>
    </g>
</svg>