<svg width="116" height="91" xmlns="http://www.w3.org/2000/svg"><path d="M.271 26.606h7.862V16.4c0-5.078 2.685-7.666 7.568-7.666h10.107V.873H15.603C5.398.873.271 5.903.271 16.01v10.596zm115.137 0V16.01c0-10.108-5.127-15.137-15.332-15.137H89.871v7.861h10.107c4.883 0 7.569 2.588 7.569 7.666v10.206h7.861zM32.498 8.734h22.021V.873H32.498v7.861zm28.662 0H83.18V.873H61.16v7.861zM.27 58.344h7.862v-25.05H.27v25.05zm115.137 0v-25.05h-7.861v25.05h7.861zM15.603 90.766h10.205v-7.862H15.701c-4.883 0-7.568-2.588-7.568-7.666V65.033H.27V75.63c0 10.107 5.127 15.137 15.332 15.137zm84.473 0c10.205 0 15.332-5.03 15.332-15.137V65.033h-7.861v10.205c0 5.078-2.686 7.666-7.569 7.666H89.871v7.862h10.205zm-67.578 0h22.021v-7.862H32.498v7.862zm28.662 0H83.18v-7.862H61.16v7.862z" fill="#000" fill-rule="nonzero"/></svg>