<?xml version="1.0" encoding="UTF-8"?>
<svg width="116px" height="91px" viewBox="0 0 116 91" version="1.1" xmlns="http://www.w3.org/2000/svg" xmlns:xlink="http://www.w3.org/1999/xlink">
    <title>Shape</title>
    <g id="Page-1" stroke="none" stroke-width="1" fill="none" fill-rule="evenodd">
        <g id="sidebar.left" transform="translate(-1392.000000, -1045.000000)" fill="#000000" fill-rule="nonzero">
            <g id="Symbols" transform="translate(487.079500, 622.660200)">
                <g id="Regular-M" transform="translate(905.191700, 423.212800)">
                    <path d="M15.332,89.89262 L99.8048,89.89262 C110.0588,89.89262 115.1368,84.8145 115.1368,74.75591 L115.1368,15.1368 C115.1368,5.0782 110.0588,0 99.8048,0 L15.332,0 C5.1269,0 0,5.0293 0,15.1368 L0,74.75591 C0,84.86333 5.1269,89.89262 15.332,89.89262 Z M15.4297,82.0313 C10.5468,82.0313 7.8613,79.443406 7.8613,74.36528 L7.8613,15.5274 C7.8613,10.4493 10.5468,7.8614 15.4297,7.8614 L37.207,7.8614 L37.207,82.0313 L15.4297,82.0313 Z M99.7068,7.8614 C104.5408,7.8614 107.2758,10.4493 107.2758,15.5274 L107.2758,74.36528 C107.2758,79.443406 104.5408,82.0313 99.7068,82.0313 L44.873,82.0313 L44.873,7.8614 L99.7068,7.8614 Z M27.7832,25.9766 C29.2968,25.9766 30.5664,24.6582 30.5664,23.2422 C30.5664,21.7774 29.2968,20.5079 27.7832,20.5079 L17.334,20.5079 C15.8691,20.5079 14.5508,21.7774 14.5508,23.2422 C14.5508,24.6582 15.8691,25.9766 17.334,25.9766 L27.7832,25.9766 Z M27.7832,38.6231 C29.2968,38.6231 30.5664,37.3047 30.5664,35.8399 C30.5664,34.375 29.2968,33.1543 27.7832,33.1543 L17.334,33.1543 C15.8691,33.1543 14.5508,34.375 14.5508,35.8399 C14.5508,37.3047 15.8691,38.6231 17.334,38.6231 L27.7832,38.6231 Z M27.7832,51.2208 C29.2968,51.2208 30.5664,50 30.5664,48.5352 C30.5664,47.0704 29.2968,45.8008 27.7832,45.8008 L17.334,45.8008 C15.8691,45.8008 14.5508,47.0704 14.5508,48.5352 C14.5508,50 15.8691,51.2208 17.334,51.2208 L27.7832,51.2208 Z" id="Shape"></path>
                </g>
            </g>
        </g>
    </g>
</svg>