<svg width="8" height="11" xmlns="http://www.w3.org/2000/svg"><path d="M6.636 4.463a.769.769 0 0 0 .758-.77.692.692 0 0 0-.215-.525L4.542.461c-.207-.204-.4-.293-.651-.296-.245 0-.44.088-.648.296L.602 3.168a.717.717 0 0 0-.215.526c0 .422.344.77.759.77.214 0 .41-.09.57-.256l2.182-2.264L6.07 4.208c.159.17.355.255.566.255ZM3.89 10.88c.252-.004.445-.092.652-.296l2.637-2.708a.698.698 0 0 0 .215-.525.769.769 0 0 0-.758-.77.77.77 0 0 0-.566.252L3.898 9.101 1.715 6.833a.787.787 0 0 0-.57-.252.769.769 0 0 0-.758.77c0 .207.07.374.215.525l2.641 2.708c.207.207.403.296.648.296H3.89Z" fill="#000" fill-rule="nonzero"/></svg>