<svg width="82" height="105" xmlns="http://www.w3.org/2000/svg"><g fill="#000" fill-rule="nonzero"><path d="M15.137 104.688h51.855c10.108 0 15.137-5.127 15.137-15.284V45.068c0-6.298-.733-9.033-4.639-13.037L50.586 4.64C46.875.83 43.799 0 38.33 0H15.137C5.078 0 0 5.176 0 15.332v74.072c0 10.205 5.03 15.284 15.137 15.284Zm.341-7.862c-5.029 0-7.617-2.685-7.617-7.568v-73.78c0-4.833 2.588-7.617 7.666-7.617h21.729v28.37c0 6.152 3.076 9.18 9.18 9.18h27.832v43.847c0 4.883-2.588 7.568-7.666 7.568H15.477Zm31.836-58.789c-1.953 0-2.685-.781-2.685-2.734V9.375l28.125 28.662h-25.44Z"/><path d="M63.13 71.032c0-.864-.309-1.565-1.03-2.265L49.993 56.804c-.535-.514-1.173-.782-1.915-.782-1.544 0-2.8 1.256-2.8 2.78 0 .762.33 1.462.886 2.038l10.439 10.213-10.44 10.171c-.576.577-.885 1.277-.885 2.039 0 1.524 1.256 2.759 2.8 2.759.762 0 1.38-.247 1.915-.782L62.1 73.297c.721-.7 1.01-1.4 1.03-2.265ZM17.778 71.012c0 .865.31 1.565 1.03 2.265L30.915 85.24c.535.514 1.173.782 1.915.782 1.544 0 2.8-1.256 2.8-2.78 0-.761-.33-1.462-.885-2.038L24.305 70.99l10.44-10.171c.576-.577.885-1.277.885-2.039 0-1.524-1.256-2.759-2.8-2.759-.762 0-1.38.247-1.915.782L18.808 68.747c-.72.7-1.01 1.4-1.03 2.265Z"/></g></svg>