<svg width="82" height="105" xmlns="http://www.w3.org/2000/svg"><g fill="#000" fill-rule="nonzero"><path d="M15.137 104.688h51.855c10.108 0 15.137-5.127 15.137-15.284V45.068c0-6.298-.733-9.033-4.639-13.037L50.586 4.64C46.875.83 43.799 0 38.33 0H15.137C5.078 0 0 5.176 0 15.332v74.072c0 10.205 5.03 15.284 15.137 15.284Zm.341-7.862c-5.029 0-7.617-2.685-7.617-7.568v-73.78c0-4.833 2.588-7.617 7.666-7.617h21.729v28.37c0 6.152 3.076 9.18 9.18 9.18h27.832v43.847c0 4.883-2.588 7.568-7.666 7.568H15.477Zm31.836-58.789c-1.953 0-2.685-.781-2.685-2.734V9.375l28.125 28.662h-25.44Z"/><path d="m21.105 68.536 4.534.005v2.687c0 .392.633.35 1.244.392 1.677.116 2.684 1.883 2.764 3.766l.004.238v4.248c-.004 1.313.565 2.302 1.734 2.44l.073.006h2.083a2.702 2.702 0 0 1 2.713 2.692 2.701 2.701 0 0 1-2.548 2.688l-.165.005h-3.16c-3.37 0-5.965-2.323-6.152-5.773l-.004-.215v-5.216c0-1.35-.857-2.45-2.158-2.573l-.146-.006H20.48a2.702 2.702 0 0 1-2.713-2.692 2.701 2.701 0 0 1 2.547-2.687l.166-.005h.625Z"/><path d="m21.105 74.035 4.534-.005v-2.688c0-.391.633-.349 1.244-.391 1.677-.117 2.684-1.884 2.764-3.767l.004-.237v-4.248c-.004-1.313.565-2.303 1.734-2.44l.073-.007h2.083a2.702 2.702 0 0 0 2.713-2.692 2.701 2.701 0 0 0-2.548-2.687l-.165-.005h-3.16c-3.37 0-5.965 2.323-6.152 5.772l-.004.215v5.217c0 1.35-.857 2.45-2.158 2.572l-.146.006H20.48a2.702 2.702 0 0 0-2.713 2.692 2.701 2.701 0 0 0 2.547 2.688l.166.005h.625ZM59.67 68.536l-4.533.005v2.687c0 .392-.633.35-1.244.392-1.678.116-2.684 1.883-2.764 3.766l-.004.238v4.248c.004 1.313-.566 2.302-1.734 2.44l-.073.006h-2.083a2.702 2.702 0 0 0-2.713 2.692 2.701 2.701 0 0 0 2.547 2.688l.166.005h3.16c3.37 0 5.964-2.323 6.151-5.773l.004-.215v-5.216c0-1.35.858-2.45 2.159-2.573l.146-.006h1.441a2.702 2.702 0 0 0 2.713-2.692 2.701 2.701 0 0 0-2.548-2.687l-.165-.005h-.625Z"/><path d="m59.67 74.035-4.533-.005v-2.688c0-.391-.633-.349-1.244-.391-1.678-.117-2.684-1.884-2.764-3.767l-.004-.237v-4.248c.004-1.313-.566-2.303-1.734-2.44l-.073-.007h-2.083a2.702 2.702 0 0 1-2.713-2.692 2.701 2.701 0 0 1 2.547-2.687l.166-.005h3.16c3.37 0 5.964 2.323 6.151 5.772l.004.215v5.217c0 1.35.858 2.45 2.159 2.572l.146.006h1.441a2.702 2.702 0 0 1 2.713 2.692 2.701 2.701 0 0 1-2.548 2.688l-.165.005h-.625Z"/></g></svg>