<svg width="16" height="23" xmlns="http://www.w3.org/2000/svg"><g fill="#FFF" fill-rule="nonzero"><path d="M8.3 22.319c.356 0 .663-.141.937-.415l6.218-6.375a1.09 1.09 0 00.332-.797c0-.648-.515-1.162-1.154-1.162-.316 0-.614.124-.847.357L8.308 19.57 2.82 13.927a1.208 1.208 0 00-.847-.357c-.639 0-1.154.514-1.154 1.162 0 .315.117.581.332.805l6.218 6.367c.29.282.58.415.93.415zM14.633 9.28c.639 0 1.154-.524 1.154-1.163 0-.324-.117-.59-.332-.805L9.237.945C8.963.663 8.657.522 8.3.522c-.348 0-.647.133-.93.415L1.153 7.312a1.11 1.11 0 00-.332.805c0 .64.515 1.162 1.154 1.162.324 0 .614-.133.847-.365L8.308 3.27l5.478 5.644c.224.24.531.365.847.365z"/></g></svg>