<svg width="11" height="11" xmlns="http://www.w3.org/2000/svg"><g fill-rule="nonzero" fill="none"><path d="M7.625 3.803c.309 0 .606.12.864.348l2.353 2.213v3.171l-.003.17c-.03.753-.28.945-1.143.945H1.32l-.176-.003c-.777-.03-.97-.276-.97-1.112V6.79l1.44-1.3c.2-.177.4-.281.61-.312l.127-.009c.269 0 .532.115.772.326l1.058.961 2.585-2.31c.263-.235.544-.343.858-.343Z" fill="#2A2A2A"/><path d="M3.666 3.592c.86 0 1.566-.705 1.566-1.57 0-.858-.706-1.57-1.566-1.57-.866 0-1.573.712-1.573 1.57 0 .865.707 1.57 1.573 1.57Z" fill="#000" opacity=".8"/></g></svg>