<?xml version="1.0" encoding="UTF-8"?>
<svg width="82px" height="105px" viewBox="0 0 82 105" version="1.1" xmlns="http://www.w3.org/2000/svg" xmlns:xlink="http://www.w3.org/1999/xlink">
    <title>doc.json</title>
    <g id="doc.json" stroke="none" stroke-width="1" fill="none" fill-rule="evenodd">
        <path d="M15.1367,104.6875 L66.9922,104.6875 C77.0996,104.6875 82.1289,99.5606 82.1289,89.40434 L82.1289,45.0684 C82.1289,38.7696 81.3965,36.0352 77.4902,32.0313 L50.5859,4.6387 C46.875,0.8301 43.7988,0 38.33,0 L15.1367,0 C5.0781,0 0,5.1758 0,15.3321 L0,89.40434 C0,99.6094 5.0293,104.6875 15.1367,104.6875 Z M15.4785,96.82622 C10.4492,96.82622 7.8613,94.14067 7.8613,89.25786 L7.8613,15.4786 C7.8613,10.6446 10.4492,7.8614 15.5273,7.8614 L37.2558,7.8614 L37.2558,36.2305 C37.2558,42.3829 40.332,45.4102 46.4355,45.4102 L74.2676,45.4102 L74.2676,89.25786 C74.2676,94.14067 71.6797,96.82622 66.6015,96.82622 L15.4785,96.82622 Z M47.3144,38.0372 C45.3613,38.0372 44.6289,37.2559 44.6289,35.3028 L44.6289,9.375 L72.7539,38.0372 L47.3144,38.0372 Z" id="doc-medium-regular" fill="#000000" fill-rule="nonzero"></path>
        <g id="JSON" transform="translate(16.064450, 50.000000)" fill="#000000" fill-rule="nonzero">
            <g id="L" transform="translate(1.702625, 4.455598)">
                <g id="Path-2" transform="translate(0.000000, 14.080260)">
                    <path d="M3.3379316,-5.73316869e-05 L7.87194602,0.004913127 C7.87194602,1.535202 7.87194602,2.43093123 7.87194602,2.69210081 C7.87194602,3.08385519 8.50490449,3.04139525 9.11554779,3.08385519 C10.7933527,3.2005182 11.7997961,4.96759587 11.8795822,6.85021136 L11.8835402,7.08794438 L11.8835402,11.3359194 C11.8795822,12.648915 12.4493097,13.6385545 13.6176227,13.7751951 L13.6905775,13.782494 L15.7741405,13.782494 C17.2722692,13.782494 18.4867425,14.9877886 18.4867425,16.4745948 C18.4867425,17.9063341 17.3605643,19.0770284 15.9393846,19.1617825 L15.7741405,19.1666956 L12.6130337,19.1666956 C9.24337127,19.1666956 6.64940762,16.8439472 6.46232775,13.3944382 L6.45833605,13.1791175 L6.45833605,7.96288773 C6.45833605,6.6126044 5.60052524,5.51236034 4.29975308,5.39034776 L4.15417695,5.38420162 L2.71260208,5.38420162 C1.21447332,5.38420162 0,4.17890703 0,2.69210081 C0,1.26036149 1.12617827,0.089667242 2.54735792,0.004913127 L2.71260208,-5.73316869e-05 L3.3379316,-5.73316869e-05 Z" id="Symbol"></path>
                </g>
                <g id="Group" transform="translate(0.000000, 0.000000)">
                    <g id="Path-2" transform="translate(9.370807, 9.789457) scale(1, -1) translate(-9.370807, -9.789457) ">
                        <path d="M3.3379316,-5.73316869e-05 L7.87194602,0.004913127 C7.87194602,1.535202 7.87194602,2.43093123 7.87194602,2.69210081 C7.87194602,3.08385519 8.50490449,3.04139525 9.11554779,3.08385519 C10.7933527,3.2005182 11.7997961,4.96759587 11.8795822,6.85021136 L11.8835402,7.08794438 L11.8835402,11.3359194 C11.8795822,12.648915 12.4493097,13.6385545 13.6176227,13.7751951 L13.6905775,13.782494 L15.7741405,13.782494 C17.2722692,13.782494 18.4867425,14.9877886 18.4867425,16.4745948 C18.4867425,17.9063341 17.3605643,19.0770284 15.9393846,19.1617825 L15.7741405,19.1666956 L12.6130337,19.1666956 C9.24337127,19.1666956 6.64940762,16.8439472 6.46232775,13.3944382 L6.45833605,13.1791175 L6.45833605,7.96288773 C6.45833605,6.6126044 5.60052524,5.51236034 4.29975308,5.39034776 L4.15417695,5.38420162 L2.71260208,5.38420162 C1.21447332,5.38420162 0,4.17890703 0,2.69210081 C0,1.26036149 1.12617827,0.089667242 2.54735792,0.004913127 L2.71260208,-5.73316869e-05 L3.3379316,-5.73316869e-05 Z" id="Symbol"></path>
                    </g>
                </g>
            </g>
            <g id="R" transform="translate(37.573432, 21.285185) scale(-1, 1) translate(-37.573432, -21.285185) translate(28.202625, 4.455598)">
                <g id="Path-2" transform="translate(0.000000, 14.080260)">
                    <path d="M3.3379316,-5.73316869e-05 L7.87194602,0.004913127 C7.87194602,1.535202 7.87194602,2.43093123 7.87194602,2.69210081 C7.87194602,3.08385519 8.50490449,3.04139525 9.11554779,3.08385519 C10.7933527,3.2005182 11.7997961,4.96759587 11.8795822,6.85021136 L11.8835402,7.08794438 L11.8835402,11.3359194 C11.8795822,12.648915 12.4493097,13.6385545 13.6176227,13.7751951 L13.6905775,13.782494 L15.7741405,13.782494 C17.2722692,13.782494 18.4867425,14.9877886 18.4867425,16.4745948 C18.4867425,17.9063341 17.3605643,19.0770284 15.9393846,19.1617825 L15.7741405,19.1666956 L12.6130337,19.1666956 C9.24337127,19.1666956 6.64940762,16.8439472 6.46232775,13.3944382 L6.45833605,13.1791175 L6.45833605,7.96288773 C6.45833605,6.6126044 5.60052524,5.51236034 4.29975308,5.39034776 L4.15417695,5.38420162 L2.71260208,5.38420162 C1.21447332,5.38420162 0,4.17890703 0,2.69210081 C0,1.26036149 1.12617827,0.089667242 2.54735792,0.004913127 L2.71260208,-5.73316869e-05 L3.3379316,-5.73316869e-05 Z" id="Symbol"></path>
                </g>
                <g id="Group" transform="translate(0.000000, 0.000000)">
                    <g id="Path-2" transform="translate(9.370807, 9.789457) scale(1, -1) translate(-9.370807, -9.789457) ">
                        <path d="M3.3379316,-5.73316869e-05 L7.87194602,0.004913127 C7.87194602,1.535202 7.87194602,2.43093123 7.87194602,2.69210081 C7.87194602,3.08385519 8.50490449,3.04139525 9.11554779,3.08385519 C10.7933527,3.2005182 11.7997961,4.96759587 11.8795822,6.85021136 L11.8835402,7.08794438 L11.8835402,11.3359194 C11.8795822,12.648915 12.4493097,13.6385545 13.6176227,13.7751951 L13.6905775,13.782494 L15.7741405,13.782494 C17.2722692,13.782494 18.4867425,14.9877886 18.4867425,16.4745948 C18.4867425,17.9063341 17.3605643,19.0770284 15.9393846,19.1617825 L15.7741405,19.1666956 L12.6130337,19.1666956 C9.24337127,19.1666956 6.64940762,16.8439472 6.46232775,13.3944382 L6.45833605,13.1791175 L6.45833605,7.96288773 C6.45833605,6.6126044 5.60052524,5.51236034 4.29975308,5.39034776 L4.15417695,5.38420162 L2.71260208,5.38420162 C1.21447332,5.38420162 0,4.17890703 0,2.69210081 C0,1.26036149 1.12617827,0.089667242 2.54735792,0.004913127 L2.71260208,-5.73316869e-05 L3.3379316,-5.73316869e-05 Z" id="Symbol"></path>
                    </g>
                </g>
            </g>
        </g>
    </g>
</svg>