<?xml version="1.0" encoding="UTF-8"?>
<svg width="9px" height="6px" viewBox="0 0 9 6" version="1.1" xmlns="http://www.w3.org/2000/svg" xmlns:xlink="http://www.w3.org/1999/xlink">
    <title>Lines</title>
    <g id="Page-1" stroke="none" stroke-width="1" fill="none" fill-rule="evenodd">
        <g id="Icons" transform="translate(-268.000000, -164.000000)" fill="#000000" fill-rule="nonzero">
            <g id="Group-5" transform="translate(265.000000, 160.000000)">
                <g id="Lines" transform="translate(3.000000, 4.000000)">
                    <path d="M8.30515984,0.893066406 C8.55215344,0.893066406 8.74511719,0.722167969 8.74511719,0.496582031 C8.74511719,0.284667969 8.55215344,0.106933594 8.30515984,0.106933594 L0.447675902,0.106933594 C0.200682301,0.106933594 0,0.284667969 0,0.496582031 C0,0.722167969 0.200682301,0.893066406 0.447675902,0.893066406 L8.30515984,0.893066406 Z" id="Path"></path>
                    <path d="M8.30515984,3.12158203 C8.55215344,3.12158203 8.74511719,2.94384766 8.74511719,2.71826172 C8.74511719,2.50634766 8.55215344,2.32861328 8.30515984,2.32861328 L0.447675902,2.32861328 C0.200682301,2.32861328 0,2.50634766 0,2.71826172 C0,2.94384766 0.200682301,3.12158203 0.447675902,3.12158203 L8.30515984,3.12158203 Z" id="Path"></path>
                    <path d="M5.84851593,5.34326172 C6.10844997,5.34326172 6.31152344,5.17236328 6.31152344,4.95361328 C6.31152344,4.72802734 6.10844997,4.55029297 5.84851593,4.55029297 L0.47113045,4.55029297 C0.211196408,4.55029297 0,4.72802734 0,4.95361328 C0,5.17236328 0.211196408,5.34326172 0.47113045,5.34326172 L5.84851593,5.34326172 Z" id="Path"></path>
                </g>
            </g>
        </g>
    </g>
</svg>