<?xml version="1.0" encoding="UTF-8"?>
<svg width="11px" height="11px" viewBox="0 0 11 11" version="1.1" xmlns="http://www.w3.org/2000/svg" xmlns:xlink="http://www.w3.org/1999/xlink">
    <title>Group 9</title>
    <g id="Page-1" stroke="none" stroke-width="1" fill="none" fill-rule="evenodd">
        <g id="Icons" transform="translate(-267.000000, -203.000000)" fill-rule="nonzero">
            <g id="Image-icon" transform="translate(265.000000, 200.000000)">
                <g id="Group-9" transform="translate(2.174546, 3.452770)">
                    <path d="M7.4506014,3.34975949 C7.75944423,3.34975949 8.05684844,3.46986503 8.31421747,3.6986375 L8.31421747,3.6986375 L10.667,5.91075949 L10.6671737,9.08266047 L10.6640751,9.25270646 C10.6344891,10.005516 10.3838347,10.196803 9.52104624,10.196803 L9.52104624,10.196803 L1.14631939,10.196803 L0.970752971,10.193747 C0.193776761,10.1645923 0.000191909717,9.9180846 0.000191909717,9.08266047 L0.000191909717,9.08266047 L0,6.33675949 L1.43960478,5.03695644 C1.63978069,4.860611 1.8399566,4.75575695 2.05006187,4.72570409 L2.17739599,4.71667499 C2.44620364,4.71667499 2.70929198,4.83106122 2.94950307,5.04267576 L2.94950307,5.04267576 L4.00757574,6.00352013 L6.59270464,3.69291819 C6.85579298,3.45842641 7.13603926,3.34975949 7.4506014,3.34975949 Z" id="Combined-Shape" fill="#2A2A2A"></path>
                    <path d="M3.49148308,3.13879005 C4.35115169,3.13879005 5.05754605,2.43389228 5.05754605,1.56939502 C5.05754605,0.711547744 4.35115169,0 3.49148308,0 C2.62515037,0 1.918756,0.711547744 1.918756,1.56939502 C1.918756,2.43389228 2.62515037,3.13879005 3.49148308,3.13879005 Z" id="Path" fill="#000000" opacity="0.800000012"></path>
                </g>
            </g>
        </g>
    </g>
</svg>