<?xml version="1.0" encoding="UTF-8"?>
<svg width="92px" height="74px" viewBox="0 0 92 74" version="1.1" xmlns="http://www.w3.org/2000/svg" xmlns:xlink="http://www.w3.org/1999/xlink">
    <title>Shape</title>
    <g id="Page-1" stroke="none" stroke-width="1" fill="none" fill-rule="evenodd">
        <g id="arrow.up.arrow.down" transform="translate(-1404.000000, -624.000000)" fill="#000000" fill-rule="nonzero">
            <g id="Symbols" transform="translate(493.000000, 622.000000)">
                <g id="Regular-S" transform="translate(910.380000, 2.000000)">
                    <path d="M21.2246,1.5898 L1.9863,21.3652 C1.2539,22.1465 0.76562,23.2695 0.76562,24.2461 C0.76562,26.5898 2.377,28.1523 4.6719,28.1523 C5.7949,28.1523 6.625,27.7617 7.3574,27.0293 L14.877,19.2168 L20.6387,12.2344 L20.1992,21.2676 L20.1992,69.31445 C20.1992,71.658203 21.8594,73.26953 24.1543,73.26953 C26.4492,73.26953 28.1094,71.658203 28.1094,69.31445 L28.1094,21.2676 L27.6699,12.2344 L33.4316,19.2168 L40.9512,27.0293 C41.6836,27.7617 42.5137,28.1523 43.6367,28.1523 C45.9316,28.1523 47.543,26.5898 47.543,24.2461 C47.543,23.2695 47.0547,22.1465 46.3223,21.3652 L27.1328,1.5898 C25.4727,-0.1191 22.8848,-0.168 21.2246,1.5898 Z M71.7129,71.9511719 L90.9512,52.1758 C91.684,51.3945 92.172,50.2227 92.172,49.2949 C92.172,46.9512 90.5605,45.3887 88.2656,45.3887 C87.1426,45.3887 86.3125,45.7793 85.5801,46.5117 L78.0605,54.3242 L72.2988,61.2578 L72.6895,52.2734 L72.6895,4.2266 C72.6895,1.9316 71.0781,0.3203 68.7832,0.3203 C66.4883,0.3203 64.8281,1.9316 64.8281,4.2266 L64.8281,52.2734 L65.2676,61.2578 L59.457,54.3242 L51.9375,46.5117 C51.2539,45.7793 50.375,45.3887 49.252,45.3887 C46.957,45.3887 45.3945,46.9512 45.3945,49.2949 C45.3945,50.2227 45.834,51.3945 46.6152,52.1758 L65.8047,71.9511719 C67.4648,73.70898 70.0527,73.75781 71.7129,71.9511719 Z" id="Shape"></path>
                </g>
            </g>
        </g>
    </g>
</svg>