<?xml version="1.0" encoding="UTF-8"?>
<svg width="39px" height="69px" viewBox="0 0 39 69" version="1.1" xmlns="http://www.w3.org/2000/svg" xmlns:xlink="http://www.w3.org/1999/xlink">
    <title>Path</title>
    <g id="Page-1" stroke="none" stroke-width="1" fill="none" fill-rule="evenodd">
        <g id="chevron.right" transform="translate(-1435.000000, -626.000000)" fill="#000000" fill-rule="nonzero">
            <g id="Symbols" transform="translate(540.000000, 623.000000)">
                <g id="Regular-S" transform="translate(894.940000, 3.000000)">
                    <path d="M38.9297,34.7461 C38.9297,33.6719 38.5391,32.6953 37.709,31.8652 L7.5332,1.8848 C6.8008,1.1035 5.8242,0.7129 4.7012,0.7129 C2.4062,0.7129 0.6484,2.4219 0.6484,4.7168 C0.6484,5.791 1.1367,6.8164 1.8203,7.5977 L29.1152,34.7461 L1.8203,61.89453 C1.1367,62.67578 0.6484,63.65234 0.6484,64.77539 C0.6484,67.07031 2.4062,68.7793 4.7012,68.7793 C5.8242,68.7793 6.8008,68.38867 7.5332,67.60742 L37.709,37.627 C38.5391,36.7969 38.9297,35.8203 38.9297,34.7461 Z" id="Path"></path>
                </g>
            </g>
        </g>
    </g>
</svg>