<?xml version="1.0" encoding="UTF-8"?>
<svg width="86px" height="48px" viewBox="0 0 86 48" version="1.1" xmlns="http://www.w3.org/2000/svg" xmlns:xlink="http://www.w3.org/1999/xlink">
    <title>Path</title>
    <g id="Page-1" stroke="none" stroke-width="1" fill="none" fill-rule="evenodd">
        <g id="chevron.down" transform="translate(-1407.000000, -1069.000000)" fill="#000000" fill-rule="nonzero">
            <g id="Symbols" transform="translate(512.128500, 638.138700)">
                <g id="Regular-M" transform="translate(895.312700, 430.878900)">
                    <path d="M42.4316,47.75388 C43.6523,47.75388 44.873,47.2656 45.7031,46.3379 L83.4961,7.6172 C84.3261,6.7871 84.8144,5.7129 84.8144,4.4922 C84.8144,1.9531 82.9101,0 80.3711,0 C79.1504,0 78.0273,0.4883 77.1972,1.2695 L42.4316,36.8164 L7.6172,1.2695 C6.8359,0.4883 5.7129,0 4.4433,0 C1.9043,0 0,1.9531 0,4.4922 C0,5.7129 0.4883,6.7871 1.3183,7.666 L39.1113,46.3379 C40.039,47.2656 41.1621,47.75388 42.4316,47.75388 Z" id="Path"></path>
                </g>
            </g>
        </g>
    </g>
</svg>