<?xml version="1.0" encoding="UTF-8"?>
<svg width="89px" height="53px" viewBox="0 0 89 53" version="1.1" xmlns="http://www.w3.org/2000/svg" xmlns:xlink="http://www.w3.org/1999/xlink">
    <title>Path</title>
    <g id="Page-1" stroke="none" stroke-width="1" fill="none" fill-rule="evenodd">
        <g id="chevron.down" transform="translate(-1999.000000, -1066.000000)" fill="#000000" fill-rule="nonzero">
            <g id="Symbols" transform="translate(512.128500, 638.138700)">
                <g id="Semibold-M" transform="translate(1487.122700, 428.584000)">
                    <path d="M43.9941,51.4648 C46.0937,51.4648 47.9004,50.63472 49.5117,49.0234 L86.084,11.5234 C87.3535,10.2539 88.0368,8.6914 88.0368,6.8359 C88.0368,3.0273 85.0097,0 81.25,0 C79.3945,0 77.6367,0.7324 76.2695,2.0996 L44.0429,35.3027 L11.7676,2.0996 C10.4004,0.7812 8.6914,0 6.7871,0 C3.0273,0 0,3.0273 0,6.8359 C0,8.6914 0.6836,10.2539 1.9531,11.5722 L38.5254,49.0234 C40.2343,50.68355 41.9433,51.4648 43.9941,51.4648 Z" id="Path"></path>
                </g>
            </g>
        </g>
    </g>
</svg>