<?xml version="1.0" encoding="UTF-8"?>
<svg width="81px" height="81px" viewBox="0 0 81 81" version="1.1" xmlns="http://www.w3.org/2000/svg" xmlns:xlink="http://www.w3.org/1999/xlink">
    <title>Shape</title>
    <g id="Page-1" stroke="none" stroke-width="1" fill="none" fill-rule="evenodd">
        <g id="clock.fill" transform="translate(-1706.000000, -620.000000)" fill="#000000" fill-rule="nonzero">
            <g id="Symbols" transform="translate(498.895300, 618.802700)">
                <g id="Medium-S" transform="translate(1207.770640, 2.050800)">
                    <path d="M39.89256,79.78517 C61.71876,79.78517 79.78516,61.7188 79.78516,39.8926 C79.78516,18.0664 61.66996,0 39.84376,0 C18.01756,0 0,18.0664 0,39.8926 C0,61.7188 18.06636,79.78517 39.89256,79.78517 Z M20.99606,44.8731 C19.09176,44.8731 17.62696,43.4082 17.62696,41.5527 C17.62696,39.6485 19.09176,38.1836 20.99606,38.1836 L36.52346,38.1836 L36.52346,17.041 C36.52346,15.1856 37.98826,13.7207 39.84376,13.7207 C41.74806,13.7207 43.21286,15.1856 43.21286,17.041 L43.21286,41.5527 C43.21286,43.4082 41.74806,44.8731 39.84376,44.8731 L20.99606,44.8731 Z" id="Shape"></path>
                </g>
            </g>
        </g>
    </g>
</svg>