<?xml version="1.0" encoding="UTF-8"?>
<svg width="80px" height="80px" viewBox="0 0 80 80" version="1.1" xmlns="http://www.w3.org/2000/svg" xmlns:xlink="http://www.w3.org/1999/xlink">
    <title>Shape</title>
    <g id="Page-1" stroke="none" stroke-width="1" fill="none" fill-rule="evenodd">
        <g id="clock" transform="translate(-1410.000000, -621.000000)" fill="#000000" fill-rule="nonzero">
            <g id="Symbols" transform="translate(498.000000, 618.000000)">
                <g id="Regular-S" transform="translate(911.580000, 3.000000)">
                    <path d="M40.2402,79.15039 C61.7734,79.15039 79.6934,61.2793 79.6934,39.7461 C79.6934,18.2129 61.7246,0.3418 40.1914,0.3418 C18.707,0.3418 0.83594,18.2129 0.83594,39.7461 C0.83594,61.2793 18.7559,79.15039 40.2402,79.15039 Z M40.2402,71.72852 C22.5156,71.72852 8.3555,57.5195 8.3555,39.7461 C8.3555,21.9727 22.4668,7.7637 40.1914,7.7637 C57.9648,7.7637 72.1738,21.9727 72.2228249,39.7461 C72.2715,57.5195 58.0137,71.72852 40.2402,71.72852 Z M20.709,44.0918 L40.1914,44.0918 C41.9004,44.0918 43.2188,42.7734 43.2188,41.1133 L43.2188,15.9668 C43.2188,14.2578 41.9004,12.9395 40.1914,12.9395 C38.5312,12.9395 37.2129,14.2578 37.2129,15.9668 L37.2129,38.0859 L20.709,38.0859 C19,38.0859 17.7305,39.4043 17.7305,41.1133 C17.7305,42.7734 19,44.0918 20.709,44.0918 Z" id="Shape"></path>
                </g>
            </g>
        </g>
    </g>
</svg>