<?xml version="1.0" encoding="UTF-8"?>
<svg width="80px" height="80px" viewBox="0 0 80 80" version="1.1" xmlns="http://www.w3.org/2000/svg" xmlns:xlink="http://www.w3.org/1999/xlink">
    <title>Shape</title>
    <g id="Page-1" stroke="none" stroke-width="1" fill="none" fill-rule="evenodd">
        <g id="clock" transform="translate(-1410.000000, -621.000000)" fill="#000000" fill-rule="nonzero">
            <g id="Symbols" transform="translate(498.895300, 618.802700)">
                <g id="Regular-S" transform="translate(911.520640, 2.539100)">
                    <path d="M39.40426,78.80859 C60.93746,78.80859 78.85746,60.9375 78.85746,39.4043 C78.85746,17.8711 60.88866,0 39.35546,0 C17.87106,0 0,17.8711 0,39.4043 C0,60.9375 17.91996,78.80859 39.40426,78.80859 Z M39.40426,71.38672 C21.67966,71.38672 7.51956,57.1777 7.51956,39.4043 C7.51956,21.6309 21.63086,7.4219 39.35546,7.4219 C57.12886,7.4219 71.33786,21.6309 71.3868849,39.4043 C71.43556,57.1777 57.17776,71.38672 39.40426,71.38672 Z M19.87306,43.75 L39.35546,43.75 C41.06446,43.75 42.38286,42.4316 42.38286,40.7715 L42.38286,15.625 C42.38286,13.916 41.06446,12.5977 39.35546,12.5977 C37.69526,12.5977 36.37696,13.916 36.37696,15.625 L36.37696,37.7441 L19.87306,37.7441 C18.16406,37.7441 16.89456,39.0625 16.89456,40.7715 C16.89456,42.4316 18.16406,43.75 19.87306,43.75 Z" id="Shape"></path>
                </g>
            </g>
        </g>
    </g>
</svg>