<?xml version="1.0" encoding="UTF-8"?>
<svg width="81px" height="99px" viewBox="0 0 81 99" version="1.1" xmlns="http://www.w3.org/2000/svg" xmlns:xlink="http://www.w3.org/1999/xlink">
    <title>Shape</title>
    <g id="Page-1" stroke="none" stroke-width="1" fill="none" fill-rule="evenodd">
        <g id="doc.on.doc.fill" transform="translate(-1706.000000, -611.000000)" fill="#000000" fill-rule="nonzero">
            <g id="Symbols" transform="translate(497.552500, 609.476600)">
                <g id="Medium-S" transform="translate(1208.943120, 2.294900)">
                    <path d="M67.13868,77.9785 L67.62698,77.9785 C75.19528,77.9785 80.12698,73.8281 80.12698,64.9902 L80.12698,29.1015 L59.03318,29.1015 C55.07818,29.1015 52.58788,26.6601 52.58788,22.7051 L52.58788,0 L31.68948,0 C23.43748,0 18.94528,4.4433 18.94528,12.5488 L18.94528,13.916 L24.75588,13.916 C31.10348,13.916 35.88868,15.4297 40.42968,19.9707 L61.71878,41.2597 C66.16208,45.7031 67.13868,50.8789 67.13868,56.9336 L67.13868,77.9785 Z M60.20508,23.6328 L79.58988,23.6328 C79.39458,22.2168 78.41798,20.9961 76.85548,19.3359 L62.35348,4.3945 C60.83988,2.832 59.52148,1.8555 58.10548,1.6601 L58.15428,21.5332 C58.15428,23.0469 58.69138,23.6328 60.20508,23.6328 Z M12.79298,97.9004 L48.33988,97.9004 C56.78708,97.9004 61.13278,93.45702 61.13278,84.960922 L61.13278,55.957 L33.74028,55.957 C28.61328,55.957 26.17188,53.4668 26.17188,48.3887 L26.17188,19.9219 L12.79298,19.9219 C4.34568,19.9219 1.77635684e-15,24.3652 1.77635684e-15,32.8613 L1.77635684e-15,84.960922 C1.77635684e-15,93.50584 4.34568,97.9004 12.79298,97.9004 Z M34.08208,49.9512 L60.49808,49.9512 C60.00978,48.1933 58.98438,46.4844 57.08008,44.4824 L37.49998,24.5605 C35.54688,22.6074 33.93558,21.3379 32.12888,20.8008 L32.12888,47.998 C32.12888,49.2676 32.81248,49.9512 34.08208,49.9512 Z" id="Shape"></path>
                </g>
            </g>
        </g>
    </g>
</svg>