<?xml version="1.0" encoding="UTF-8"?>
<svg width="83px" height="106px" viewBox="0 0 83 106" version="1.1" xmlns="http://www.w3.org/2000/svg" xmlns:xlink="http://www.w3.org/1999/xlink">
    <title>Shape</title>
    <g id="Page-1" stroke="none" stroke-width="1" fill="none" fill-rule="evenodd">
        <g id="doc.text" transform="translate(-1408.000000, -1038.000000)" fill="#000000" fill-rule="nonzero">
            <g id="Symbols" transform="translate(509.613500, 617.435500)">
                <g id="Regular-M" transform="translate(899.167700, 420.966800)">
                    <path d="M15.1367,104.6875 L66.9922,104.6875 C77.0996,104.6875 82.1289,99.5606 82.1289,89.40434 L82.1289,45.0684 C82.1289,38.7696 81.3965,36.0352 77.4902,32.0313 L50.5859,4.6387 C46.875,0.8301 43.7988,0 38.33,0 L15.1367,0 C5.0781,0 0,5.1758 0,15.3321 L0,89.40434 C0,99.6094 5.0293,104.6875 15.1367,104.6875 Z M15.4785,96.82622 C10.4492,96.82622 7.8613,94.14067 7.8613,89.25786 L7.8613,15.4786 C7.8613,10.6446 10.4492,7.8614 15.5273,7.8614 L37.2558,7.8614 L37.2558,36.2305 C37.2558,42.3829 40.332,45.4102 46.4355,45.4102 L74.2676,45.4102 L74.2676,89.25786 C74.2676,94.14067 71.6797,96.82622 66.6015,96.82622 L15.4785,96.82622 Z M47.3144,38.0372 C45.3613,38.0372 44.6289,37.2559 44.6289,35.3028 L44.6289,9.375 L72.7539,38.0372 L47.3144,38.0372 Z M59.0332,58.8868 L21.9726,58.8868 C20.2148,58.8868 18.8965,60.2051 18.8965,61.8653 C18.8965,63.5743 20.2148,64.8926 21.9726,64.8926 L59.0332,64.8926 C60.7422,64.8926 62.0117,63.5743 62.0117,61.8653 C62.0117,60.2051 60.7422,58.8868 59.0332,58.8868 Z M59.0332,75.9278 L21.9726,75.9278 C20.2148,75.9278 18.8965,77.295 18.8965,79.00395 C18.8965,80.66411 20.2148,81.93364 21.9726,81.93364 L59.0332,81.93364 C60.7422,81.93364 62.0117,80.66411 62.0117,79.00395 C62.0117,77.295 60.7422,75.9278 59.0332,75.9278 Z" id="Shape"></path>
                </g>
            </g>
        </g>
    </g>
</svg>