<?xml version="1.0" encoding="UTF-8"?>
<svg width="81px" height="99px" viewBox="0 0 81 99" version="1.1" xmlns="http://www.w3.org/2000/svg" xmlns:xlink="http://www.w3.org/1999/xlink">
    <title>Shape</title>
    <g id="Page-1" stroke="none" stroke-width="1" fill="none" fill-rule="evenodd">
        <g id="doc.on.doc" transform="translate(-1706.000000, -611.000000)" fill="#000000" fill-rule="nonzero">
            <g id="Symbols" transform="translate(497.552500, 609.476600)">
                <g id="Medium-S" transform="translate(1208.943120, 2.294900)">
                    <path d="M1.77635684e-15,84.960922 C1.77635684e-15,93.50584 4.34568,97.9004 12.79298,97.9004 L48.33988,97.9004 C56.78708,97.9004 61.13278,93.45702 61.13278,84.960922 L61.13278,77.9785 L67.28518,77.9785 C75.73238,77.9785 80.12698,73.5351 80.12698,64.9902 L80.12698,35.498 C80.12698,29.8828 78.95508,26.3672 75.73238,23.0469 L57.51958,4.3945 C54.39458,1.2207 50.63478,0 45.80078,0 L31.73828,0 C23.29098,0 18.94528,4.4433 18.94528,12.9394 L18.94528,19.9219 L12.79298,19.9219 C4.34568,19.9219 1.77635684e-15,24.3652 1.77635684e-15,32.8613 L1.77635684e-15,84.960922 Z M57.03128,44.4824 L37.01168,24.0723 C33.98438,20.9961 31.39648,20.1172 27.29488,19.9707 L27.29488,13.4277 C27.29488,10.1562 29.00388,8.3008 32.47068,8.3008 L48.19338,8.3008 L48.19338,25.8789 C48.19338,30.8105 50.83008,33.4473 55.71288,33.4473 L71.77738,33.4473 L71.77738,64.5019 C71.77738,67.8223 70.06838,69.6289 66.60158,69.6289 L61.13278,69.6289 L61.13278,56.1523 C61.13278,50.5859 60.49808,47.998 57.03128,44.4824 Z M55.07818,24.8047 L55.07818,11.6211 L69.72658,26.5137 L56.83598,26.5137 C55.61528,26.5137 55.07818,25.9765 55.07818,24.8047 Z M8.30078,84.472641 L8.30078,33.3496 C8.30078,30.0781 10.05858,28.2715 13.52538,28.2715 L24.51168,28.2715 L24.51168,48.6816 C24.51168,54.4433 27.34378,57.2754 33.05668,57.2754 L52.83208,57.2754 L52.83208,84.472641 C52.83208,87.74412 51.12308,89.55077 47.65628,89.55077 L13.47658,89.55077 C10.05858,89.55077 8.30078,87.74412 8.30078,84.472641 Z M33.88668,49.9512 C32.47068,49.9512 31.83598,49.3164 31.83598,47.8515 L31.83598,29.6875 L51.70898,49.9512 L33.88668,49.9512 Z" id="Shape"></path>
                </g>
            </g>
        </g>
    </g>
</svg>