<?xml version="1.0" encoding="UTF-8"?>
<svg width="112px" height="91px" viewBox="0 0 112 91" version="1.1" xmlns="http://www.w3.org/2000/svg" xmlns:xlink="http://www.w3.org/1999/xlink">
    <title>Shape</title>
    <g id="Page-1" stroke="none" stroke-width="1" fill="none" fill-rule="evenodd">
        <g id="folder.fill" transform="translate(-1394.000000, -1045.000000)" fill="#000000" fill-rule="nonzero">
            <g id="Symbols" transform="translate(491.229500, 621.000000)">
                <g id="Regular-M" transform="translate(903.171700, 424.775400)">
                    <path d="M95.5568,8.9355 L48.6816,8.9355 C45.3613,8.9355 43.3593,8.1543 40.9179,6.0547 L37.9394,3.6133 C34.7168,0.8789 32.2265,0 27.3926,0 L13.4765,0 C4.9316,0 0,4.8828 0,14.6973 L0,27.7832 L110.8888,27.7832 L110.8888,24.0723 C110.8888,14.0137 105.7128,8.9355 95.5568,8.9355 Z M15.332,89.35546 L97.0218,89.35546 C105.7618,89.35546 110.8888,84.27733 110.8888,74.21874 L110.8888,34.1797 L0,34.1797 L0,74.21874 C0,84.32616 5.1269,89.35546 15.332,89.35546 Z" id="Shape"></path>
                </g>
            </g>
        </g>
    </g>
</svg>