<?xml version="1.0" encoding="UTF-8"?>
<svg width="89px" height="73px" viewBox="0 0 89 73" version="1.1" xmlns="http://www.w3.org/2000/svg" xmlns:xlink="http://www.w3.org/1999/xlink">
    <title>Shape</title>
    <g id="Page-1" stroke="none" stroke-width="1" fill="none" fill-rule="evenodd">
        <g id="folder.fill" transform="translate(-1702.000000, -624.000000)" fill="#000000" fill-rule="nonzero">
            <g id="Symbols" transform="translate(491.229500, 621.000000)">
                <g id="Medium-S" transform="translate(1211.186120, 3.369100)">
                    <path d="M75.34178,7.0313 L39.99028,7.0313 C37.40238,7.0313 35.74218,6.3477 33.64258,4.6875 L31.39648,2.9297 C28.71098,0.7813 26.61138,0 22.60738,0 L11.76758,0 C4.44338,0 1.77635684e-15,4.3457 1.77635684e-15,12.793 L1.77635684e-15,22.9981 L88.28128,22.9981 L88.28128,19.8243 C88.28128,11.4258 83.88668,7.0313 75.34178,7.0313 Z M12.93948,71.972697 L76.46488,71.972697 C83.88668,71.972697 88.28128,67.62699 88.28128,59.1797 L88.28128,29.0039 L1.77635684e-15,29.0039 L1.77635684e-15,59.1797 C1.77635684e-15,67.62699 4.44338,71.972697 12.93948,71.972697 Z" id="Shape"></path>
                </g>
            </g>
        </g>
    </g>
</svg>