<?xml version="1.0" encoding="UTF-8"?>
<svg width="106px" height="105px" viewBox="0 0 106 105" version="1.1" xmlns="http://www.w3.org/2000/svg" xmlns:xlink="http://www.w3.org/1999/xlink">
    <title>Shape</title>
    <g id="Page-1" stroke="none" stroke-width="1" fill="none" fill-rule="evenodd">
        <g id="gearshape" transform="translate(-1397.000000, -1038.000000)" fill="#000000" fill-rule="nonzero">
            <g id="Symbols" transform="translate(495.746300, 616.166000)">
                <g id="Regular-M" transform="translate(901.853930, 422.382800)">
                    <path d="M47.31447,104.3946 L57.17777,104.3946 C60.93747,104.3946 63.81837,102.0996 64.69727,98.4864 L66.79687,89.3555 L68.35937,88.81839 L76.31837,93.7012 C79.49217,95.70315 83.15427,95.21487 85.83987,92.52932 L92.67577,85.74222 C95.36177,83.05667 95.84977,79.34573 93.84777,76.2207 L88.86717,68.3106 L89.45317,66.8457 L98.58377,64.6973 C102.14877,63.8184 104.49177,60.8887 104.49177,57.1778 L104.49177,47.5098 C104.49177,43.7989 102.19777,40.8692 98.58377,39.9903 L89.55077,37.793 L88.91597,36.2305 L93.89677,28.3203 C95.89877,25.1953 95.40977,21.5332 92.72477,18.7989 L85.88867,11.9629 C83.25197,9.3262 79.58987,8.8379 76.41597,10.791 L68.45707,15.6739 L66.79687,15.0391 L64.69727,5.9082 C63.81837,2.295 60.93747,0 57.17777,0 L47.31447,0 C43.55467,0 40.67387,2.295 39.79497,5.9082 L37.64647,15.0391 L35.98637,15.6739 L28.07617,10.791 C24.90237,8.8379 21.19137,9.3262 18.55467,11.9629 L11.76757,18.7989 C9.08207,21.5332 8.54497,25.1953 10.59567,28.3203 L15.52737,36.2305 L14.94137,37.793 L5.90817,39.9903 C2.29497,40.8692 0,43.7989 0,47.5098 L0,57.1778 C0,60.8887 2.34377,63.8184 5.90817,64.6973 L15.03907,66.8457 L15.57617,68.3106 L10.64457,76.2207 C8.59377,79.34573 9.13087,83.05667 11.81637,85.74222 L18.60357,92.52932 C21.28907,95.21487 24.99997,95.70315 28.17387,93.7012 L36.08397,88.81839 L37.64647,89.3555 L39.79497,98.4864 C40.67387,102.0996 43.55467,104.3946 47.31447,104.3946 Z M48.09567,96.77737 C47.26567,96.77737 46.82617,96.43558 46.67967,95.65432 L43.74997,83.54495 C40.77147,82.81253 37.98827,81.64065 35.88867,80.32229 L25.24417,86.865262 C24.65817,87.304716 24.02347,87.207059 23.43747,86.621122 L17.67577,80.8594 C17.13867,80.32229 17.08987,79.73636 17.48047,79.05276 L24.02347,68.5059 C22.90037,66.4551 21.63087,63.6719 20.84957,60.6934 L8.74027,57.8125 C7.95897,57.666 7.61717,57.2266 7.61717,56.3965 L7.61717,48.2422 C7.61717,47.3633 7.91017,46.9727 8.74027,46.8262 L20.80077,43.8965 C21.58207,40.7227 23.04687,37.8418 23.92577,36.0352 L17.43167,25.4883 C16.99217,24.7559 17.04097,24.17 17.57817,23.584 L23.38867,17.92 C23.97457,17.334 24.51177,17.2364 25.24417,17.6758 L35.79097,24.0723 C37.89067,22.9004 40.86917,21.6797 43.79887,20.8496 L46.67967,8.7403 C46.82617,7.959 47.26567,7.6172 48.09567,7.6172 L56.39647,7.6172 C57.22657,7.6172 57.66597,7.959 57.76367,8.7403 L60.74217,20.9473 C63.76957,21.7285 66.40627,22.9492 68.60357,24.1211 L79.19927,17.6758 C79.98047,17.2364 80.46877,17.334 81.10357,17.92 L86.86527,23.584 C87.45117,24.17 87.45117,24.7559 87.01177,25.4883 L80.51757,36.0352 C81.44527,37.8418 82.86137,40.7227 83.64257,43.8965 L95.75177,46.8262 C96.53277,46.9727 96.87477,47.3633 96.87477,48.2422 L96.87477,56.3965 C96.87477,57.2266 96.48477,57.666 95.75177,57.8125 L83.59377,60.6934 C82.81247,63.6719 81.59177,66.4551 80.41997,68.5059 L86.96287,79.05276 C87.35357,79.73636 87.35357,80.32229 86.76757,80.8594 L81.05467,86.621122 C80.41997,87.207059 79.83397,87.304716 79.19927,86.865262 L68.55467,80.32229 C66.45507,81.64065 63.72067,82.81253 60.74217,83.54495 L57.76367,95.65432 C57.66597,96.43558 57.22657,96.77737 56.39647,96.77737 L48.09567,96.77737 Z M52.24607,70.8496 C62.45117,70.8496 70.84957,62.4512 70.84957,52.1973 C70.84957,42.041 62.45117,33.6426 52.24607,33.6426 C42.04097,33.6426 33.59377,42.041 33.59377,52.1973 C33.59377,62.4024 41.99217,70.8496 52.24607,70.8496 Z M52.24607,63.2813 C46.19137,63.2813 41.21097,58.3008 41.21097,52.1973 C41.21097,46.1914 46.19137,41.211 52.24607,41.211 C58.20317,41.211 63.18357,46.1914 63.18357,52.1973 C63.18357,58.252 58.20317,63.2813 52.24607,63.2813 Z" id="Shape"></path>
                </g>
            </g>
        </g>
    </g>
</svg>