<?xml version="1.0" encoding="UTF-8"?>
<svg width="73px" height="73px" viewBox="0 0 73 73" version="1.1" xmlns="http://www.w3.org/2000/svg" xmlns:xlink="http://www.w3.org/1999/xlink">
    <title>Shape</title>
    <g id="Page-1" stroke="none" stroke-width="1" fill="none" fill-rule="evenodd">
        <path d="M30.4954,59.4239 C36.7942,59.4239 42.6047,57.4219 47.4387,54.1016 L64.7727,71.435588 C65.7004,72.363322 66.9211,72.80278 68.1907,72.80278 C70.925,72.80278 72.927,70.703166 72.927,68.01762 C72.927,66.74809 72.4876,65.47856 71.5598,64.59965 L54.3723,47.3633 C58.0344,42.3829 60.1829,36.2793 60.1829,29.6875 C60.1829,13.3301 46.8528,0 30.4954,0 C14.1868,0 0.807859985,13.2813 0.807859985,29.6875 C0.807859985,46.045 14.1379,59.4239 30.4954,59.4239 Z M30.4954,52.1485 C18.2395,52.1485 8.08329999,41.9922 8.08329999,29.6875 C8.08329999,17.4317 18.2395,7.2754 30.4954,7.2754 C42.8,7.2754 52.9075,17.4317 52.9075,29.6875 C52.9075,41.9922 42.8,52.1485 30.4954,52.1485 Z" id="Shape" fill="#000000" fill-rule="nonzero"></path>
    </g>
</svg>