<?xml version="1.0" encoding="UTF-8"?>
<svg width="118px" height="99px" viewBox="0 0 118 99" version="1.1" xmlns="http://www.w3.org/2000/svg" xmlns:xlink="http://www.w3.org/1999/xlink">
    <title>Shape</title>
    <g id="Page-1" stroke="none" stroke-width="1" fill="none" fill-rule="evenodd">
        <g id="paintpalette" transform="translate(-1391.000000, -1041.000000)" fill="#000000" fill-rule="nonzero">
            <g id="Symbols" transform="translate(487.000000, 615.000000)">
                <g id="Regular-M" transform="translate(903.290000, 426.000000)">
                    <path d="M63.9238,98.1836 C84.4805,98.1836 98.201,90.9082 98.201,80.16602 C98.201,70.5469 89.998,68.3984 89.998,62.7344 C89.998,54.9219 118.367,53.3594 118.367,33.291 C118.367,13.4668 97.908,0.3809 67.5371,0.3809 C27.6445,0.3809 0.74023,20.3027 0.74023,50.1367 C0.74023,78.84766 26.2773,98.1836 63.9238,98.1836 Z M63.9238,89.83398 C30.8672,89.83398 9.0898,73.916 9.0898,50.1367 C9.0898,25.2344 32.2344,8.7305 67.5371,8.7305 C93.172,8.7305 110.018,18.6914 110.018,33.291 C110.018,50.332 81.4531,48.0371 81.4531,62.7832 C81.4531,71.1328 89.8516,73.7695 89.8516,79.53125 C89.8516,85.732422 79.6465,89.83398 63.9238,89.83398 Z M67.9766,33.291 C72.5664,33.291 76.1797,29.6289 76.1797,25.0391 C76.1797,20.498 72.5664,16.8359 67.9766,16.8359 C63.4844,16.8359 59.7246,20.498 59.7246,25.0391 C59.7246,29.6289 63.4844,33.291 67.9766,33.291 Z M43.2695,41.2012 C48.8848,41.2012 53.4746,36.6602 53.4746,30.8984 C53.4746,25.2832 48.8359,20.791 43.2695,20.791 C37.5078,20.791 32.918,25.2832 32.918,30.8984 C32.918,36.6602 37.5078,41.2012 43.2695,41.2012 Z M90.291,36.416 C93.953,36.416 96.883,33.4375 96.883,29.7266 C96.883,26.0645 93.953,23.0859 90.291,23.0859 C86.5801,23.0859 83.5527,26.0645 83.5527,29.7266 C83.5527,33.4375 86.5801,36.416 90.291,36.416 Z M25.3984,56.8262 C29.8906,56.8262 33.5039,53.1152 33.5039,48.623 C33.5039,44.1309 29.9395,40.5176 25.3984,40.5176 C20.9551,40.5176 17.293,44.1309 17.293,48.623 C17.293,53.1152 20.9551,56.8262 25.3984,56.8262 Z M59.9199,78.31055 C67.3418,78.31055 73.4453,72.207 73.4453,64.7363 C73.4453,57.3633 67.3418,51.2598 59.9199,51.2598 C52.498,51.2598 46.3945,57.3633 46.3945,64.7363 C46.3945,72.207 52.498,78.31055 59.9199,78.31055 Z M59.9199,72.6465 C55.5742,72.6465 52.0586,69.1309 52.0586,64.7363 C52.0586,59.9023 55.7695,57.0215 59.8223,56.9727 C63.9727,56.9238 67.7812,59.7559 67.7812,64.7363 C67.7812,69.1309 64.3145,72.6465 59.9199,72.6465 Z" id="Shape"></path>
                </g>
            </g>
        </g>
    </g>
</svg>