<?xml version="1.0" encoding="UTF-8"?>
<svg width="116px" height="91px" viewBox="0 0 116 91" version="1.1" xmlns="http://www.w3.org/2000/svg" xmlns:xlink="http://www.w3.org/1999/xlink">
    <title>Shape</title>
    <g id="Page-1" stroke="none" stroke-width="1" fill="none" fill-rule="evenodd">
        <g id="photo" transform="translate(-1392.000000, -1045.000000)" fill="#000000" fill-rule="nonzero">
            <g id="Symbols" transform="translate(487.000000, 622.000000)">
                <g id="Regular-M" transform="translate(904.820000, 423.000000)">
                    <path d="M15.7832,90.76562 L100.256,90.76562 C110.51,90.76562 115.588,85.6875 115.588,75.62891 L115.588,16.0098 C115.588,5.9512 110.51,0.873 100.256,0.873 L15.7832,0.873 C5.5781,0.873 0.4512,5.9023 0.4512,16.0098 L0.4512,75.62891 C0.4512,85.73633 5.5781,90.76562 15.7832,90.76562 Z M81.5547,45.6973 C79.3574,43.7441 76.8184,42.7188 74.1816,42.7188 C71.4961,42.7188 69.1035,43.6465 66.8574,45.6484 L44.7871,65.375 L35.7539,57.1719 C33.7031,55.3652 31.457,54.3887 29.1621,54.3887 C26.9648,54.3887 24.9141,55.3164 22.8633,57.123 L8.3125,70.2578 L8.3125,16.4004 C8.3125,11.3223 10.998,8.7344 15.8809,8.7344 L100.158,8.7344 C104.992,8.7344 107.727,11.3223 107.727,16.4004 L107.727,70.3066 L81.5547,45.6973 Z M36.8281,46.2344 C43.127,46.2344 48.3027,41.0586 48.3027,34.7109 C48.3027,28.4121 43.127,23.1875 36.8281,23.1875 C30.4805,23.1875 25.3047,28.4121 25.3047,34.7109 C25.3047,41.0586 30.4805,46.2344 36.8281,46.2344 Z" id="Shape"></path>
                </g>
            </g>
        </g>
    </g>
</svg>