<svg width="116" height="91" xmlns="http://www.w3.org/2000/svg"><path d="M15.603 90.766h84.473c10.254 0 15.332-5.079 15.332-15.137v-59.62c0-10.058-5.078-15.136-15.332-15.136H15.603C5.398.873.271 5.903.271 16.01v59.619c0 10.107 5.127 15.137 15.332 15.137zm65.772-45.069c-2.198-1.953-4.737-2.978-7.373-2.978-2.686 0-5.078.928-7.325 2.93l-22.07 19.726-9.033-8.203c-2.05-1.807-4.297-2.783-6.592-2.783-2.197 0-4.248.927-6.299 2.734L8.133 70.258V16.4c0-5.078 2.685-7.666 7.568-7.666h84.277c4.834 0 7.569 2.588 7.569 7.666v53.907l-26.172-24.61zm-44.727.537c6.299 0 11.475-5.175 11.475-11.523 0-6.299-5.176-11.523-11.475-11.523-6.347 0-11.523 5.224-11.523 11.523 0 6.348 5.176 11.523 11.523 11.523z" fill="#000" fill-rule="nonzero"/></svg>