<?xml version="1.0" encoding="UTF-8"?>
<svg width="116px" height="91px" viewBox="0 0 116 91" version="1.1" xmlns="http://www.w3.org/2000/svg" xmlns:xlink="http://www.w3.org/1999/xlink">
    <title>Shape</title>
    <g id="Page-1" stroke="none" stroke-width="1" fill="none" fill-rule="evenodd">
        <g id="play.rectangle.fill" transform="translate(-1392.000000, -1045.000000)" fill="#000000" fill-rule="nonzero">
            <g id="Symbols" transform="translate(487.079500, 622.660200)">
                <g id="Regular-M" transform="translate(905.191700, 423.212800)">
                    <path d="M15.332,89.89262 L99.8048,89.89262 C110.0588,89.89262 115.1368,84.8145 115.1368,74.75591 L115.1368,15.1368 C115.1368,5.0782 110.0588,0 99.8048,0 L15.332,0 C5.1269,0 0,5.0293 0,15.1368 L0,74.75591 C0,84.86333 5.1269,89.89262 15.332,89.89262 Z M77.0019,47.7051 L48.291,64.6485 C45.9961,66.0645 43.2617,64.8926 43.2617,62.5 L43.2617,27.4415 C43.2617,25.0489 46.1914,24.0723 48.291,25.3418 L77.0019,42.2852 C79.0527,43.5547 79.1015,46.4844 77.0019,47.7051 Z" id="Shape"></path>
                </g>
            </g>
        </g>
    </g>
</svg>