<?xml version="1.0" encoding="UTF-8"?>
<svg width="82px" height="82px" viewBox="0 0 82 82" version="1.1" xmlns="http://www.w3.org/2000/svg" xmlns:xlink="http://www.w3.org/1999/xlink">
    <title>Path</title>
    <g id="Page-1" stroke="none" stroke-width="1" fill="none" fill-rule="evenodd">
        <g id="plus" transform="translate(-1409.000000, -1050.000000)" fill="#000000" fill-rule="nonzero">
            <g id="Symbols" transform="translate(510.760500, 626.517600)">
                <g id="Regular-M" transform="translate(898.800700, 423.945300)">
                    <path d="M4.3457,44.6289 L35.9375,44.6289 L35.9375,76.220694 C35.9375,78.56444 37.8906,80.5664 40.2832,80.5664 C42.6758,80.5664 44.6777,78.56444 44.6777,76.220694 L44.6777,44.6289 L76.2207,44.6289 C78.5644,44.6289 80.5664,42.6758 80.5664,40.2832 C80.5664,37.8906 78.5644,35.8887 76.2207,35.8887 L44.6777,35.8887 L44.6777,4.3457 C44.6777,2.0019 42.6758,0 40.2832,0 C37.8906,0 35.9375,2.0019 35.9375,4.3457 L35.9375,35.8887 L4.3457,35.8887 C2.0019,35.8887 0,37.8906 0,40.2832 C0,42.6758 2.0019,44.6289 4.3457,44.6289 Z" id="Path"></path>
                </g>
            </g>
        </g>
    </g>
</svg>