<?xml version="1.0" encoding="UTF-8"?>
<svg width="86px" height="81px" viewBox="0 0 86 81" version="1.1" xmlns="http://www.w3.org/2000/svg" xmlns:xlink="http://www.w3.org/1999/xlink">
    <title>Shape</title>
    <g id="Page-1" stroke="none" stroke-width="1" fill="none" fill-rule="evenodd">
        <g id="quote.bubble" transform="translate(-1407.000000, -623.000000)" fill="#000000" fill-rule="nonzero">
            <g id="Symbols" transform="translate(493.000000, 618.000000)">
                <g id="Regular-S" transform="translate(913.530000, 5.000000)">
                    <path d="M25.2773,80.37305 C27.4258,80.37305 28.8906,79.25 31.5273,76.85742 L44.6133,65.13867 L67.5625,65.13867 C79.5742,65.13867 85.873,58.6445 85.873,46.8281 L85.873,18.4102 C85.873,6.5938 79.5742,0.0996 67.5625,0.0996 L19.0762,0.0996 C7.0645,0.0996 0.76562,6.5938 0.76562,18.4102 L0.76562,46.8281 C0.76562,58.6445 7.0645,65.13867 19.0762,65.13867 L20.4922,65.13867 L20.4922,74.85547 C20.4922,78.22461 22.2012,80.37305 25.2773,80.37305 Z M27.084,72.365234 L27.084,61.3789 C27.084,58.9863 26.2051,58.1074 23.8125,58.1074 L19.0762,58.1074 C11.2148,58.1074 7.7969,54.3477 7.7969,46.8281 L7.7969,18.4102 C7.7969,10.9395 11.2148,7.1797 19.0762,7.1797 L67.5625,7.1797 C75.4238,7.1797 78.8418,10.9395 78.8418,18.4102 L78.8418,46.8281 C78.8418,54.3477 75.4238,58.1074 67.5625,58.1074 L44.2227,58.1074 C41.8789,58.1074 40.6582,58.4492 39.0957,60.1094 L27.084,72.365234 Z M24.9844,28.4688 C24.9844,32.8145 27.6211,36.2812 31.9668,36.2812 C33.4805,36.2812 35.043,36.0371 36.0195,34.8652 L36.3125,34.8652 C34.9453,37.8438 32.2598,39.748 29.6719,40.3828 C28.207,40.7734 27.7676,41.457 27.7676,42.3848 C27.7676,43.4102 28.5488,44.2402 29.7207,44.2402 C33.7246,44.2402 41.3418,39.5527 41.3418,29.8848 C41.3418,24.8066 38.0703,20.7539 33.041,20.7539 C28.4512,20.7539 24.9844,23.9277 24.9844,28.4688 Z M45.3457,28.4688 C45.3457,32.8145 47.9824,36.2812 52.3281,36.2812 C53.8418,36.2812 55.4043,36.0371 56.3809,34.8652 L56.6738,34.8652 C55.2578,37.8438 52.6211,39.748 50.0332,40.3828 C48.5195,40.7734 48.1289,41.457 48.1289,42.3848 C48.1289,43.4102 48.9102,44.2402 50.082,44.2402 C54.0859,44.2402 61.7031,39.5527 61.7031,29.8848 C61.7031,24.8066 58.4316,20.7539 53.4023,20.7539 C48.8125,20.7539 45.3457,23.9277 45.3457,28.4688 Z" id="Shape"></path>
                </g>
            </g>
        </g>
    </g>
</svg>