<?xml version="1.0" encoding="UTF-8"?>
<svg width="87px" height="72px" viewBox="0 0 87 72" version="1.1" xmlns="http://www.w3.org/2000/svg" xmlns:xlink="http://www.w3.org/1999/xlink">
    <title>Shape</title>
    <g id="Page-1" stroke="none" stroke-width="1" fill="none" fill-rule="evenodd">
        <g id="rectangle.grid.2x2" transform="translate(-1406.000000, -625.000000)" fill="#000000" fill-rule="nonzero">
            <g id="Symbols" transform="translate(492.000000, 622.000000)">
                <g id="Regular-S" transform="translate(914.180000, 3.000000)">
                    <path d="M8.5781,32.7188 L32.748,32.7188 C37.9727,32.7188 40.5605,30.082 40.5605,24.7109 L40.5605,8.207 C40.5605,2.8359 37.9727,0.1992 32.748,0.1992 L8.5781,0.1992 C3.3535,0.1992 0.76562,2.8359 0.76562,8.207 L0.76562,24.7109 C0.76562,30.082 3.3535,32.7188 8.5781,32.7188 Z M54.5742,32.7188 L78.7441,32.7188 C83.9688,32.7188 86.5566,30.082 86.5566,24.7109 L86.5566,8.207 C86.5566,2.8359 83.9688,0.1992 78.7441,0.1992 L54.5742,0.1992 C49.3496,0.1992 46.7617,2.8359 46.7617,8.207 L46.7617,24.7109 C46.7617,30.082 49.3496,32.7188 54.5742,32.7188 Z M8.627,26.5664 C7.5039,26.5664 6.8691,25.9316 6.8691,24.7109 L6.8691,8.1582 C6.8691,6.9863 7.5039,6.3516 8.627,6.3516 L32.6504,6.3516 C33.8223,6.3516 34.457,6.9863 34.457,8.1582 L34.457,24.7109 C34.457,25.9316 33.8223,26.5664 32.6504,26.5664 L8.627,26.5664 Z M54.6719,26.5664 C53.5,26.5664 52.8652,25.9316 52.8652,24.7109 L52.8652,8.1582 C52.8652,6.9863 53.5,6.3516 54.6719,6.3516 L78.6953,6.3516 C79.8672,6.3516 80.4531,6.9863 80.4531,8.1582 L80.4531,24.7109 C80.4531,25.9316 79.8672,26.5664 78.6953,26.5664 L54.6719,26.5664 Z M8.5781,71.390625 L32.748,71.390625 C37.9727,71.390625 40.5605,68.75391 40.5605,63.38281 L40.5605,46.8789 C40.5605,41.5078 37.9727,38.9199 32.748,38.9199 L8.5781,38.9199 C3.3535,38.9199 0.76562,41.5078 0.76562,46.8789 L0.76562,63.38281 C0.76562,68.75391 3.3535,71.390625 8.5781,71.390625 Z M54.5742,71.390625 L78.7441,71.390625 C83.9688,71.390625 86.5566,68.75391 86.5566,63.38281 L86.5566,46.8789 C86.5566,41.5078 83.9688,38.9199 78.7441,38.9199 L54.5742,38.9199 C49.3496,38.9199 46.7617,41.5078 46.7617,46.8789 L46.7617,63.38281 C46.7617,68.75391 49.3496,71.390625 54.5742,71.390625 Z M8.627,65.23828 C7.5039,65.23828 6.8691,64.60352 6.8691,63.43164 L6.8691,46.8789 C6.8691,45.6582 7.5039,45.0234 8.627,45.0234 L32.6504,45.0234 C33.8223,45.0234 34.457,45.6582 34.457,46.8789 L34.457,63.43164 C34.457,64.60352 33.8223,65.23828 32.6504,65.23828 L8.627,65.23828 Z M54.6719,65.23828 C53.5,65.23828 52.8652,64.60352 52.8652,63.43164 L52.8652,46.8789 C52.8652,45.6582 53.5,45.0234 54.6719,45.0234 L78.6953,45.0234 C79.8672,45.0234 80.4531,45.6582 80.4531,46.8789 L80.4531,63.43164 C80.4531,64.60352 79.8672,65.23828 78.6953,65.23828 L54.6719,65.23828 Z" id="Shape"></path>
                </g>
            </g>
        </g>
    </g>
</svg>