<?xml version="1.0" encoding="UTF-8"?>
<svg width="92px" height="72px" viewBox="0 0 92 72" version="1.1" xmlns="http://www.w3.org/2000/svg" xmlns:xlink="http://www.w3.org/1999/xlink">
    <title>Shape</title>
    <g id="Page-1" stroke="none" stroke-width="1" fill="none" fill-rule="evenodd">
        <g id="sidebar.left" transform="translate(-1404.000000, -625.000000)" fill="#000000" fill-rule="nonzero">
            <g id="Symbols" transform="translate(487.000000, 622.000000)">
                <g id="Regular-S" transform="translate(916.790000, 3.000000)">
                    <path d="M13.2168,71.390625 L78.8906,71.390625 C87.2402,71.390625 91.342,67.28906 91.342,59.0859 L91.342,12.5039 C91.342,4.3008 87.2402,0.1992 78.8906,0.1992 L13.2168,0.1992 C4.916,0.1992 0.76562,4.3008 0.76562,12.5039 L0.76562,59.0859 C0.76562,67.28906 4.916,71.390625 13.2168,71.390625 Z M13.3145,64.31055 C9.7988,64.31055 7.7969,62.45508 7.7969,58.7441 L7.7969,12.8457 C7.7969,9.1836 9.7988,7.2793 13.3145,7.2793 L30.3066,7.2793 L30.3066,64.31055 L13.3145,64.31055 Z M78.793,7.2793 C82.3086,7.2793 84.3105,9.1836 84.3105,12.8457 L84.3105,58.7441 C84.3105,62.45508 82.3086,64.31055 78.793,64.31055 L37.1914,64.31055 L37.1914,7.2793 L78.793,7.2793 Z M22.9336,21.4395 C24.252,21.4395 25.375,20.2676 25.375,18.998 C25.375,17.7285 24.252,16.6543 22.9336,16.6543 L15.2676,16.6543 C13.998,16.6543 12.875,17.7285 12.875,18.998 C12.875,20.2676 13.998,21.4395 15.2676,21.4395 L22.9336,21.4395 Z M22.9336,31.2051 C24.252,31.2051 25.375,30.082 25.375,28.7637 C25.375,27.4941 24.252,26.4199 22.9336,26.4199 L15.2676,26.4199 C13.998,26.4199 12.875,27.4941 12.875,28.7637 C12.875,30.082 13.998,31.2051 15.2676,31.2051 L22.9336,31.2051 Z M22.9336,40.9707 C24.252,40.9707 25.375,39.8477 25.375,38.5781 C25.375,37.3086 24.252,36.2344 22.9336,36.2344 L15.2676,36.2344 C13.998,36.2344 12.875,37.3086 12.875,38.5781 C12.875,39.8477 13.998,40.9707 15.2676,40.9707 L22.9336,40.9707 Z" id="Shape"></path>
                </g>
            </g>
        </g>
    </g>
</svg>