<?xml version="1.0" encoding="UTF-8"?>
<svg width="91px" height="91px" viewBox="0 0 91 91" version="1.1" xmlns="http://www.w3.org/2000/svg" xmlns:xlink="http://www.w3.org/1999/xlink">
    <title>Shape</title>
    <g id="Page-1" stroke="none" stroke-width="1" fill="none" fill-rule="evenodd">
        <g id="square.split.2x1" transform="translate(-1404.000000, -1045.000000)" fill="#000000" fill-rule="nonzero">
            <g id="Symbols" transform="translate(504.000000, 622.000000)">
                <g id="Regular-M" transform="translate(900.450000, 423.000000)">
                    <path d="M15.7832,90.76562 L75.0117,90.76562 C85.2656,90.76562 90.344,85.6875 90.344,75.62891 L90.344,16.0098 C90.344,5.9512 85.2656,0.873 75.0117,0.873 L15.7832,0.873 C5.5781,0.873 0.4512,5.9023 0.4512,16.0098 L0.4512,75.62891 C0.4512,85.73633 5.5781,90.76562 15.7832,90.76562 Z M15.8809,82.9043 C10.998,82.9043 8.3125,80.316406 8.3125,75.23828 L8.3125,16.4004 C8.3125,11.3223 10.998,8.7344 15.8809,8.7344 L41.4668,8.7344 L41.4668,82.9043 L15.8809,82.9043 Z M74.9141,8.7344 C79.748,8.7344 82.4824,11.3223 82.4824,16.4004 L82.4824,75.23828 C82.4824,80.316406 79.748,82.9043 74.9141,82.9043 L49.3281,82.9043 L49.3281,8.7344 L74.9141,8.7344 Z" id="Shape"></path>
                </g>
            </g>
        </g>
    </g>
</svg>