<?xml version="1.0" encoding="UTF-8"?>
<svg width="89px" height="88px" viewBox="0 0 89 88" version="1.1" xmlns="http://www.w3.org/2000/svg" xmlns:xlink="http://www.w3.org/1999/xlink">
    <title>Shape</title>
    <g id="Page-1" stroke="none" stroke-width="1" fill="none" fill-rule="evenodd">
        <path d="M47.3751213,83.25191 L84.7286213,45.8496 C87.8536213,42.7246 88.1465213,40.8203 88.1465213,36.4746 L88.1465213,21.9726 C88.1465213,17.5781 87.0235213,16.0156 83.8985213,12.9394 L75.2071213,4.248 C72.1309213,1.1718 70.6172213,0 66.2227213,0 L51.6719213,0 C47.3751213,0 45.4708213,0.3418 42.3458213,3.4668 L4.94342134,40.8691 C-0.915928659,46.7285 -1.06241866,52.9296 4.99222134,58.9355 L29.3087213,83.20308 C35.3145213,89.2089 41.4669213,89.1601 47.3751213,83.25191 Z M59.3868213,32.5683 C56.1153213,32.5683 53.6251213,30.0293 53.6251213,26.8066 C53.6251213,23.5351 56.1153213,20.9961 59.3868213,20.9961 C62.7071213,20.9961 65.1973213,23.5351 65.1973213,26.8066 C65.1973213,30.0293 62.7071213,32.5683 59.3868213,32.5683 Z" id="Shape" fill="#000000" fill-rule="nonzero"></path>
    </g>
</svg>