<?xml version="1.0" encoding="UTF-8"?>
<svg width="88px" height="88px" viewBox="0 0 88 88" version="1.1" xmlns="http://www.w3.org/2000/svg" xmlns:xlink="http://www.w3.org/1999/xlink">
    <title>Shape</title>
    <g id="Page-1" stroke="none" stroke-width="1" fill="none" fill-rule="evenodd">
        <path d="M46.8751213,83.25191 L84.2286213,45.8496 C87.3536213,42.7246 87.6465213,40.8203 87.6465213,36.4746 L87.6465213,21.9726 C87.6465213,17.5781 86.5235213,16.0156 83.3985213,12.9394 L74.7071213,4.248 C71.6309213,1.1718 70.1172213,0 65.7227213,0 L51.1719213,0 C46.8751213,0 44.9708213,0.3418 41.8458213,3.4668 L4.44342134,40.8691 C-1.41592866,46.7285 -1.56241866,52.9296 4.49222134,58.9355 L28.8087213,83.20308 C34.8145213,89.2089 40.9669213,89.1601 46.8751213,83.25191 Z M41.4551213,76.8554281 C39.1114213,79.19918 36.6212213,79.24801 34.1798213,76.8554281 L10.8399213,53.5156 C8.39852134,51.0742 8.49622134,48.5839 10.8399213,46.2402 L47.7540213,9.3261 C48.4376213,8.6425 49.0723213,8.2031 50.2442213,8.2031 L65.6251213,8.2031 C66.6993213,8.2031 67.4317213,8.5937 68.0665213,9.2773 L78.3692213,19.58 C79.0528213,20.2636 79.4434213,20.9472 79.4434213,22.0214 L79.4434213,37.4023 C79.4434213,38.623 79.0528213,39.2578 78.4180213,39.9414 L41.4551213,76.8554281 Z M60.8887213,32.5683 C64.1602213,32.5683 66.6505213,30.0293 66.6505213,26.8066 C66.6505213,23.5351 64.1602213,20.9961 60.8887213,20.9961 C57.5684213,20.9961 55.0782213,23.5351 55.0782213,26.8066 C55.0782213,30.0293 57.5684213,32.5683 60.8887213,32.5683 Z" id="Shape" fill="#000000" fill-rule="nonzero"></path>
    </g>
</svg>