<svg width="113" height="74" xmlns="http://www.w3.org/2000/svg"><path d="M4.993 72.635c2.588 0 3.857-.977 4.785-3.662l6.299-17.285h28.808l6.3 17.285c.927 2.685 2.196 3.662 4.736 3.662 2.587 0 4.248-1.563 4.248-4.004 0-.83-.147-1.563-.538-2.637l-22.9-60.937C35.608 2.029 33.606.564 30.481.564c-3.027 0-5.078 1.465-6.152 4.444l-22.9 61.035C1.037 67.117.89 67.85.89 68.68c0 2.441 1.563 3.955 4.102 3.955zm13.476-28.32 11.866-32.862h.244l11.865 32.862H18.469zm68.604 28.808c7.519 0 14.551-4.102 17.578-10.45h.195v6.446c0 2.442 1.66 4.053 3.955 4.053 2.344 0 4.004-1.611 4.004-4.248V36.355c0-10.644-7.812-17.529-20.215-17.529-9.18 0-16.845 4.053-19.628 10.352-.538 1.22-.928 2.392-.928 3.418 0 2.148 1.611 3.564 3.71 3.564 1.514 0 2.686-.586 3.419-1.953 2.734-5.664 6.884-8.3 13.232-8.3 7.617 0 12.158 4.247 12.158 11.083v4.2l-15.771.878c-12.354.684-19.238 6.397-19.238 15.479 0 9.326 7.177 15.576 17.529 15.576zm2.002-6.787c-6.592 0-11.084-3.613-11.084-8.984 0-5.176 4.15-8.643 11.816-9.131l14.746-.928v5.176c0 7.763-6.884 13.867-15.478 13.867z" fill="#000" fill-rule="nonzero"/></svg>