<?xml version="1.0" encoding="UTF-8"?>
<svg width="113px" height="74px" viewBox="0 0 113 74" version="1.1" xmlns="http://www.w3.org/2000/svg" xmlns:xlink="http://www.w3.org/1999/xlink">
    <title>Shape</title>
    <g id="Page-1" stroke="none" stroke-width="1" fill="none" fill-rule="evenodd">
        <g id="textformat" transform="translate(-1393.000000, -1054.000000)" fill="#000000" fill-rule="nonzero">
            <g id="Symbols" transform="translate(490.000000, 629.000000)">
                <g id="Regular-M" transform="translate(903.440000, 425.000000)">
                    <path d="M4.5527,72.634766 C7.1406,72.634766 8.4102,71.658203 9.3379,68.97266 L15.6367,51.6875 L44.4453,51.6875 L50.7441,68.97266 C51.6719,71.658203 52.9414,72.634766 55.4805,72.634766 C58.0684,72.634766 59.7285,71.072266 59.7285,68.63086 C59.7285,67.80078 59.582,67.06836 59.1914,65.99414 L36.291,5.0566 C35.168,2.0293 33.166,0.5645 30.041,0.5645 C27.0137,0.5645 24.9629,2.0293 23.8887,5.0078 L0.9883,66.04297 C0.5977,67.11719 0.4512,67.84961 0.4512,68.67969 C0.4512,71.121094 2.0137,72.634766 4.5527,72.634766 Z M18.0293,44.3145 L29.8945,11.4531 L30.1387,11.4531 L42.0039,44.3145 L18.0293,44.3145 Z M86.6328,73.12305 C94.152,73.12305 101.184,69.02148 104.211,62.67383 L104.406,62.67383 L104.406,69.11914 C104.406,71.560547 106.066,73.17188 108.361,73.17188 C110.705,73.17188 112.365,71.560547 112.365,68.92383 L112.365,36.3555 C112.365,25.7109 104.553,18.8262 92.15,18.8262 C82.9707,18.8262 75.3047,22.8789 72.5215,29.1777 C71.9844,30.3984 71.5938,31.5703 71.5938,32.5957 C71.5938,34.7441 73.2051,36.1602 75.3047,36.1602 C76.8184,36.1602 77.9902,35.5742 78.7227,34.207 C81.457,28.543 85.6074,25.9062 91.955,25.9062 C99.572,25.9062 104.113,30.1543 104.113,36.9902 L104.113,41.1895 L88.342,42.0684 C75.9883,42.752 69.1035,48.4648 69.1035,57.5469 C69.1035,66.87305 76.2812,73.12305 86.6328,73.12305 Z M88.635,66.33594 C82.043,66.33594 77.5508,62.72266 77.5508,57.3516 C77.5508,52.1758 81.7012,48.709 89.367,48.2207 L104.113,47.293 L104.113,52.4688 C104.113,60.2324 97.229,66.33594 88.635,66.33594 Z" id="Shape"></path>
                </g>
            </g>
        </g>
    </g>
</svg>