<?xml version="1.0" encoding="UTF-8"?>
<svg width="75px" height="71px" viewBox="0 0 75 71" version="1.1" xmlns="http://www.w3.org/2000/svg" xmlns:xlink="http://www.w3.org/1999/xlink">
    <title>Path</title>
    <g id="Page-1" stroke="none" stroke-width="1" fill="none" fill-rule="evenodd">
        <g id="checkmark" transform="translate(-2599.000000, -626.000000)" fill="#000000" fill-rule="nonzero">
            <g id="Symbols" transform="translate(510.000000, 625.000000)">
                <g id="Heavy-S" transform="translate(2088.960000, 1.000000)">
                    <path d="M30.1602,70.146484 C33.4316,70.146484 35.9707,68.97461 37.7285,66.38672 L72.9336,13.5547 C74.1543,11.6992 74.6914,9.8926 74.6914,8.2324 C74.6914,3.5938 71.0781,0.1758 66.3418,0.1758 C63.1191,0.1758 61.0684,1.2988 59.1152,4.4238 L30.0137,50.0781 L15.4141,32.7441 C13.7051,30.7422 11.7031,29.8145 9.0176,29.8145 C4.2812,29.8145 0.76562,33.2812 0.76562,37.9199 C0.76562,40.0195 1.3516,41.7285 3.1582,43.7793 L22.8848,66.875 C24.8379,69.169922 27.1816,70.146484 30.1602,70.146484 Z" id="Path"></path>
                </g>
            </g>
        </g>
    </g>
</svg>