<?xml version="1.0" encoding="UTF-8"?>
<svg width="8px" height="13px" viewBox="0 0 8 13" version="1.1" xmlns="http://www.w3.org/2000/svg" xmlns:xlink="http://www.w3.org/1999/xlink">
    <title>Group</title>
    <g id="Page-1" stroke="none" stroke-width="1" fill="none" fill-rule="evenodd">
        <g id="Artboard" transform="translate(-753.000000, -294.000000)" fill="#FFFFFF" fill-rule="nonzero">
            <g id="Group" transform="translate(753.000000, 294.521973)">
                <path d="M6.63557081,4.94126986 C7.0498996,4.94126986 7.39394047,4.59352962 7.39394047,4.1718021 C7.39394047,3.96093834 7.32735191,3.79076759 7.17937735,3.64649239 L7.17937735,3.64649239 L4.54173066,0.93855778 C4.33456626,0.735092748 4.14219933,0.646308007 3.89064256,0.642608643 C3.64648452,0.642608643 3.45041822,0.731393384 3.24325382,0.93855778 L3.24325382,0.93855778 L0.601907771,3.64649239 C0.457632567,3.79446695 0.387344647,3.96463771 0.387344647,4.1718021 C0.387344647,4.59352962 0.731385519,4.94126986 1.14571431,4.94126986 C1.36027744,4.94126986 1.55634374,4.85248512 1.7154164,4.68601373 L1.7154164,4.68601373 L3.89804129,2.42200283 L6.06956808,4.68601373 C6.22864074,4.85618448 6.42470705,4.94126986 6.63557081,4.94126986 Z" id="􀆇"></path>
                <path d="M3.89064256,11.358103 C4.14219933,11.3544037 4.33456626,11.2656189 4.54173066,11.0621539 L7.17937735,8.35421927 C7.32735191,8.2062447 7.39394047,8.03977331 7.39394047,7.82890955 C7.39394047,7.40718203 7.0498996,7.0594418 6.63557081,7.0594418 C6.42470705,7.0594418 6.22864074,7.14452717 6.06956808,7.31099856 L3.89804129,9.57870883 L1.7154164,7.31099856 C1.55634374,7.14822654 1.36027744,7.0594418 1.14571431,7.0594418 C0.731385519,7.0594418 0.387344647,7.40718203 0.387344647,7.82890955 C0.387344647,8.03607395 0.457632567,8.20254534 0.601907771,8.35421927 L3.24325382,11.0621539 C3.45041822,11.2693183 3.64648452,11.358103 3.89064256,11.358103 Z" id="􀆈"></path>
            </g>
        </g>
    </g>
</svg>