<?xml version="1.0" encoding="UTF-8"?>
<svg width="16px" height="23px" viewBox="0 0 16 23" version="1.1" xmlns="http://www.w3.org/2000/svg" xmlns:xlink="http://www.w3.org/1999/xlink">
    <title>Slice</title>
    <g id="Page-1" stroke="none" stroke-width="1" fill="none" fill-rule="evenodd">
        <g id="Artboard" transform="translate(-821.000000, -283.000000)" fill="#FFFFFF" fill-rule="nonzero">
            <path d="M829.299316,305.318848 C829.65625,305.318848 829.963379,305.177734 830.237305,304.903809 L836.45459,298.528809 C836.67041,298.312988 836.786621,298.047363 836.786621,297.731934 C836.786621,297.084473 836.271973,296.569824 835.632812,296.569824 C835.317383,296.569824 835.018555,296.694336 834.786133,296.926758 L829.307617,302.571289 L823.820801,296.926758 C823.588379,296.702637 823.297852,296.569824 822.974121,296.569824 C822.334961,296.569824 821.820312,297.084473 821.820312,297.731934 C821.820312,298.047363 821.936523,298.312988 822.152344,298.537109 L828.369629,304.903809 C828.660156,305.186035 828.950684,305.318848 829.299316,305.318848 Z" id="􀆈"></path>
            <path d="M835.632812,292.279297 C836.271973,292.279297 836.786621,291.756348 836.786621,291.117188 C836.786621,290.793457 836.67041,290.527832 836.45459,290.312012 L836.45459,290.312012 L830.237305,283.945312 C829.963379,283.663086 829.65625,283.521973 829.299316,283.521973 C828.950684,283.521973 828.651855,283.654785 828.369629,283.937012 L828.369629,283.937012 L822.152344,290.312012 C821.936523,290.527832 821.820312,290.801758 821.820312,291.117188 C821.820312,291.756348 822.334961,292.279297 822.974121,292.279297 C823.297852,292.279297 823.588379,292.146484 823.820801,291.914062 L823.820801,291.914062 L829.307617,286.269531 L834.786133,291.914062 C835.010254,292.154785 835.317383,292.279297 835.632812,292.279297 Z" id="􀆇"></path>
        </g>
    </g>
</svg>