<?xml version="1.0" encoding="UTF-8"?>
<svg width="80px" height="98px" viewBox="0 0 80 98" version="1.1" xmlns="http://www.w3.org/2000/svg" xmlns:xlink="http://www.w3.org/1999/xlink">
    <title>Shape</title>
    <g id="Page-1" stroke="none" stroke-width="1" fill="none" fill-rule="evenodd">
        <g id="doc.on.doc" transform="translate(-1410.000000, -612.000000)" fill="#000000" fill-rule="nonzero">
            <g id="Symbols" transform="translate(497.000000, 609.000000)">
                <g id="Regular-S" transform="translate(912.700000, 3.000000)">
                    <path d="M0.76562,84.683594 C0.76562,93.0332 4.8184,97.1348 13.0215,97.1348 L48.666,97.1348 C56.8691,97.1348 60.9707,92.98438 60.9707,84.683594 L60.9707,77.70117 L67.2207,77.70117 C75.4238,77.70117 79.5254,73.5508 79.5254,65.25 L79.5254,35.0742 C79.5254,29.752 78.4512,26.3828 75.3262,23.1602 L57.0156,4.459 C54.0371,1.3828 50.4727,0.2598 45.834,0.2598 L31.5762,0.2598 C23.373,0.2598 19.3203,4.4102 19.3203,12.7109 L19.3203,19.6934 L13.0215,19.6934 C4.8184,19.6934 0.76562,23.8438 0.76562,32.1445 L0.76562,84.683594 Z M57.0156,44.3516 L36.752,23.6484 C33.627,20.377 30.9414,19.6934 26.3516,19.6934 L26.3516,12.8086 C26.3516,9.293 28.2559,7.291 31.9668,7.291 L48.5684,7.291 L48.5684,26.1387 C48.5684,30.7773 50.8633,33.0723 55.4531,33.0723 L72.4453,33.0723 L72.4453,65.1523 C72.4453,68.668 70.541,70.6699 66.8789,70.6699 L60.9707,70.6699 L60.9707,55.5332 C60.9707,50.1133 60.3848,47.8184 57.0156,44.3516 Z M54.8672,25.0645 L54.8672,10.5137 L70.7363,26.7734 L56.5762,26.7734 C55.3555,26.7734 54.8672,26.2852 54.8672,25.0645 Z M7.7969,84.585938 L7.7969,32.2422 C7.7969,28.7266 9.7012,26.7246 13.4121,26.7246 L25.082,26.7246 L25.082,48.4043 C25.082,53.5312 27.6699,56.0703 32.748,56.0703 L53.8906,56.0703 L53.8906,84.585938 C53.8906,88.10156 51.9863,90.10352 48.3242,90.10352 L13.3633,90.10352 C9.7012,90.10352 7.7969,88.10156 7.7969,84.585938 Z M33.5781,49.5273 C32.2109,49.5273 31.625,48.9414 31.625,47.5742 L31.625,28.0918 L52.5723,49.5273 L33.5781,49.5273 Z" id="Shape"></path>
                </g>
            </g>
        </g>
    </g>
</svg>