<?xml version="1.0" encoding="UTF-8"?>
<svg width="66px" height="83px" viewBox="0 0 66 83" version="1.1" xmlns="http://www.w3.org/2000/svg" xmlns:xlink="http://www.w3.org/1999/xlink">
    <title>Shape</title>
    <g id="Page-1" stroke="none" stroke-width="1" fill="none" fill-rule="evenodd">
        <g id="doc.text" transform="translate(-1417.000000, -619.000000)" fill="#000000" fill-rule="nonzero">
            <g id="Symbols" transform="translate(509.000000, 617.000000)">
                <g id="Regular-S" transform="translate(907.560000, 2.000000)">
                    <path d="M13.0215,82.9082 L53.5,82.9082 C61.7031,82.9082 65.8047,78.75781 65.8047,70.45703 L65.8047,36.4238 C65.8047,31.0527 65.2188,28.709 61.8496,25.2422 L41.5859,4.5391 C38.4121,1.2676 35.7754,0.584 31.0879,0.584 L13.0215,0.584 C4.8184,0.584 0.76562,4.7344 0.76562,13.0352 L0.76562,70.45703 C0.76562,78.80664 4.8184,82.9082 13.0215,82.9082 Z M13.3633,75.87695 C9.7012,75.87695 7.7969,73.875 7.7969,70.35938 L7.7969,13.1328 C7.7969,9.6172 9.7012,7.6152 13.4121,7.6152 L29.8672,7.6152 L29.8672,29.3438 C29.8672,34.4219 32.4551,37.0098 37.5332,37.0098 L58.7246,37.0098 L58.7246,70.35938 C58.7246,73.875 56.8203,75.87695 53.1582,75.87695 L13.3633,75.87695 Z M38.3633,30.418 C36.9961,30.418 36.4102,29.832 36.4102,28.4648 L36.4102,8.9336 L57.4062,30.418 L38.3633,30.418 Z M46.9082,46.6289 L18.5391,46.6289 C16.9766,46.6289 15.8047,47.752 15.8047,49.2168 C15.8047,50.7305 16.9766,51.9023 18.5391,51.9023 L46.9082,51.9023 C48.4219,51.9023 49.5449,50.7305 49.5449,49.2168 C49.5449,47.752 48.4219,46.6289 46.9082,46.6289 Z M46.9082,59.9102 L18.5391,59.9102 C16.9766,59.9102 15.8047,61.082 15.8047,62.5957 C15.8047,64.0605 16.9766,65.1836 18.5391,65.1836 L46.9082,65.1836 C48.4219,65.1836 49.5449,64.0605 49.5449,62.5957 C49.5449,61.082 48.4219,59.9102 46.9082,59.9102 Z" id="Shape"></path>
                </g>
            </g>
        </g>
    </g>
</svg>