<?xml version="1.0" encoding="UTF-8"?>
<svg width="80px" height="98px" viewBox="0 0 80 98" version="1.1" xmlns="http://www.w3.org/2000/svg" xmlns:xlink="http://www.w3.org/1999/xlink">
    <title>Shape</title>
    <g id="Page-1" stroke="none" stroke-width="1" fill="none" fill-rule="evenodd">
        <g id="doc.on.doc.fill" transform="translate(-1410.000000, -612.000000)" fill="#000000" fill-rule="nonzero">
            <g id="Symbols" transform="translate(497.000000, 609.000000)">
                <g id="Regular-S" transform="translate(912.700000, 3.000000)">
                    <path d="M66.6348,77.70117 L67.2207,77.70117 C75.375,77.70117 79.5254,73.5508 79.5254,65.25 L79.5254,29.2148 L58.8223,29.2148 C54.7207,29.2148 52.4258,26.8711 52.4258,22.8184 L52.4258,0.2598 L31.5762,0.2598 C23.5195,0.2598 19.3203,4.4102 19.3203,12.3691 L19.3203,13.9805 L24.7402,13.9805 C30.5508,13.9805 35.3848,15.3477 39.9746,19.9863 L61.2148,41.1777 C65.8047,45.8164 66.6348,50.8457 66.6348,56.4609 L66.6348,77.70117 Z M59.7012,23.9902 L79.2324,23.9902 C78.9883,22.6719 78.1094,21.5 76.5957,19.9863 L61.6055,4.6055 C60.1406,3.0918 58.9199,2.2129 57.6016,2.0176 L57.6504,21.8906 C57.6504,23.4043 58.1875,23.9902 59.7012,23.9902 Z M13.0215,97.1348 L48.666,97.1348 C56.8691,97.1348 60.9707,92.98438 60.9707,84.683594 L60.9707,55.2891 L34.0176,55.2891 C28.8418,55.2891 26.4492,52.8477 26.4492,47.6719 L26.4492,19.6934 L13.0215,19.6934 C4.8184,19.6934 0.76562,23.8438 0.76562,32.1445 L0.76562,84.683594 C0.76562,93.0332 4.8184,97.1348 13.0215,97.1348 Z M33.9199,49.5762 L60.3359,49.5762 C59.8965,47.916 58.9688,46.3535 57.0156,44.3516 L37.3379,24.1855 C35.3848,22.2324 33.7734,20.9629 32.1133,20.5234 L32.1133,47.7695 C32.1133,48.9414 32.748,49.5762 33.9199,49.5762 Z" id="Shape"></path>
                </g>
            </g>
        </g>
    </g>
</svg>