<?xml version="1.0" encoding="UTF-8"?>
<svg width="92px" height="72px" viewBox="0 0 92 72" version="1.1" xmlns="http://www.w3.org/2000/svg" xmlns:xlink="http://www.w3.org/1999/xlink">
    <title>Shape</title>
    <g id="Page-1" stroke="none" stroke-width="1" fill="none" fill-rule="evenodd">
        <g id="photo.fill" transform="translate(-1404.000000, -625.000000)" fill="#000000" fill-rule="nonzero">
            <g id="Symbols" transform="translate(487.000000, 622.000000)">
                <g id="Regular-S" transform="translate(916.790000, 3.000000)">
                    <path d="M13.2168,71.390625 L78.8906,71.390625 C87.2402,71.390625 91.342,67.28906 91.342,59.0859 L91.342,12.5039 C91.342,4.3008 87.2402,0.1992 78.8906,0.1992 L13.2168,0.1992 C4.916,0.1992 0.76562,4.3008 0.76562,12.5039 L0.76562,59.0859 C0.76562,67.28906 4.916,71.390625 13.2168,71.390625 Z M30.1602,36.8691 C24.8867,36.8691 20.5898,32.5723 20.5898,27.3477 C20.5898,22.123 24.8867,17.7773 30.1602,17.7773 C35.3359,17.7773 39.6328,22.123 39.6328,27.3477 C39.6328,32.5723 35.3359,36.8691 30.1602,36.8691 Z M13.4121,64.31055 C9.8965,64.31055 7.7969,62.25977 7.7969,58.6953 L7.7969,56.2051 L18.9297,46.3906 C20.5898,44.9258 22.3965,44.1934 24.1055,44.1934 C25.9609,44.1934 27.9141,44.9258 29.623,46.4395 L36.9961,53.0801 L55.209,36.8203 C57.0645,35.1602 59.1152,34.4277 61.3125,34.4277 C63.3633,34.4277 65.5117,35.209 67.2695,36.8691 L84.3105,52.8359 L84.3105,58.793 C84.3105,62.25977 82.1621,64.31055 78.793,64.31055 L13.4121,64.31055 Z" id="Shape"></path>
                </g>
            </g>
        </g>
    </g>
</svg>