<?xml version="1.0" encoding="UTF-8"?>
<svg width="92px" height="72px" viewBox="0 0 92 72" version="1.1" xmlns="http://www.w3.org/2000/svg" xmlns:xlink="http://www.w3.org/1999/xlink">
    <title>Shape</title>
    <g id="Page-1" stroke="none" stroke-width="1" fill="none" fill-rule="evenodd">
        <g id="play.rectangle" transform="translate(-1404.000000, -625.000000)" fill="#000000" fill-rule="nonzero">
            <g id="Symbols" transform="translate(487.000000, 622.000000)">
                <g id="Regular-S" transform="translate(916.790000, 3.000000)">
                    <path d="M13.2168,71.390625 L78.8906,71.390625 C87.2402,71.390625 91.342,67.28906 91.342,59.0859 L91.342,12.5039 C91.342,4.3008 87.2402,0.1992 78.8906,0.1992 L13.2168,0.1992 C4.916,0.1992 0.76562,4.3008 0.76562,12.5039 L0.76562,59.0859 C0.76562,67.28906 4.916,71.390625 13.2168,71.390625 Z M13.3145,64.31055 C9.7988,64.31055 7.7969,62.45508 7.7969,58.7441 L7.7969,12.8457 C7.7969,9.1836 9.7988,7.2793 13.3145,7.2793 L78.793,7.2793 C82.3086,7.2793 84.3105,9.1836 84.3105,12.8457 L84.3105,58.7441 C84.3105,62.45508 82.3086,64.31055 78.793,64.31055 L13.3145,64.31055 Z M60.7754,37.8945 C62.4355,36.9668 62.3867,34.5742 60.7754,33.6465 L38.998,20.8535 C37.2891,19.8281 34.9453,20.6094 34.9453,22.5625 L34.9453,48.9785 C34.9453,50.9316 37.0938,51.8594 38.998,50.6875 L60.7754,37.8945 Z" id="Shape"></path>
                </g>
            </g>
        </g>
    </g>
</svg>