<?xml version="1.0" encoding="UTF-8"?>
<svg width="86px" height="81px" viewBox="0 0 86 81" version="1.1" xmlns="http://www.w3.org/2000/svg" xmlns:xlink="http://www.w3.org/1999/xlink">
    <title>Shape</title>
    <g id="Page-1" stroke="none" stroke-width="1" fill="none" fill-rule="evenodd">
        <g id="quote.bubble.fill" transform="translate(-1407.000000, -623.000000)" fill="#000000" fill-rule="nonzero">
            <g id="Symbols" transform="translate(493.000000, 618.000000)">
                <g id="Regular-S" transform="translate(913.530000, 5.000000)">
                    <path d="M24.3008,80.66602 C26.0098,80.66602 27.1816,79.78711 29.2324,77.88281 L43.0508,65.08984 L67.5625,65.13867 C79.5742,65.1875 85.873,58.6445 85.873,46.8281 L85.873,18.4102 C85.873,6.5938 79.5742,0.0996 67.5625,0.0996 L19.0762,0.0996 C7.0645,0.0996 0.76562,6.5938 0.76562,18.4102 L0.76562,46.8281 C0.76562,58.6445 7.0645,65.08984 19.0762,65.08984 L20.4434,65.08984 L20.4434,76.27148 C20.4434,78.9082 21.8594,80.66602 24.3008,80.66602 Z M24.252,28.4199 C24.252,23.6348 27.9141,20.3633 32.6504,20.3633 C37.875,20.3633 41.2441,24.5625 41.2441,29.8359 C41.2441,39.8945 33.334,44.7285 29.1836,44.7285 C28.0117,44.7285 27.1328,43.8984 27.1328,42.8242 C27.1328,41.8477 27.5723,41.1641 29.1348,40.7734 C31.8203,40.041 34.6035,38.0391 36.0684,35.0117 L35.7754,35.0117 C34.75,36.2324 33.1387,36.4277 31.5762,36.4277 C27.0352,36.4277 24.252,32.8633 24.252,28.4199 Z M45.4434,28.4199 C45.4434,23.6348 49.0078,20.3633 53.7441,20.3633 C58.9688,20.3633 62.3867,24.5625 62.3867,29.8359 C62.3867,39.8945 54.4766,44.7285 50.3262,44.7285 C49.1543,44.7285 48.2754,43.8984 48.2754,42.8242 C48.2754,41.8477 48.7148,41.1641 50.2773,40.7734 C52.9629,40.041 55.7461,38.0391 57.2109,35.0117 L56.918,35.0117 C55.8926,36.2324 54.2812,36.4277 52.6699,36.4277 C48.1777,36.4277 45.4434,32.8633 45.4434,28.4199 Z" id="Shape"></path>
                </g>
            </g>
        </g>
    </g>
</svg>