<?xml version="1.0" encoding="UTF-8"?>
<svg width="87px" height="87px" viewBox="0 0 87 87" version="1.1" xmlns="http://www.w3.org/2000/svg" xmlns:xlink="http://www.w3.org/1999/xlink">
    <title>Shape</title>
    <g id="Page-1" stroke="none" stroke-width="1" fill="none" fill-rule="evenodd">
        <g id="tag" transform="translate(-1406.000000, -619.000000)" fill="#000000" fill-rule="nonzero">
            <g id="Symbols" transform="translate(491.000000, 617.000000)">
                <g id="Regular-S" transform="translate(914.990000, 2.000000)">
                    <path d="M46.541,82.32227 L83.6992,45.1152 C86.7266,42.0879 86.9219,40.2812 86.9219,36.2773 L86.9219,21.7266 C86.9219,17.4297 85.7988,16.1113 82.8691,13.2305 L74.1777,4.4902 C71.2969,1.6094 69.9297,0.4863 65.6816,0.4863 L51.1309,0.4863 C47.127,0.4863 45.3203,0.6328 42.293,3.6602 L5.0859,40.8672 C-0.57812,46.5312 -0.72461,52.3906 5.1348,58.1523 L29.2559,82.27344 C35.1152,88.084 40.877,88.0352 46.541,82.32227 Z M41.8047,77.0488281 C39.3145,79.58789 36.5801,79.63672 33.9434,77 L10.3594,53.416 C7.7715,50.8281 7.8203,48.0938 10.3105,45.5547 L47.2734,8.6406 C47.957,8.0059 48.5918,7.5176 49.8125,7.5176 L65.9258,7.5176 C67.0488,7.5176 67.6836,7.957 68.416,8.6406 L78.7188,18.9922 C79.4512,19.6758 79.8418,20.3594 79.8418,21.4824 L79.8418,37.5957 C79.8418,38.7676 79.4023,39.4512 78.7188,40.1348 L41.8047,77.0488281 Z M61.0918,31.8828 C64.3145,31.8828 66.707,29.3926 66.707,26.2676 C66.707,23.1914 64.3145,20.7012 61.0918,20.7012 C57.918,20.7012 55.5254,23.1914 55.5254,26.2676 C55.5254,29.3926 57.918,31.8828 61.0918,31.8828 Z" id="Shape"></path>
                </g>
            </g>
        </g>
    </g>
</svg>