<?xml version="1.0" encoding="UTF-8"?>
<svg width="8px" height="11px" viewBox="0 0 8 11" version="1.1" xmlns="http://www.w3.org/2000/svg" xmlns:xlink="http://www.w3.org/1999/xlink">
    <title>Shape</title>
    <g id="Page-1" stroke="none" stroke-width="1" fill="none" fill-rule="evenodd">
        <g id="chevron.up.down" transform="translate(0.386865, 0.165000)" fill="#000000" fill-rule="nonzero">
            <path d="M6.24913543,4.298 C6.66993014,4.29198063 7.00772573,3.94883734 7.00713543,3.528 C7.01379362,3.33031532 6.93553983,3.13923048 6.79213543,3.003 L4.15513543,0.296 C3.94813543,0.092 3.75513543,0.003 3.50413543,0 C3.25913543,0 3.06413543,0.088 2.85613543,0.296 L0.215135431,3.003 C0.0740837191,3.1412393 -0.00370024197,3.33153867 0.000135430624,3.529 C0.000135430624,3.951 0.344135431,4.299 0.759135431,4.299 C0.973135431,4.299 1.16913543,4.209 1.32913543,4.043 L3.51113543,1.779 L5.68313543,4.043 C5.84213543,4.213 6.03813543,4.298 6.24913543,4.298 Z M3.50313543,10.715 C3.75513543,10.711 3.94813543,10.623 4.15513543,10.419 L6.79213543,7.711 C6.93489533,7.57432963 7.01302571,7.38354615 7.00713543,7.186 C7.00772573,6.76516266 6.66993014,6.42201937 6.24913543,6.416 C6.03350622,6.41704285 5.82819426,6.50845383 5.68313543,6.668 L3.51113543,8.936 L1.32813543,6.668 C1.1809068,6.5091437 0.974717169,6.41798618 0.758135431,6.416 C0.337340726,6.42201937 -0.000454873299,6.76516266 0.000134658129,7.186 C0.000134658129,7.393 0.0701354306,7.56 0.215135431,7.711 L2.85613543,10.419 C3.06313543,10.626 3.25913543,10.715 3.50413543,10.715 L3.50313543,10.715 Z" id="Shape"></path>
        </g>
    </g>
</svg>