<?xml version="1.0" encoding="UTF-8"?>
<svg width="82px" height="105px" viewBox="0 0 82 105" version="1.1" xmlns="http://www.w3.org/2000/svg" xmlns:xlink="http://www.w3.org/1999/xlink">
    <title>doc.xml</title>
    <g id="doc.xml" stroke="none" stroke-width="1" fill="none" fill-rule="evenodd">
        <path d="M15.1367,104.6875 L66.9922,104.6875 C77.0996,104.6875 82.1289,99.5606 82.1289,89.40434 L82.1289,45.0684 C82.1289,38.7696 81.3965,36.0352 77.4902,32.0313 L50.5859,4.6387 C46.875,0.8301 43.7988,0 38.33,0 L15.1367,0 C5.0781,0 0,5.1758 0,15.3321 L0,89.40434 C0,99.6094 5.0293,104.6875 15.1367,104.6875 Z M15.4785,96.82622 C10.4492,96.82622 7.8613,94.14067 7.8613,89.25786 L7.8613,15.4786 C7.8613,10.6446 10.4492,7.8614 15.5273,7.8614 L37.2558,7.8614 L37.2558,36.2305 C37.2558,42.3829 40.332,45.4102 46.4355,45.4102 L74.2676,45.4102 L74.2676,89.25786 C74.2676,94.14067 71.6797,96.82622 66.6015,96.82622 L15.4785,96.82622 Z M47.3144,38.0372 C45.3613,38.0372 44.6289,37.2559 44.6289,35.3028 L44.6289,9.375 L72.7539,38.0372 L47.3144,38.0372 Z" id="doc-medium-regular" fill="#000000" fill-rule="nonzero"></path>
        <g id="XML" transform="translate(17.778230, 56.022036)" fill="#000000" fill-rule="nonzero">
            <path d="M27.5,14.9897114 C27.5,15.8545098 27.8088529,16.5545545 28.529514,17.2546414 L40.6365896,29.2175713 C41.1719229,29.7323266 41.8102324,30 42.5514761,30 C44.0957408,30 45.3517394,28.7439943 45.3517394,27.2203164 C45.3517394,26.4584775 45.0223165,25.7584074 44.4663626,25.1818752 L34.0270895,14.969133 L44.4663626,4.79754766 C45.0428949,4.22101543 45.3517394,3.52092854 45.3517394,2.75910647 C45.3517394,1.23542018 44.0957408,2.84217094e-13 42.5514761,2.84217094e-13 C41.7896119,2.84217094e-13 41.1719229,0.247109337 40.6365896,0.78244262 L28.529514,12.7247815 C27.8088529,13.4248684 27.520591,14.1249131 27.5,14.9897114 Z" id="Path" transform="translate(36.425870, 15.000000) rotate(-180.000000) translate(-36.425870, -15.000000) "></path>
            <path d="M0,14.9897114 C0,15.8545098 0.308852937,16.5545545 1.02951401,17.2546414 L13.1365896,29.2175713 C13.6719229,29.7323266 14.3102324,30 15.0514761,30 C16.5957408,30 17.8517394,28.7439943 17.8517394,27.2203164 C17.8517394,26.4584775 17.5223165,25.7584074 16.9663626,25.1818752 L6.52708953,14.969133 L16.9663626,4.79754766 C17.5428949,4.22101543 17.8517394,3.52092854 17.8517394,2.75910647 C17.8517394,1.23542018 16.5957408,-5.68434189e-14 15.0514761,-5.68434189e-14 C14.2896119,-5.68434189e-14 13.6719229,0.247109337 13.1365896,0.78244262 L1.02951401,12.7247815 C0.308852937,13.4248684 0.0205910391,14.1249131 0,14.9897114 Z" id="Path"></path>
        </g>
    </g>
</svg>