<?xml version="1.0" encoding="UTF-8"?>
<svg width="156px" height="121px" viewBox="0 0 156 121" version="1.1" xmlns="http://www.w3.org/2000/svg" xmlns:xlink="http://www.w3.org/1999/xlink">
    <title>Artboard</title>
    <g id="Artboard" stroke="none" stroke-width="1" fill="none" fill-rule="evenodd">
        <g id="Icon" transform="translate(18.000000, 14.000000)" fill="#000000" fill-rule="nonzero">
            <path d="M99.8048,0 C110.0588,0 115.1368,5.0782 115.1368,15.1368 L115.1368,15.1368 L115.136,21.979 L107.275,29.84 L107.2758,15.5274 C107.2758,10.5488706 104.647003,7.96384368 99.9887272,7.86438415 L99.7068,7.8614 L15.4297,7.8614 C10.5468,7.8614 7.8613,10.4493 7.8613,15.5274 L7.8613,15.5274 L7.8613,69.3848 L22.4121,56.25 C24.4629,54.4434 26.5136,53.5157 28.7109,53.5157 C31.0058,53.5157 33.2519,54.4922 35.3027,56.2989 L35.3027,56.2989 L44.3359,64.502 L66.4062,44.7754 C68.6523,42.7735 71.0449,41.8458 73.7304,41.8458 C76.3672,41.8458 78.9062,42.8711 81.1035,44.8243 L81.1035,44.8243 L86.869,50.246 L47.222,89.892 L15.332,89.89262 C5.25446375,89.89262 0.128965969,84.9882764 0.00240313926,75.132558 L0,74.75591 L0,15.1368 C0,5.0293 5.1269,0 15.332,0 L15.332,0 Z M115.136,46.753 L115.1368,74.75591 C115.1368,84.8145 110.0588,89.89262 99.8048,89.89262 L99.8048,89.89262 L71.997,89.892 L99.637,62.252 L107.2758,69.4336 L107.275,54.614 L115.136,46.753 Z" id="Combined-Shape"></path>
            <path d="M36.3769,45.3614 C42.6758,45.3614 47.8515,40.1856 47.8515,33.8379 C47.8515,27.5391 42.6758,22.3145 36.3769,22.3145 C30.0293,22.3145 24.8535,27.5391 24.8535,33.8379 C24.8535,40.1856 30.0293,45.3614 36.3769,45.3614 Z" id="Shape-path"></path>
            <path d="M130.25212,19.250612 C131.720244,20.7187358 131.720244,23.0990349 130.25212,24.5671587 L51.3960053,103.423274 C49.9278814,104.891398 47.5475824,104.891398 46.0794585,103.423274 C44.6113347,101.95515 44.6113347,99.5748509 46.0794585,98.1067271 L124.935574,19.250612 C126.403697,17.7824881 128.783997,17.7824881 130.25212,19.250612 Z" id="Rectangle"></path>
        </g>
    </g>
</svg>