<svg width="66" height="83" xmlns="http://www.w3.org/2000/svg"><path d="M12.581 82.908H53.06c8.203 0 12.305-4.15 12.305-12.451V36.424c0-5.371-.586-7.715-3.955-11.182L41.146 4.54C37.972 1.268 35.336.584 30.648.584H12.58C4.378.584.326 4.734.326 13.035v57.422c0 8.35 4.052 12.451 12.255 12.451Zm.342-7.031c-3.662 0-5.566-2.002-5.566-5.518V13.133c0-3.516 1.904-5.518 5.615-5.518h16.455v21.729c0 5.078 2.588 7.666 7.666 7.666h21.192v33.35c0 3.515-1.905 5.517-5.567 5.517H12.923Zm25-45.459c-1.367 0-1.953-.586-1.953-1.953V8.934l20.996 21.484H37.923Zm8.545 16.21H18.1c-1.562 0-2.734 1.124-2.734 2.589 0 1.514 1.172 2.685 2.734 2.685h28.37c1.513 0 2.636-1.172 2.636-2.685 0-1.465-1.123-2.588-2.637-2.588Zm0 13.282H18.1c-1.562 0-2.734 1.172-2.734 2.686 0 1.465 1.172 2.588 2.734 2.588h28.37c1.513 0 2.636-1.123 2.636-2.588 0-1.514-1.123-2.686-2.637-2.686Z" fill="#000" fill-rule="nonzero"/></svg>