<svg width="73" height="74" xmlns="http://www.w3.org/2000/svg"><path d="M30.477 59.793c6.298 0 12.109-2.002 16.943-5.322l17.334 17.334c.928.927 2.148 1.367 3.418 1.367 2.734 0 4.736-2.1 4.736-4.785 0-1.27-.44-2.54-1.367-3.418L54.353 47.732c3.663-4.98 5.811-11.084 5.811-17.675 0-16.358-13.33-29.688-29.687-29.688C14.168.37.789 13.65.789 30.057c0 16.357 13.33 29.736 29.688 29.736Zm0-7.275c-12.256 0-22.413-10.157-22.413-22.461 0-12.256 10.157-22.412 22.413-22.412 12.304 0 22.412 10.156 22.412 22.412 0 12.304-10.108 22.46-22.412 22.46Z" fill="#000" fill-rule="nonzero"/></svg>