<svg width="92" height="72" xmlns="http://www.w3.org/2000/svg"><path d="M13.007 71.39H78.68c8.35 0 12.451-4.1 12.451-12.304V12.504C91.132 4.3 87.03.199 78.681.199H13.007C4.706.2.556 4.301.556 12.504v46.582c0 8.203 4.15 12.305 12.45 12.305ZM29.95 36.87c-5.273 0-9.57-4.298-9.57-9.522 0-5.225 4.297-9.57 9.57-9.57 5.176 0 9.473 4.345 9.473 9.57 0 5.224-4.297 9.521-9.473 9.521ZM13.202 64.31c-3.516 0-5.615-2.05-5.615-5.615v-2.49l11.133-9.814c1.66-1.465 3.466-2.198 5.175-2.198 1.856 0 3.81.733 5.518 2.247l7.373 6.64L55 36.82c1.855-1.66 3.906-2.392 6.103-2.392 2.051 0 4.2.781 5.957 2.441L84.1 52.836v5.957c0 3.467-2.148 5.518-5.517 5.518h-65.38Z" fill="#000" fill-rule="nonzero"/></svg>