<svg width="86" height="81" xmlns="http://www.w3.org/2000/svg"><path d="M24.807 80.373c2.149 0 3.614-1.123 6.25-3.516L44.143 65.14h22.95c12.011 0 18.31-6.494 18.31-18.31V18.41C85.403 6.594 79.104.1 67.093.1H18.605C6.594.1.296 6.594.296 18.41v28.418c0 11.816 6.298 18.31 18.31 18.31h1.416v9.717c0 3.37 1.71 5.518 4.785 5.518Zm1.807-8.008V61.38c0-2.393-.879-3.272-3.272-3.272h-4.736c-7.861 0-11.28-3.76-11.28-11.279V18.41c0-7.47 3.419-11.23 11.28-11.23h48.486c7.862 0 11.28 3.76 11.28 11.23v28.418c0 7.52-3.418 11.28-11.28 11.28h-23.34c-2.343 0-3.564.341-5.126 2.001L26.614 72.365Zm-2.1-43.896c0 4.346 2.637 7.812 6.983 7.812 1.513 0 3.076-.244 4.052-1.416h.293c-1.367 2.979-4.052 4.883-6.64 5.518-1.465.39-1.904 1.074-1.904 2.002 0 1.025.78 1.855 1.953 1.855 4.004 0 11.62-4.687 11.62-14.355 0-5.078-3.27-9.131-8.3-9.131-4.59 0-8.057 3.174-8.057 7.715Zm20.362 0c0 4.346 2.636 7.812 6.982 7.812 1.514 0 3.076-.244 4.053-1.416h.293c-1.416 2.979-4.053 4.883-6.64 5.518-1.515.39-1.905 1.074-1.905 2.002 0 1.025.781 1.855 1.953 1.855 4.004 0 11.621-4.687 11.621-14.355 0-5.078-3.271-9.131-8.3-9.131-4.59 0-8.057 3.174-8.057 7.715Z" fill="#000" fill-rule="nonzero"/></svg>