<svg width="92" height="72" xmlns="http://www.w3.org/2000/svg"><path d="M13.007 71.39H78.68c8.35 0 12.451-4.1 12.451-12.304V12.504C91.132 4.3 87.03.199 78.681.199H13.007C4.706.2.556 4.301.556 12.504v46.582c0 8.203 4.15 12.305 12.45 12.305Zm.097-7.08c-3.515 0-5.517-1.855-5.517-5.566V12.846c0-3.662 2.002-5.567 5.517-5.567h16.993v57.032H13.104ZM78.583 7.28c3.516 0 5.517 1.904 5.517 5.566v45.898c0 3.711-2.001 5.567-5.517 5.567H36.981V7.279h41.602Zm-55.86 14.16c1.319 0 2.442-1.172 2.442-2.442 0-1.27-1.123-2.344-2.441-2.344h-7.666c-1.27 0-2.393 1.075-2.393 2.344 0 1.27 1.123 2.441 2.393 2.441h7.666Zm0 9.765c1.319 0 2.442-1.123 2.442-2.441 0-1.27-1.123-2.344-2.441-2.344h-7.666c-1.27 0-2.393 1.074-2.393 2.344 0 1.318 1.123 2.441 2.393 2.441h7.666Zm0 9.766c1.319 0 2.442-1.123 2.442-2.393 0-1.27-1.123-2.344-2.441-2.344h-7.666c-1.27 0-2.393 1.075-2.393 2.344 0 1.27 1.123 2.393 2.393 2.393h7.666Z" fill="#000" fill-rule="nonzero"/></svg>