<svg width="87" height="87" xmlns="http://www.w3.org/2000/svg"><path d="m46.531 82.322 37.158-37.207c3.028-3.027 3.223-4.834 3.223-8.838v-14.55c0-4.297-1.123-5.616-4.053-8.497l-8.691-8.74C71.287 1.61 69.92.486 65.672.486H51.12c-4.004 0-5.81.147-8.838 3.174L5.076 40.867c-5.664 5.664-5.81 11.524.049 17.285l24.12 24.121c5.86 5.811 11.622 5.762 17.286.05Zm-4.736-5.273c-2.49 2.539-5.225 2.588-7.862-.049L10.35 53.416c-2.587-2.588-2.539-5.322-.048-7.861L47.263 8.64c.684-.635 1.319-1.123 2.54-1.123h16.113c1.123 0 1.758.439 2.49 1.123l10.303 10.351c.732.684 1.123 1.367 1.123 2.49v16.114c0 1.172-.44 1.855-1.123 2.539L41.795 77.049Zm19.287-45.166c3.223 0 5.615-2.49 5.615-5.615 0-3.077-2.392-5.567-5.615-5.567-3.174 0-5.567 2.49-5.567 5.567 0 3.125 2.393 5.615 5.567 5.615Z" fill="#000" fill-rule="nonzero"/></svg>