<?xml version="1.0" encoding="UTF-8"?>
<svg width="74px" height="45px" viewBox="0 0 74 45" version="1.1" xmlns="http://www.w3.org/2000/svg" xmlns:xlink="http://www.w3.org/1999/xlink">
    <title>Path</title>
    <g id="Page-1" stroke="none" stroke-width="1" fill="none" fill-rule="evenodd">
        <g id="chevron.down" transform="translate(-2600.000000, -639.000000)" fill="#000000" fill-rule="nonzero">
            <g id="Symbols" transform="translate(512.000000, 638.000000)">
                <g id="Heavy-S" transform="translate(2087.550000, 1.000000)">
                    <path d="M37.1426,44.9395 C39.7305,44.8906 41.7324,43.9629 43.832,41.8633 L71.2734,13.8848 C72.7871,12.3711 73.5195,10.5645 73.5195,8.416 C73.5195,4.0215 69.9062,0.4082 65.6094,0.4082 C63.4609,0.4082 61.4102,1.3359 59.75,3.0449 L37.1914,26.4336 L14.5352,3.0449 C12.875,1.3359 10.873,0.4082 8.6758,0.4082 C4.3301,0.4082 0.76562,4.0215 0.76562,8.416 C0.76562,10.5645 1.498,12.3223 2.9629,13.8848 L30.4531,41.8633 C32.6016,44.0117 34.6035,44.9395 37.1426,44.9395 Z" id="Path"></path>
                </g>
            </g>
        </g>
    </g>
</svg>