<?xml version="1.0" encoding="UTF-8"?>
<svg width="82px" height="47px" viewBox="0 0 82 47" version="1.1" xmlns="http://www.w3.org/2000/svg" xmlns:xlink="http://www.w3.org/1999/xlink">
    <title>Path</title>
    <g id="Page-1" stroke="none" stroke-width="1" fill="none" fill-rule="evenodd">
        <g id="chevron.down" transform="translate(-1112.000000, -1069.000000)" fill="#000000" fill-rule="nonzero">
            <g id="Symbols" transform="translate(512.128500, 638.138700)">
                <g id="Light-M" transform="translate(600.302700, 431.220700)">
                    <path d="M40.6738,45.9472 C41.6992,45.9472 42.6269,45.5078 43.3593,44.7265 L80.3711,5.7617 C81.0058,5.1269 81.3965,4.3457 81.3965,3.3691 C81.3965,1.4648 79.9316,0 78.0273,0 C77.1484,0 76.2207,0.3418 75.5859,0.9765 L40.7226,37.6953 L5.7617,0.9765 C5.1758,0.3418 4.2968,0 3.3691,0 C1.4648,0 0,1.4648 0,3.3691 C0,4.3457 0.3906,5.1269 1.0254,5.8105 L38.0371,44.7754 C38.8183,45.5078 39.6484,45.9472 40.6738,45.9472 Z" id="Path"></path>
                </g>
            </g>
        </g>
    </g>
</svg>