<?xml version="1.0" encoding="UTF-8"?>
<svg width="72px" height="44px" viewBox="0 0 72 44" version="1.1" xmlns="http://www.w3.org/2000/svg" xmlns:xlink="http://www.w3.org/1999/xlink">
    <title>Path</title>
    <g id="Page-1" stroke="none" stroke-width="1" fill="none" fill-rule="evenodd">
        <g id="chevron.down" transform="translate(-2304.000000, -640.000000)" fill="#000000" fill-rule="nonzero">
            <g id="Symbols" transform="translate(512.000000, 638.000000)">
                <g id="Bold-S" transform="translate(1791.640000, 2.000000)">
                    <path d="M36.3613,43.207 C38.4121,43.207 40.0723,42.4258 41.7324,40.8145 L70.0527,12.0547 C71.3223,10.7852 71.9082,9.2715 71.9082,7.4648 C71.9082,3.8027 68.9785,0.873 65.3652,0.873 C63.5586,0.873 61.8984,1.6055 60.5312,2.9727 L36.3613,27.6797 L12.1914,2.9727 C10.8242,1.6055 9.1641,0.873 7.3086,0.873 C3.6953,0.873 0.76562,3.8027 0.76562,7.4648 C0.76562,9.2715 1.4004,10.7363 2.6211,12.0547 L30.9902,40.8145 C32.6504,42.4746 34.3105,43.207 36.3613,43.207 Z" id="Path"></path>
                </g>
            </g>
        </g>
    </g>
</svg>