<?xml version="1.0" encoding="UTF-8"?>
<svg width="88px" height="71px" viewBox="0 0 88 71" version="1.1" xmlns="http://www.w3.org/2000/svg" xmlns:xlink="http://www.w3.org/1999/xlink">
    <title>Shape</title>
    <g id="Page-1" stroke="none" stroke-width="1" fill="none" fill-rule="evenodd">
        <g id="folder" transform="translate(-1406.000000, -625.000000)" fill="#000000" fill-rule="nonzero">
            <g id="Symbols" transform="translate(491.000000, 621.000000)">
                <g id="Regular-S" transform="translate(914.300000, 4.000000)">
                    <path d="M13.2168,70.9023438 L77.2793,70.9023438 C84.2129,70.9023438 88.3145,66.80078 88.3145,58.5977 L88.3145,19.3398 C88.3145,11.1367 84.1641,7.084 75.8633,7.084 L39.291,7.084 C36.8984,7.084 35.3359,6.4004 33.4805,4.8867 L31.0391,2.9336 C28.5,0.834 26.4004,0.1016 22.6895,0.1016 L11.752,0.1016 C4.8672,0.1016 0.76562,4.1055 0.76562,12.2598 L0.76562,58.5977 C0.76562,66.80078 4.916,70.9023438 13.2168,70.9023438 Z M7.7969,12.6016 C7.7969,8.9883 9.75,7.1328 13.2656,7.1328 L20.834,7.1328 C23.2266,7.1328 24.7891,7.8164 26.6445,9.3301 L29.0859,11.2832 C31.5762,13.334 33.7246,14.1152 37.4355,14.1152 L75.7656,14.1152 C79.2812,14.1152 81.2832,16.0195 81.2832,19.7305 L81.2832,21.4395 L7.7969,21.4395 L7.7969,12.6016 Z M13.3145,63.82227 C9.7988,63.82227 7.7969,61.9668 7.7969,58.2559 L7.7969,28.0312 L81.2832,28.0312 L81.2832,58.3047 C81.2832,61.9668 79.2812,63.82227 75.7656,63.82227 L13.3145,63.82227 Z" id="Shape"></path>
                </g>
            </g>
        </g>
    </g>
</svg>