<?xml version="1.0" encoding="UTF-8"?>
<svg width="84px" height="84px" viewBox="0 0 84 84" version="1.1" xmlns="http://www.w3.org/2000/svg" xmlns:xlink="http://www.w3.org/1999/xlink">
    <title>Shape</title>
    <g id="Page-1" stroke="none" stroke-width="1" fill="none" fill-rule="evenodd">
        <g id="gearshape" transform="translate(-1408.000000, -619.000000)" fill="#000000" fill-rule="nonzero">
            <g id="Symbols" transform="translate(495.000000, 616.000000)">
                <g id="Regular-S" transform="translate(912.680000, 3.000000)">
                    <path d="M38.2871,83.00586 L46.002,83.00586 C49.127,83.00586 51.5684,81.10156 52.3008,78.17188 L53.9121,71.14062 L54.791,70.84766 L60.8457,74.60742 C63.4824,76.21875 66.5586,75.82812 68.7559,73.58203 L74.127,68.25977 C76.3242,66.0625 76.7637,62.9375 75.1035,60.3984 L71.2949,54.2949 L71.5879,53.5625 L78.6191,51.9512 C81.5488,51.2188 83.502,48.7285 83.502,45.6523 L83.502,38.1328 C83.502,35.0566 81.5977,32.5664 78.6191,31.834 L71.6855,30.125 L71.3438,29.3438 L75.1523,23.2402 C76.8125,20.6523 76.373,17.625 74.1758,15.3301 L68.8047,10.0078 C66.6562,7.8105 63.5801,7.4199 60.9434,8.9824 L54.8398,12.6934 L53.9121,12.3516 L52.3008,5.3203 C51.5684,2.3906 49.127,0.4863 46.002,0.4863 L38.2871,0.4863 C35.1621,0.4863 32.7695,2.3906 32.0371,5.3203 L30.4258,12.3516 L29.4492,12.6934 L23.3457,8.9824 C20.7578,7.4199 17.6816,7.8105 15.4844,10.0078 L10.1621,15.3301 C7.9648,17.625 7.5254,20.6523 9.1855,23.2402 L12.9453,29.3438 L12.6035,30.125 L5.6699,31.834 C2.74023,32.5664 0.83594,35.0566 0.83594,38.1328 L0.83594,45.6523 C0.83594,48.7285 2.78906,51.2188 5.6699,51.9512 L12.7012,53.5625 L12.9941,54.2949 L9.2344,60.3984 C7.5742,62.9375 8.0137,66.0625 10.2109,68.25977 L15.5332,73.58203 C17.7305,75.82812 20.8555,76.21875 23.4434,74.60742 L29.5469,70.84766 L30.4258,71.14062 L32.0371,78.17188 C32.7695,81.10156 35.1621,83.00586 38.2871,83.00586 Z M38.9707,76.21875 C38.4824,76.21875 38.2383,76.023438 38.1895,75.58398 L35.7969,66.0137 C33.3066,65.3789 31.0605,64.4512 29.3516,63.2793 L20.9043,68.50391 C20.5625,68.69922 20.2207,68.65039 19.8789,68.35742 L15.4844,63.9141 C15.1426,63.6211 15.1426,63.2793 15.3867,62.8887 L20.5137,54.4902 C19.5859,52.8301 18.5117,50.584 17.877,48.0938 L8.2578,45.75 C7.8184,45.7012 7.623,45.457 7.623,44.9688 L7.623,38.7188 C7.623,38.1816 7.7695,38.0352 8.2578,37.8887 L17.8281,35.5938 C18.4629,32.9082 19.7324,30.5645 20.416,29.0996 L15.3379,20.75 C15.0449,20.3105 15.0449,19.9688 15.3867,19.627 L19.8301,15.2812 C20.1719,14.9883 20.416,14.8906 20.9043,15.1348 L29.2539,20.2129 C30.9629,19.1875 33.4043,18.1621 35.8457,17.4785 L38.1895,7.9082 C38.2383,7.4688 38.4824,7.2734 38.9707,7.2734 L45.3672,7.2734 C45.8555,7.2734 46.0996,7.4688 46.1484,7.9082 L48.4922,17.5762 C51.0312,18.2109 53.2285,19.2363 54.9863,20.2617 L63.4336,15.1348 C63.873,14.8906 64.1172,14.9883 64.5078,15.2812 L68.9512,19.627 C69.2441,19.9688 69.293,20.3105 69,20.75 L63.873,29.0996 C64.6055,30.5645 65.8262,32.9082 66.4609,35.5938 L76.0801,37.8887 C76.5684,38.0352 76.666,38.1816 76.666,38.7188 L76.666,44.9688 C76.666,45.457 76.5195,45.7012 76.0801,45.75 L66.4121,48.0938 C65.8262,50.584 64.752,52.8301 63.7754,54.4902 L68.9512,62.8887 C69.1953,63.2793 69.1953,63.6211 68.8535,63.9141 L64.459,68.35742 C64.0684,68.65039 63.7266,68.69922 63.4336,68.50391 L54.9375,63.2793 C53.2773,64.4512 50.9824,65.3789 48.4922,66.0137 L46.1484,75.58398 C46.0996,76.023438 45.8555,76.21875 45.3672,76.21875 L38.9707,76.21875 Z M42.1445,56.3457 C50.1523,56.3457 56.7441,49.8027 56.7441,41.7461 C56.7441,33.7871 50.1523,27.2441 42.1445,27.2441 C34.1367,27.2441 27.5449,33.7871 27.5449,41.7461 C27.5449,49.7539 34.1367,56.3457 42.1445,56.3457 Z M42.1445,49.6074 C37.8477,49.6074 34.3809,46.0918 34.3809,41.7461 C34.3809,37.498 37.8477,33.9824 42.1445,33.9824 C46.3438,33.9824 49.8594,37.498 49.8594,41.7461 C49.8594,46.043 46.3438,49.6074 42.1445,49.6074 Z" id="Shape"></path>
                </g>
            </g>
        </g>
    </g>
</svg>