<?xml version="1.0" encoding="UTF-8"?>
<svg width="73px" height="74px" viewBox="0 0 73 74" version="1.1" xmlns="http://www.w3.org/2000/svg" xmlns:xlink="http://www.w3.org/1999/xlink">
    <title>Shape</title>
    <g id="Page-1" stroke="none" stroke-width="1" fill="none" fill-rule="evenodd">
        <g id="magnifyingglass" transform="translate(-1413.000000, -624.000000)" fill="#000000" fill-rule="nonzero">
            <g id="Symbols" transform="translate(500.000000, 621.000000)">
                <g id="Regular-S" transform="translate(913.000000, 3.000000)">
                    <path d="M30.4766,59.793 C36.7754,59.793 42.5859,57.791 47.4199,54.4707 L64.7539,71.804688 C65.6816,72.732422 66.9023,73.17188 68.1719,73.17188 C70.9062,73.17188 72.9082,71.072266 72.9082,68.38672 C72.9082,67.11719 72.4688,65.84766 71.541,64.96875 L54.3535,47.7324 C58.0156,42.752 60.1641,36.6484 60.1641,30.0566 C60.1641,13.6992 46.834,0.3691 30.4766,0.3691 C14.168,0.3691 0.78906,13.6504 0.78906,30.0566 C0.78906,46.4141 14.1191,59.793 30.4766,59.793 Z M30.4766,52.5176 C18.2207,52.5176 8.0645,42.3613 8.0645,30.0566 C8.0645,17.8008 18.2207,7.6445 30.4766,7.6445 C42.7812,7.6445 52.8887,17.8008 52.8887,30.0566 C52.8887,42.3613 42.7812,52.5176 30.4766,52.5176 Z" id="Shape"></path>
                </g>
            </g>
        </g>
    </g>
</svg>