<?xml version="1.0" encoding="UTF-8"?>
<svg width="92px" height="72px" viewBox="0 0 92 72" version="1.1" xmlns="http://www.w3.org/2000/svg" xmlns:xlink="http://www.w3.org/1999/xlink">
    <title>Shape</title>
    <g id="Page-1" stroke="none" stroke-width="1" fill="none" fill-rule="evenodd">
        <g id="photo" transform="translate(-1404.000000, -625.000000)" fill="#000000" fill-rule="nonzero">
            <g id="Symbols" transform="translate(487.000000, 622.000000)">
                <g id="Regular-S" transform="translate(916.790000, 3.000000)">
                    <path d="M13.2168,71.390625 L78.8906,71.390625 C87.2402,71.390625 91.342,67.28906 91.342,59.0859 L91.342,12.5039 C91.342,4.3008 87.2402,0.1992 78.8906,0.1992 L13.2168,0.1992 C4.916,0.1992 0.76562,4.3008 0.76562,12.5039 L0.76562,59.0859 C0.76562,67.28906 4.916,71.390625 13.2168,71.390625 Z M64.3887,35.1602 C62.7285,33.6465 60.6777,32.8652 58.7246,32.8652 C56.6738,32.8652 54.7695,33.5488 53.0117,35.1113 L35.8242,50.4922 L28.793,44.1934 C27.1816,42.7773 25.4238,42.0449 23.6172,42.0449 C22.0059,42.0449 20.2969,42.7285 18.7344,44.1445 L7.7969,53.959 L7.7969,12.8457 C7.7969,9.1836 9.7988,7.2793 13.3145,7.2793 L78.793,7.2793 C82.3086,7.2793 84.3105,9.1836 84.3105,12.8457 L84.3105,54.0078 L64.3887,35.1602 Z M29.4766,36.0391 C34.4082,36.0391 38.4609,31.9863 38.4609,27.0059 C38.4609,22.0742 34.4082,17.9727 29.4766,17.9727 C24.4961,17.9727 20.4434,22.0742 20.4434,27.0059 C20.4434,31.9863 24.4961,36.0391 29.4766,36.0391 Z" id="Shape"></path>
                </g>
            </g>
        </g>
    </g>
</svg>