<?xml version="1.0" encoding="UTF-8"?>
<svg width="92px" height="72px" viewBox="0 0 92 72" version="1.1" xmlns="http://www.w3.org/2000/svg" xmlns:xlink="http://www.w3.org/1999/xlink">
    <title>Shape</title>
    <g id="Page-1" stroke="none" stroke-width="1" fill="none" fill-rule="evenodd">
        <g id="play.rectangle.fill" transform="translate(-1404.000000, -625.000000)" fill="#000000" fill-rule="nonzero">
            <g id="Symbols" transform="translate(487.000000, 622.000000)">
                <g id="Regular-S" transform="translate(916.790000, 3.000000)">
                    <path d="M13.2168,71.390625 L78.8906,71.390625 C87.2402,71.390625 91.342,67.28906 91.342,59.0859 L91.342,12.5039 C91.342,4.3008 87.2402,0.1992 78.8906,0.1992 L13.2168,0.1992 C4.916,0.1992 0.76562,4.3008 0.76562,12.5039 L0.76562,59.0859 C0.76562,67.28906 4.916,71.390625 13.2168,71.390625 Z M61.4102,38.041 L38.8027,51.3223 C36.8496,52.4941 34.6035,51.5176 34.6035,49.5156 L34.6035,22.123 C34.6035,20.1211 37.0449,19.291 38.8027,20.3652 L61.4102,33.5977 C63.0703,34.623 63.1191,37.0645 61.4102,38.041 Z" id="Shape"></path>
                </g>
            </g>
        </g>
    </g>
</svg>