<?xml version="1.0" encoding="UTF-8"?>
<svg width="108px" height="102px" viewBox="0 0 108 102" version="1.1" xmlns="http://www.w3.org/2000/svg" xmlns:xlink="http://www.w3.org/1999/xlink">
    <title>Shape</title>
    <g id="Page-1" stroke="none" stroke-width="1" fill="none" fill-rule="evenodd">
        <g id="quote.bubble" transform="translate(-1396.000000, -1043.000000)" fill="#000000" fill-rule="nonzero">
            <g id="Symbols" transform="translate(493.000000, 618.000000)">
                <g id="Regular-M" transform="translate(902.580000, 425.000000)">
                    <path d="M30.4805,101.4082 C32.873,101.4082 34.5332,100.1387 37.5117,97.502 L54.3574,82.511719 L85.7051,82.511719 C100.256,82.511719 108.068,74.45508 108.068,60.1484 L108.068,22.7461 C108.068,8.4395 100.256,0.3828 85.7051,0.3828 L22.8145,0.3828 C8.2637,0.3828 0.4512,8.3906 0.4512,22.7461 L0.4512,60.1484 C0.4512,74.50391 8.2637,82.511719 22.8145,82.511719 L25.1582,82.511719 L25.1582,95.207 C25.1582,98.9668 27.0625,101.4082 30.4805,101.4082 Z M32.4824,92.47266 L32.4824,78.3125 C32.4824,75.67578 31.457,74.65039 28.8203,74.65039 L22.8145,74.65039 C12.9512,74.65039 8.3125,69.6211 8.3125,60.0996 L8.3125,22.7461 C8.3125,13.2246 12.9512,8.2441 22.8145,8.2441 L85.7051,8.2441 C95.52,8.2441 100.207,13.2246 100.207,22.7461 L100.207,60.0996 C100.207,69.6211 95.52,74.65039 85.7051,74.65039 L54.0645,74.65039 C51.3301,74.65039 49.9629,75.04102 48.1074,76.94531 L32.4824,92.47266 Z M31.5059,36.418 C31.5059,41.7402 34.875,45.9395 40.1973,45.9395 C42.1504,45.9395 44.1035,45.5977 45.3242,44.084 L45.7148,44.084 C44.0059,47.9414 40.3926,50.4316 37.3164,51.2129 C35.5586,51.6523 35.0703,52.4824 35.0703,53.6055 C35.0703,54.7773 36.0469,55.7539 37.3652,55.7539 C42.1504,55.7539 51.7207,50.0898 51.7207,38.127 C51.7207,31.7305 47.5703,26.8477 41.4668,26.8477 C35.8027,26.8477 31.5059,30.8027 31.5059,36.418 Z M56.8965,36.418 C56.8965,41.7402 60.2656,45.9395 65.5879,45.9395 C67.541,45.9395 69.4941,45.5977 70.7148,44.084 L71.1055,44.084 C69.3965,47.9414 65.7832,50.4316 62.707,51.2129 C60.9492,51.6523 60.4609,52.4824 60.4609,53.6055 C60.4609,54.7773 61.4375,55.7539 62.7559,55.7539 C67.541,55.7539 77.1113,50.0898 77.1113,38.127 C77.1113,31.7305 72.9609,26.8477 66.8574,26.8477 C61.1934,26.8477 56.8965,30.8027 56.8965,36.418 Z" id="Shape"></path>
                </g>
            </g>
        </g>
    </g>
</svg>