<?xml version="1.0" encoding="UTF-8"?>
<svg width="116px" height="91px" viewBox="0 0 116 91" version="1.1" xmlns="http://www.w3.org/2000/svg" xmlns:xlink="http://www.w3.org/1999/xlink">
    <title>Shape</title>
    <g id="Page-1" stroke="none" stroke-width="1" fill="none" fill-rule="evenodd">
        <g id="rectangle.dashed" transform="translate(-1392.000000, -1045.000000)" fill="#000000" fill-rule="nonzero">
            <g id="Symbols" transform="translate(487.079500, 622.660200)">
                <g id="Regular-M" transform="translate(905.191700, 423.212800)">
                    <path d="M-7.10542736e-15,25.7325 L7.8613,25.7325 L7.8613,15.5274 C7.8613,10.4493 10.5468,7.8614 15.4297,7.8614 L25.5371,7.8614 L25.5371,0 L15.332,0 C5.1269,0 -7.10542736e-15,5.0293 -7.10542736e-15,15.1368 L-7.10542736e-15,25.7325 Z M115.1368,25.7325 L115.1368,15.1368 C115.1368,5.0293 110.0098,0 99.8048,0 L89.5998,0 L89.5998,7.8614 L99.7068,7.8614 C104.5898,7.8614 107.2758,10.4493 107.2758,15.5274 L107.2758,25.7325 L115.1368,25.7325 Z M32.2265,7.8614 L54.248,7.8614 L54.248,0 L32.2265,0 L32.2265,7.8614 Z M60.8886,7.8614 L82.9101,7.8614 L82.9101,0 L60.8886,0 L60.8886,7.8614 Z M-7.10542736e-15,57.4708 L7.8613,57.4708 L7.8613,32.4219 L-7.10542736e-15,32.4219 L-7.10542736e-15,57.4708 Z M115.1368,57.4708 L115.1368,32.4219 L107.2758,32.4219 L107.2758,57.4708 L115.1368,57.4708 Z M15.332,89.89262 L25.5371,89.89262 L25.5371,82.0313 L15.4297,82.0313 C10.5468,82.0313 7.8613,79.443406 7.8613,74.36528 L7.8613,64.1602 L-7.10542736e-15,64.1602 L-7.10542736e-15,74.75591 C-7.10542736e-15,84.86333 5.1269,89.89262 15.332,89.89262 Z M99.8048,89.89262 C110.0098,89.89262 115.1368,84.86333 115.1368,74.75591 L115.1368,64.1602 L107.2758,64.1602 L107.2758,74.36528 C107.2758,79.443406 104.5898,82.0313 99.7068,82.0313 L89.5998,82.0313 L89.5998,89.89262 L99.8048,89.89262 Z M32.2265,89.89262 L54.248,89.89262 L54.248,82.0313 L32.2265,82.0313 L32.2265,89.89262 Z M60.8886,89.89262 L82.9101,89.89262 L82.9101,82.0313 L60.8886,82.0313 L60.8886,89.89262 Z" id="Shape"></path>
                </g>
            </g>
        </g>
    </g>
</svg>