<?xml version="1.0" encoding="UTF-8"?>
<svg width="87px" height="87px" viewBox="0 0 87 87" version="1.1" xmlns="http://www.w3.org/2000/svg" xmlns:xlink="http://www.w3.org/1999/xlink">
    <title>Shape</title>
    <g id="Page-1" stroke="none" stroke-width="1" fill="none" fill-rule="evenodd">
        <g id="tag.fill" transform="translate(-1406.000000, -619.000000)" fill="#000000" fill-rule="nonzero">
            <g id="Symbols" transform="translate(491.000000, 617.000000)">
                <g id="Regular-S" transform="translate(914.990000, 2.000000)">
                    <path d="M46.541,82.32227 L83.6992,45.1152 C86.7266,42.0879 86.9219,40.2812 86.9219,36.2773 L86.9219,21.7266 C86.9219,17.4297 85.7988,16.1113 82.8691,13.2305 L74.1777,4.4902 C71.2969,1.6094 69.9297,0.4863 65.6816,0.4863 L51.1309,0.4863 C47.127,0.4863 45.3203,0.6328 42.293,3.6602 L5.0859,40.8672 C-0.57812,46.5312 -0.72461,52.3906 5.1348,58.1523 L29.2559,82.27344 C35.1152,88.084 40.877,88.0352 46.541,82.32227 Z M59.1387,31.8828 C55.9648,31.8828 53.5723,29.3926 53.5723,26.2676 C53.5723,23.1914 55.9648,20.7012 59.1387,20.7012 C62.3613,20.7012 64.7539,23.1914 64.7539,26.2676 C64.7539,29.3926 62.3613,31.8828 59.1387,31.8828 Z" id="Shape"></path>
                </g>
            </g>
        </g>
    </g>
</svg>