<?xml version="1.0" encoding="UTF-8"?>
<svg width="78px" height="78px" viewBox="0 0 78 78" version="1.1" xmlns="http://www.w3.org/2000/svg" xmlns:xlink="http://www.w3.org/1999/xlink">
    <title>Path</title>
    <g id="Page-1" stroke="none" stroke-width="1" fill="none" fill-rule="evenodd">
        <g id="xmark" transform="translate(-1411.000000, -1052.000000)" fill="#000000" fill-rule="nonzero">
            <g id="Symbols" transform="translate(512.000000, 627.000000)">
                <g id="Regular-M" transform="translate(898.670000, 425.000000)">
                    <path d="M1.7207,70.09375 C0.0605,71.75391 0.0117,74.585938 1.7207,76.24609 C3.4297,77.90625 6.2617,77.90625 7.9219,76.24609 L39.1719,44.9961 L70.4219,76.24609 C72.082,77.90625 74.9629,77.95508 76.623,76.24609 C78.2832,74.537109 78.2832,71.75391 76.623,70.09375 L45.373,38.7949 L76.623,7.5449 C78.2832,5.8848 78.332,3.0527 76.623,1.3926 C74.9141,-0.3164 72.082,-0.3164 70.4219,1.3926 L39.1719,32.6426 L7.9219,1.3926 C6.2617,-0.3164 3.3809,-0.3652 1.7207,1.3926 C0.0605,3.1016 0.0605,5.8848 1.7207,7.5449 L32.9707,38.7949 L1.7207,70.09375 Z" id="Path"></path>
                </g>
            </g>
        </g>
    </g>
</svg>