<svg width="156" height="121" xmlns="http://www.w3.org/2000/svg"><g fill="#000" fill-rule="nonzero"><path d="M117.805 14c10.254 0 15.332 5.078 15.332 15.137l-.001 6.842-7.861 7.861V29.527c0-4.978-2.628-7.563-7.286-7.663l-.282-.003H33.43c-4.883 0-7.569 2.588-7.569 7.666v53.858L40.412 70.25c2.05-1.807 4.102-2.734 6.299-2.734 2.295 0 4.54.976 6.592 2.783l9.033 8.203 22.07-19.727c2.246-2.002 4.639-2.93 7.324-2.93 2.637 0 5.176 1.026 7.373 2.98l5.766 5.421-39.647 39.646h-31.89c-10.078 0-15.203-4.904-15.33-14.76L18 88.757v-59.62C18 19.03 23.127 14 33.332 14Zm15.331 46.753v28.003c0 10.058-5.077 15.137-15.331 15.137l-27.808-.001 27.64-27.64 7.639 7.182-.001-14.82 7.861-7.861Z"/><path d="M54.377 59.361c6.299 0 11.474-5.175 11.474-11.523 0-6.299-5.175-11.524-11.474-11.524-6.348 0-11.524 5.225-11.524 11.524 0 6.348 5.176 11.523 11.524 11.523ZM148.252 33.25a3.76 3.76 0 0 1 0 5.317l-78.856 78.856a3.76 3.76 0 1 1-5.317-5.316l78.857-78.856a3.76 3.76 0 0 1 5.316 0Z"/></g></svg>